<svg width="338" height="224" viewBox="0 0 338 224" fill="none" xmlns="http://www.w3.org/2000/svg">
<g filter="url(#filter0_d_544_43747)">
<rect width="328" height="214" transform="translate(5 5)" fill="white"/>
<path d="M29.9959 33.8H31.9159C31.9159 34.696 32.5559 35.32 33.5959 35.32C34.7319 35.32 35.2759 34.76 35.2759 34.12C35.2759 32.28 30.0759 33.24 30.0759 29.736C30.0759 28.2 31.4359 26.84 33.5959 26.84C35.5959 26.84 36.9559 28.2 36.9559 30.04H35.1159C35.1159 29.144 34.5559 28.6 33.5959 28.6C32.6359 28.6 32.0759 29.16 32.0759 29.72C32.0759 31.464 37.2759 30.536 37.2759 34.2C37.2759 35.64 35.8199 37.08 33.5959 37.08C31.3559 37.08 29.9959 35.72 29.9959 33.8ZM39.5084 34.44V31.32H38.3884V29.8H38.8684C39.4604 29.8 39.7484 29.512 39.7484 28.92V27.88H41.3484V29.64H42.9484V31.32H41.3484V34.36C41.3484 35 41.7484 35.4 42.3884 35.4C42.5644 35.4 42.6604 35.384 42.7404 35.368L42.8684 35.32V36.92C42.7884 36.952 42.7084 36.984 42.6124 37C42.4364 37.048 42.2284 37.08 41.9884 37.08C40.5324 37.08 39.5084 36.04 39.5084 34.44ZM49.1878 37L48.8678 36.28C48.6918 36.424 48.5158 36.568 48.3078 36.68C47.9398 36.888 47.4278 37.08 46.7878 37.08C45.1878 37.08 44.3078 36.216 44.3078 35C44.3078 33.544 45.3478 32.52 48.7078 32.52C48.7078 31.704 48.2278 31.24 47.5078 31.24C47.0118 31.24 46.7558 31.448 46.5798 31.64C46.4838 31.752 46.4198 31.896 46.3878 32.04H44.5478C44.7238 30.696 45.8278 29.56 47.6678 29.56C49.3318 29.56 50.5478 30.776 50.5478 32.44V37H49.1878ZM48.7078 34.12V33.8C46.5478 33.8 46.1478 34.2 46.1478 34.84C46.1478 35.24 46.5478 35.64 47.1078 35.64C48.0678 35.64 48.7078 35.016 48.7078 34.12ZM52.9453 34.44V31.32H51.8253V29.8H52.3053C52.8973 29.8 53.1853 29.512 53.1853 28.92V27.88H54.7853V29.64H56.3853V31.32H54.7853V34.36C54.7853 35 55.1853 35.4 55.8253 35.4C56.0013 35.4 56.0973 35.384 56.1773 35.368L56.3053 35.32V36.92C56.2253 36.952 56.1453 36.984 56.0493 37C55.8733 37.048 55.6653 37.08 55.4253 37.08C53.9693 37.08 52.9453 36.04 52.9453 34.44ZM58.2209 37V29.64H60.0609V37H58.2209ZM59.1809 28.76C58.6209 28.76 58.1409 28.28 58.1409 27.72C58.1409 27.16 58.6209 26.68 59.1809 26.68C59.7409 26.68 60.2209 27.16 60.2209 27.72C60.2209 28.28 59.7409 28.76 59.1809 28.76ZM61.7347 34.68H63.4947C63.5747 35.176 63.9747 35.56 64.6147 35.56C65.2547 35.56 65.6547 35.16 65.6547 34.76C65.6547 33.72 61.8947 34.344 61.8947 31.8C61.8947 30.6 62.9347 29.56 64.5347 29.56C66.3107 29.56 67.2387 30.52 67.4147 31.8H65.6547C65.5747 31.48 65.1747 31.08 64.6147 31.08C64.0547 31.08 63.7347 31.4 63.7347 31.8C63.7347 32.824 67.4947 32.216 67.4947 34.84C67.4947 36.04 66.4387 37.08 64.7747 37.08C62.8547 37.08 61.8787 36.136 61.7347 34.68ZM69.7334 34.44V31.32H68.6134V29.8H69.0934C69.6854 29.8 69.9734 29.512 69.9734 28.92V27.88H71.5734V29.64H73.1734V31.32H71.5734V34.36C71.5734 35 71.9734 35.4 72.6134 35.4C72.7894 35.4 72.8854 35.384 72.9654 35.368L73.0934 35.32V36.92C73.0134 36.952 72.9334 36.984 72.8374 37C72.6614 37.048 72.4534 37.08 72.2134 37.08C70.7574 37.08 69.7334 36.04 69.7334 34.44ZM75.0091 37V29.64H76.8491V37H75.0091ZM75.9691 28.76C75.4091 28.76 74.9291 28.28 74.9291 27.72C74.9291 27.16 75.4091 26.68 75.9691 26.68C76.5291 26.68 77.0091 27.16 77.0091 27.72C77.0091 28.28 76.5291 28.76 75.9691 28.76ZM78.9228 37V26.92H80.7628V32.68L83.0028 29.64H85.0828L82.4428 33.16L85.4028 37H83.3228L80.7628 33.64V37H78.9228ZM90.5197 37V26.92H94.2797C96.1997 26.92 97.7197 28.424 97.7197 30.28C97.7197 32.136 96.1997 33.64 94.2797 33.64H92.4397V37H90.5197ZM92.4397 31.8H94.2797C95.0797 31.8 95.7997 31.08 95.7997 30.28C95.7997 29.48 95.0797 28.76 94.2797 28.76H92.4397V31.8ZM99.3984 37V29.64H100.758L101.078 30.44C101.206 30.28 101.366 30.136 101.542 30.008C101.846 29.768 102.278 29.56 102.838 29.56C103.014 29.56 103.126 29.592 103.238 29.608L103.398 29.64V31.56L103.222 31.528C103.11 31.512 102.95 31.48 102.758 31.48C101.862 31.48 101.238 32.12 101.238 33.08V37H99.3984ZM108.202 31.32C107.162 31.32 106.362 32.104 106.362 33.32C106.362 34.536 107.162 35.32 108.202 35.32C109.242 35.32 110.042 34.536 110.042 33.32C110.042 32.104 109.242 31.32 108.202 31.32ZM108.202 29.56C110.186 29.56 111.882 31.24 111.882 33.32C111.882 35.4 110.186 37.08 108.202 37.08C106.218 37.08 104.522 35.4 104.522 33.32C104.522 31.24 106.218 29.56 108.202 29.56ZM118.994 37L118.674 36.28C118.498 36.424 118.322 36.568 118.114 36.68C117.746 36.888 117.234 37.08 116.594 37.08C114.754 37.08 113.154 35.496 113.154 33.32C113.154 31.144 114.754 29.56 116.594 29.56C117.186 29.56 117.666 29.752 118.002 29.928C118.194 30.04 118.37 30.152 118.514 30.28V26.92H120.354V37H118.994ZM116.834 35.32C117.874 35.32 118.674 34.536 118.674 33.32C118.674 32.104 117.874 31.32 116.834 31.32C115.794 31.32 114.994 32.104 114.994 33.32C114.994 34.536 115.794 35.32 116.834 35.32ZM122.437 33.96V29.64H124.277V33.72C124.277 34.68 124.901 35.32 125.797 35.32C126.693 35.32 127.317 34.68 127.317 33.72V29.64H129.157V37H127.797L127.477 36.28C127.301 36.424 127.093 36.568 126.885 36.68C126.517 36.888 125.989 37.08 125.397 37.08C123.653 37.08 122.437 35.88 122.437 33.96ZM131.241 37V26.92H133.081V32.68L135.321 29.64H137.401L134.761 33.16L137.721 37H135.641L133.081 33.64V37H131.241Z" fill="#020202"/>
<path d="M33.5103 68V61.76L32.4303 62.48L32.0103 61.76L33.8703 60.44H34.4703V68H33.5103ZM39.0252 67.22C40.0332 67.22 41.0052 66.272 41.0052 64.22C41.0052 62.168 40.0332 61.22 39.0252 61.22C38.0172 61.22 37.0452 62.168 37.0452 64.22C37.0452 66.272 38.0172 67.22 39.0252 67.22ZM39.0252 68.06C37.4532 68.06 36.0852 66.68 36.0852 64.22C36.0852 61.76 37.4532 60.38 39.0252 60.38C40.5852 60.38 41.9652 61.76 41.9652 64.22C41.9652 66.68 40.5852 68.06 39.0252 68.06ZM45.98 67.22C46.988 67.22 47.96 66.272 47.96 64.22C47.96 62.168 46.988 61.22 45.98 61.22C44.972 61.22 44 62.168 44 64.22C44 66.272 44.972 67.22 45.98 67.22ZM45.98 68.06C44.408 68.06 43.04 66.68 43.04 64.22C43.04 61.76 44.408 60.38 45.98 60.38C47.54 60.38 48.92 61.76 48.92 64.22C48.92 66.68 47.54 68.06 45.98 68.06ZM52.9348 67.22C53.9428 67.22 54.9148 66.272 54.9148 64.22C54.9148 62.168 53.9428 61.22 52.9348 61.22C51.9268 61.22 50.9548 62.168 50.9548 64.22C50.9548 66.272 51.9268 67.22 52.9348 67.22ZM52.9348 68.06C51.3628 68.06 49.9948 66.68 49.9948 64.22C49.9948 61.76 51.3628 60.38 52.9348 60.38C54.4948 60.38 55.8748 61.76 55.8748 64.22C55.8748 66.68 54.4948 68.06 52.9348 68.06Z" fill="#646464"/>
<path d="M34.5238 93.84C34.5238 93.12 34.8478 92.64 35.1838 92.34C35.3758 92.16 35.5918 92.028 35.8438 91.92C35.6398 91.848 35.4718 91.74 35.3278 91.596C35.0758 91.356 34.8238 90.972 34.8238 90.36C34.8238 89.352 35.7838 88.38 37.0438 88.38C38.3038 88.38 39.2638 89.352 39.2638 90.36C39.2638 90.972 38.9998 91.356 38.7478 91.596C38.6038 91.74 38.4358 91.848 38.2438 91.92C38.4838 92.028 38.6998 92.16 38.9038 92.34C39.2278 92.64 39.5638 93.12 39.5638 93.84C39.5638 95.04 38.5438 96.06 37.0438 96.06C35.5438 96.06 34.5238 95.04 34.5238 93.84ZM35.4838 93.78C35.4838 94.632 36.0838 95.22 37.0438 95.22C38.0038 95.22 38.6038 94.632 38.6038 93.78C38.6038 93 38.0038 92.4 37.0438 92.4C36.0838 92.4 35.4838 93 35.4838 93.78ZM35.7838 90.42C35.7838 91.02 36.3238 91.56 37.0438 91.56C37.7638 91.56 38.3038 91.02 38.3038 90.42C38.3038 89.76 37.7638 89.22 37.0438 89.22C36.3238 89.22 35.7838 89.76 35.7838 90.42ZM43.5866 95.22C44.5946 95.22 45.5666 94.272 45.5666 92.22C45.5666 90.168 44.5946 89.22 43.5866 89.22C42.5786 89.22 41.6066 90.168 41.6066 92.22C41.6066 94.272 42.5786 95.22 43.5866 95.22ZM43.5866 96.06C42.0146 96.06 40.6466 94.68 40.6466 92.22C40.6466 89.76 42.0146 88.38 43.5866 88.38C45.1466 88.38 46.5266 89.76 46.5266 92.22C46.5266 94.68 45.1466 96.06 43.5866 96.06ZM50.5414 95.22C51.5494 95.22 52.5214 94.272 52.5214 92.22C52.5214 90.168 51.5494 89.22 50.5414 89.22C49.5334 89.22 48.5614 90.168 48.5614 92.22C48.5614 94.272 49.5334 95.22 50.5414 95.22ZM50.5414 96.06C48.9694 96.06 47.6014 94.68 47.6014 92.22C47.6014 89.76 48.9694 88.38 50.5414 88.38C52.1014 88.38 53.4814 89.76 53.4814 92.22C53.4814 94.68 52.1014 96.06 50.5414 96.06Z" fill="#646464"/>
<path d="M35.2998 124L38.4198 117.28H34.9398V116.44H39.4998V117.1L36.3198 124H35.2998ZM43.1705 123.22C44.1785 123.22 45.1505 122.272 45.1505 120.22C45.1505 118.168 44.1785 117.22 43.1705 117.22C42.1625 117.22 41.1905 118.168 41.1905 120.22C41.1905 122.272 42.1625 123.22 43.1705 123.22ZM43.1705 124.06C41.5985 124.06 40.2305 122.68 40.2305 120.22C40.2305 117.76 41.5985 116.38 43.1705 116.38C44.7305 116.38 46.1105 117.76 46.1105 120.22C46.1105 122.68 44.7305 124.06 43.1705 124.06ZM50.1254 123.22C51.1334 123.22 52.1054 122.272 52.1054 120.22C52.1054 118.168 51.1334 117.22 50.1254 117.22C49.1174 117.22 48.1454 118.168 48.1454 120.22C48.1454 122.272 49.1174 123.22 50.1254 123.22ZM50.1254 124.06C48.5534 124.06 47.1854 122.68 47.1854 120.22C47.1854 117.76 48.5534 116.38 50.1254 116.38C51.6854 116.38 53.0654 117.76 53.0654 120.22C53.0654 122.68 51.6854 124.06 50.1254 124.06Z" fill="#646464"/>
<path d="M34.5852 150.08H35.5452C35.6772 150.692 36.1932 151.22 37.0452 151.22C37.9332 151.22 38.6052 150.56 38.6052 149.54C38.6052 148.52 37.9572 147.86 37.0452 147.86C36.5052 147.86 36.1452 148.088 35.9172 148.316C35.7852 148.448 35.6772 148.604 35.6052 148.76H34.7652L35.2452 144.44H39.0852V145.34H36.0852L35.8452 147.5C35.9412 147.416 36.0612 147.332 36.1932 147.26C36.4212 147.128 36.7452 147.02 37.1652 147.02C38.4732 147.02 39.5652 148.1 39.5652 149.54C39.5652 150.98 38.4852 152.06 37.0452 152.06C35.6532 152.06 34.7772 151.172 34.5852 150.08ZM43.6452 151.22C44.6532 151.22 45.6252 150.272 45.6252 148.22C45.6252 146.168 44.6532 145.22 43.6452 145.22C42.6372 145.22 41.6652 146.168 41.6652 148.22C41.6652 150.272 42.6372 151.22 43.6452 151.22ZM43.6452 152.06C42.0732 152.06 40.7052 150.68 40.7052 148.22C40.7052 145.76 42.0732 144.38 43.6452 144.38C45.2052 144.38 46.5852 145.76 46.5852 148.22C46.5852 150.68 45.2052 152.06 43.6452 152.06ZM50.6 151.22C51.608 151.22 52.58 150.272 52.58 148.22C52.58 146.168 51.608 145.22 50.6 145.22C49.592 145.22 48.62 146.168 48.62 148.22C48.62 150.272 49.592 151.22 50.6 151.22ZM50.6 152.06C49.028 152.06 47.66 150.68 47.66 148.22C47.66 145.76 49.028 144.38 50.6 144.38C52.16 144.38 53.54 145.76 53.54 148.22C53.54 150.68 52.16 152.06 50.6 152.06Z" fill="#646464"/>
<path d="M102.5 110C102.5 103.373 107.873 98 114.5 98C121.127 98 126.5 103.373 126.5 110V164H102.5V110Z" fill="#389C9A"/>
<path d="M182.5 70C182.5 63.3726 187.873 58 194.5 58C201.127 58 206.5 63.3726 206.5 70V164H182.5V70Z" fill="#389C9A"/>
<path d="M262.5 131C262.5 124.373 267.873 119 274.5 119V119C281.127 119 286.5 124.373 286.5 131V164H262.5V131Z" fill="#389C9A"/>
<rect x="80" y="164" width="229" height="2" rx="1" fill="#9F9F9F"/>
<path d="M87.3305 180.48H88.3505C87.9305 181.92 86.7905 183.06 85.1105 183.06C83.2505 183.06 81.5705 181.38 81.5705 179.22C81.5705 177.06 83.2505 175.38 85.1105 175.38C86.7305 175.38 87.8705 176.52 88.2905 177.96H87.2705C87.0185 177 86.2625 176.22 85.1105 176.22C83.7905 176.22 82.5305 177.48 82.5305 179.22C82.5305 180.96 83.7905 182.22 85.1105 182.22C86.3225 182.22 87.0785 181.44 87.3305 180.48ZM89.7891 183V175.44H90.6891V178.26C90.7971 178.128 90.9291 178.008 91.0851 177.9C91.3611 177.72 91.7331 177.54 92.2491 177.54C93.3891 177.54 94.3491 178.5 94.3491 179.88V183H93.4491V179.88C93.4491 178.98 92.8371 178.38 92.1291 178.38C91.2771 178.38 90.6891 178.968 90.6891 179.88V183H89.7891ZM98.2462 182.22C99.0742 182.22 99.8662 181.452 99.8662 180.3C99.8662 179.148 99.0742 178.38 98.2462 178.38C97.4062 178.38 96.6262 179.148 96.6262 180.3C96.6262 181.452 97.4062 182.22 98.2462 182.22ZM98.2462 183.06C96.8542 183.06 95.7262 181.92 95.7262 180.3C95.7262 178.68 96.8542 177.54 98.2462 177.54C99.6382 177.54 100.766 178.68 100.766 180.3C100.766 181.92 99.6382 183.06 98.2462 183.06ZM105.809 181.08H106.709C106.457 182.172 105.569 183.06 104.369 183.06C102.977 183.06 101.849 181.92 101.849 180.3C101.849 178.68 102.977 177.54 104.369 177.54C105.569 177.54 106.457 178.428 106.709 179.52H105.809C105.617 178.92 105.077 178.38 104.369 178.38C103.529 178.38 102.749 179.148 102.749 180.3C102.749 181.452 103.529 182.22 104.369 182.22C105.077 182.22 105.617 181.68 105.809 181.08ZM110.246 182.22C111.074 182.22 111.866 181.452 111.866 180.3C111.866 179.148 111.074 178.38 110.246 178.38C109.406 178.38 108.626 179.148 108.626 180.3C108.626 181.452 109.406 182.22 110.246 182.22ZM110.246 183.06C108.854 183.06 107.726 181.92 107.726 180.3C107.726 178.68 108.854 177.54 110.246 177.54C111.638 177.54 112.766 178.68 112.766 180.3C112.766 181.92 111.638 183.06 110.246 183.06ZM122.427 180.48H123.447C123.027 181.92 121.887 183.06 120.207 183.06C118.347 183.06 116.667 181.38 116.667 179.22C116.667 177.06 118.347 175.38 120.207 175.38C121.827 175.38 122.967 176.52 123.387 177.96H122.367C122.115 177 121.359 176.22 120.207 176.22C118.887 176.22 117.627 177.48 117.627 179.22C117.627 180.96 118.887 182.22 120.207 182.22C121.419 182.22 122.175 181.44 122.427 180.48ZM128.245 183L128.005 182.4C127.885 182.532 127.753 182.64 127.597 182.736C127.321 182.916 126.925 183.06 126.385 183.06C125.305 183.06 124.585 182.34 124.585 181.44C124.585 180.42 125.305 179.7 128.005 179.7V179.4C128.005 178.86 127.537 178.38 126.865 178.38C126.193 178.38 125.917 178.68 125.785 179.16H124.825C124.957 178.26 125.665 177.54 126.865 177.54C128.065 177.54 128.905 178.392 128.905 179.4V183H128.245ZM128.005 180.96V180.54C125.845 180.54 125.485 180.9 125.485 181.5C125.485 181.872 125.845 182.22 126.385 182.22C127.345 182.22 128.005 181.56 128.005 180.96ZM130.703 183V175.44H131.603V180.18L133.643 177.6H134.663L132.623 180.12L134.963 183H133.883L131.603 180.18V183H130.703ZM139.345 181.56H140.305C139.945 182.34 139.225 183.06 138.025 183.06C136.585 183.06 135.445 181.92 135.445 180.3C135.445 178.68 136.657 177.54 137.965 177.54C139.285 177.54 140.425 178.608 140.425 180.24C140.425 180.396 140.401 180.504 140.389 180.588L140.365 180.72H136.405C136.465 181.5 137.173 182.22 138.025 182.22C138.733 182.22 139.165 181.812 139.345 181.56ZM136.405 179.94H139.525C139.393 179.04 138.745 178.38 137.965 178.38C137.185 178.38 136.537 179.04 136.405 179.94Z" fill="#020202"/>
<path d="M171.72 180.48H172.74C172.32 181.92 171.18 183.06 169.5 183.06C167.64 183.06 165.96 181.38 165.96 179.22C165.96 177.06 167.64 175.38 169.5 175.38C171.12 175.38 172.26 176.52 172.68 177.96H171.66C171.408 177 170.652 176.22 169.5 176.22C168.18 176.22 166.92 177.48 166.92 179.22C166.92 180.96 168.18 182.22 169.5 182.22C170.712 182.22 171.468 181.44 171.72 180.48ZM177.539 183L177.299 182.4C177.179 182.532 177.047 182.64 176.891 182.736C176.615 182.916 176.219 183.06 175.679 183.06C174.599 183.06 173.879 182.34 173.879 181.44C173.879 180.42 174.599 179.7 177.299 179.7V179.4C177.299 178.86 176.831 178.38 176.159 178.38C175.487 178.38 175.211 178.68 175.079 179.16H174.119C174.251 178.26 174.959 177.54 176.159 177.54C177.359 177.54 178.199 178.392 178.199 179.4V183H177.539ZM177.299 180.96V180.54C175.139 180.54 174.779 180.9 174.779 181.5C174.779 181.872 175.139 182.22 175.679 182.22C176.639 182.22 177.299 181.56 177.299 180.96ZM179.937 183V177.6H180.597L180.837 178.2C180.945 178.08 181.077 177.972 181.233 177.876C181.509 177.696 181.881 177.54 182.397 177.54H182.517V178.44H182.277C181.425 178.44 180.837 179.028 180.837 179.94V183H179.937ZM183.775 183V177.6H184.435L184.675 178.2C184.783 178.08 184.915 177.972 185.071 177.876C185.347 177.696 185.719 177.54 186.235 177.54H186.355V178.44H186.115C185.263 178.44 184.675 179.028 184.675 179.94V183H183.775ZM189.772 182.22C190.6 182.22 191.392 181.452 191.392 180.3C191.392 179.148 190.6 178.38 189.772 178.38C188.932 178.38 188.152 179.148 188.152 180.3C188.152 181.452 188.932 182.22 189.772 182.22ZM189.772 183.06C188.38 183.06 187.252 181.92 187.252 180.3C187.252 178.68 188.38 177.54 189.772 177.54C191.164 177.54 192.292 178.68 192.292 180.3C192.292 181.92 191.164 183.06 189.772 183.06ZM194.155 181.26V178.44H193.195V177.6H193.615C194.059 177.6 194.275 177.384 194.275 176.94V176.16H195.055V177.6H196.255V178.44H195.055V181.26C195.055 181.872 195.415 182.22 195.955 182.22C196.039 182.22 196.111 182.208 196.171 182.196L196.255 182.16V182.94C196.219 182.964 196.171 182.988 196.123 183C196.015 183.036 195.883 183.06 195.715 183.06C194.887 183.06 194.155 182.34 194.155 181.26ZM206.037 180.48H207.057C206.637 181.92 205.497 183.06 203.817 183.06C201.957 183.06 200.277 181.38 200.277 179.22C200.277 177.06 201.957 175.38 203.817 175.38C205.437 175.38 206.577 176.52 206.997 177.96H205.977C205.725 177 204.969 176.22 203.817 176.22C202.497 176.22 201.237 177.48 201.237 179.22C201.237 180.96 202.497 182.22 203.817 182.22C205.029 182.22 205.785 181.44 206.037 180.48ZM211.856 183L211.616 182.4C211.496 182.532 211.364 182.64 211.208 182.736C210.932 182.916 210.536 183.06 209.996 183.06C208.916 183.06 208.196 182.34 208.196 181.44C208.196 180.42 208.916 179.7 211.616 179.7V179.4C211.616 178.86 211.148 178.38 210.476 178.38C209.804 178.38 209.528 178.68 209.396 179.16H208.436C208.568 178.26 209.276 177.54 210.476 177.54C211.676 177.54 212.516 178.392 212.516 179.4V183H211.856ZM211.616 180.96V180.54C209.456 180.54 209.096 180.9 209.096 181.5C209.096 181.872 209.456 182.22 209.996 182.22C210.956 182.22 211.616 181.56 211.616 180.96ZM214.314 183V175.44H215.214V180.18L217.254 177.6H218.274L216.234 180.12L218.574 183H217.494L215.214 180.18V183H214.314ZM222.956 181.56H223.916C223.556 182.34 222.836 183.06 221.636 183.06C220.196 183.06 219.056 181.92 219.056 180.3C219.056 178.68 220.268 177.54 221.576 177.54C222.896 177.54 224.036 178.608 224.036 180.24C224.036 180.396 224.012 180.504 224 180.588L223.976 180.72H220.016C220.076 181.5 220.784 182.22 221.636 182.22C222.344 182.22 222.776 181.812 222.956 181.56ZM220.016 179.94H223.136C223.004 179.04 222.356 178.38 221.576 178.38C220.796 178.38 220.148 179.04 220.016 179.94Z" fill="#020202"/>
<path d="M263.34 183V175.44H264.3V182.16H267.9V183H263.34ZM272.577 181.56H273.537C273.177 182.34 272.457 183.06 271.257 183.06C269.817 183.06 268.677 181.92 268.677 180.3C268.677 178.68 269.889 177.54 271.197 177.54C272.517 177.54 273.657 178.608 273.657 180.24C273.657 180.396 273.633 180.504 273.621 180.588L273.597 180.72H269.637C269.697 181.5 270.405 182.22 271.257 182.22C271.965 182.22 272.397 181.812 272.577 181.56ZM269.637 179.94H272.757C272.625 179.04 271.977 178.38 271.197 178.38C270.417 178.38 269.769 179.04 269.637 179.94ZM275.101 183V177.6H275.761L276.001 178.2C276.085 178.08 276.193 177.972 276.325 177.876C276.553 177.696 276.853 177.54 277.321 177.54C277.861 177.54 278.233 177.78 278.473 178.02C278.617 178.164 278.737 178.32 278.821 178.5C278.929 178.32 279.049 178.164 279.205 178.02C279.481 177.78 279.865 177.54 280.441 177.54C281.401 177.54 282.241 178.368 282.241 179.76V183H281.341V179.76C281.341 178.848 280.873 178.38 280.261 178.38C279.649 178.38 279.121 178.908 279.121 179.76V183H278.221V179.76C278.221 178.848 277.753 178.38 277.141 178.38C276.553 178.38 276.001 178.956 276.001 179.76V183H275.101ZM286.138 182.22C286.966 182.22 287.758 181.452 287.758 180.3C287.758 179.148 286.966 178.38 286.138 178.38C285.298 178.38 284.518 179.148 284.518 180.3C284.518 181.452 285.298 182.22 286.138 182.22ZM286.138 183.06C284.746 183.06 283.618 181.92 283.618 180.3C283.618 178.68 284.746 177.54 286.138 177.54C287.53 177.54 288.658 178.68 288.658 180.3C288.658 181.92 287.53 183.06 286.138 183.06ZM290.101 183V177.6H290.761L291.001 178.2C291.109 178.08 291.241 177.972 291.397 177.876C291.673 177.696 292.045 177.54 292.561 177.54C293.701 177.54 294.661 178.5 294.661 179.88V183H293.761V179.88C293.761 178.98 293.149 178.38 292.441 178.38C291.589 178.38 291.001 178.968 291.001 179.88V183H290.101ZM265.523 197V190.28H263.243V189.44H268.763V190.28H266.483V197H265.523ZM272.671 197L272.431 196.4C272.311 196.532 272.179 196.64 272.023 196.736C271.747 196.916 271.351 197.06 270.811 197.06C269.731 197.06 269.011 196.34 269.011 195.44C269.011 194.42 269.731 193.7 272.431 193.7V193.4C272.431 192.86 271.963 192.38 271.291 192.38C270.619 192.38 270.343 192.68 270.211 193.16H269.251C269.383 192.26 270.091 191.54 271.291 191.54C272.491 191.54 273.331 192.392 273.331 193.4V197H272.671ZM272.431 194.96V194.54C270.271 194.54 269.911 194.9 269.911 195.5C269.911 195.872 270.271 196.22 270.811 196.22C271.771 196.22 272.431 195.56 272.431 194.96ZM275.069 197V191.6H275.729L275.969 192.2C276.077 192.08 276.209 191.972 276.365 191.876C276.641 191.696 277.013 191.54 277.529 191.54H277.649V192.44H277.409C276.557 192.44 275.969 193.028 275.969 193.94V197H275.069ZM279.327 195.26V192.44H278.367V191.6H278.787C279.231 191.6 279.447 191.384 279.447 190.94V190.16H280.227V191.6H281.427V192.44H280.227V195.26C280.227 195.872 280.587 196.22 281.127 196.22C281.211 196.22 281.283 196.208 281.343 196.196L281.427 196.16V196.94C281.391 196.964 281.343 196.988 281.295 197C281.187 197.036 281.055 197.06 280.887 197.06C280.059 197.06 279.327 196.34 279.327 195.26ZM283.051 197V189.44H283.951V197H283.051ZM289.349 195.56H290.309C289.949 196.34 289.229 197.06 288.029 197.06C286.589 197.06 285.449 195.92 285.449 194.3C285.449 192.68 286.661 191.54 287.969 191.54C289.289 191.54 290.429 192.608 290.429 194.24C290.429 194.396 290.405 194.504 290.393 194.588L290.369 194.72H286.409C286.469 195.5 287.177 196.22 288.029 196.22C288.737 196.22 289.169 195.812 289.349 195.56ZM286.409 193.94H289.529C289.397 193.04 288.749 192.38 287.969 192.38C287.189 192.38 286.541 193.04 286.409 193.94ZM292.293 195.26V192.44H291.333V191.6H291.753C292.197 191.6 292.413 191.384 292.413 190.94V190.16H293.193V191.6H294.393V192.44H293.193V195.26C293.193 195.872 293.553 196.22 294.093 196.22C294.177 196.22 294.249 196.208 294.309 196.196L294.393 196.16V196.94C294.357 196.964 294.309 196.988 294.261 197C294.153 197.036 294.021 197.06 293.853 197.06C293.025 197.06 292.293 196.34 292.293 195.26Z" fill="#020202"/>
</g>
<defs>
<filter id="filter0_d_544_43747" x="0" y="0" width="338" height="224" filterUnits="userSpaceOnUse" color-interpolation-filters="sRGB">
<feFlood flood-opacity="0" result="BackgroundImageFix"/>
<feColorMatrix in="SourceAlpha" type="matrix" values="0 0 0 0 0 0 0 0 0 0 0 0 0 0 0 0 0 0 127 0" result="hardAlpha"/>
<feOffset/>
<feGaussianBlur stdDeviation="2.5"/>
<feComposite in2="hardAlpha" operator="out"/>
<feColorMatrix type="matrix" values="0 0 0 0 0 0 0 0 0 0 0 0 0 0 0 0 0 0 0.15 0"/>
<feBlend mode="normal" in2="BackgroundImageFix" result="effect1_dropShadow_544_43747"/>
<feBlend mode="normal" in="SourceGraphic" in2="effect1_dropShadow_544_43747" result="shape"/>
</filter>
</defs>
</svg>
