<svg width="338" height="288" viewBox="0 0 338 288" fill="none" xmlns="http://www.w3.org/2000/svg">
<g filter="url(#filter0_d_544_43654)">
<rect width="328" height="278" transform="translate(5 5)" fill="white"/>
<path d="M224.188 33V25.44H225.148V32.16H228.748V33H224.188ZM229.885 33V27.6H230.785V33H229.885ZM229.765 26.076C229.765 25.74 230.005 25.5 230.329 25.5C230.665 25.5 230.905 25.74 230.905 26.076C230.905 26.4 230.665 26.64 230.329 26.64C230.005 26.64 229.765 26.4 229.765 26.076ZM232.646 33V25.44H233.546V28.26C233.654 28.128 233.786 28.008 233.942 27.9C234.218 27.72 234.59 27.54 235.106 27.54C236.246 27.54 237.206 28.5 237.206 29.88V33H236.306V29.88C236.306 28.98 235.694 28.38 234.986 28.38C234.134 28.38 233.546 28.968 233.546 29.88V33H232.646ZM242.363 33L242.123 32.4C242.003 32.532 241.871 32.64 241.715 32.736C241.439 32.916 241.043 33.06 240.503 33.06C239.423 33.06 238.703 32.34 238.703 31.44C238.703 30.42 239.423 29.7 242.123 29.7V29.4C242.123 28.86 241.655 28.38 240.983 28.38C240.311 28.38 240.035 28.68 239.903 29.16H238.943C239.075 28.26 239.783 27.54 240.983 27.54C242.183 27.54 243.023 28.392 243.023 29.4V33H242.363ZM242.123 30.96V30.54C239.963 30.54 239.603 30.9 239.603 31.5C239.603 31.872 239.963 32.22 240.503 32.22C241.463 32.22 242.123 31.56 242.123 30.96ZM245.064 31.26V28.44H244.104V27.6H244.524C244.968 27.6 245.184 27.384 245.184 26.94V26.16H245.964V27.6H247.164V28.44H245.964V31.26C245.964 31.872 246.324 32.22 246.864 32.22C246.948 32.22 247.02 32.208 247.08 32.196L247.164 32.16V32.94C247.128 32.964 247.08 32.988 247.032 33C246.924 33.036 246.792 33.06 246.624 33.06C245.796 33.06 245.064 32.34 245.064 31.26ZM251.726 33V25.44H252.686V32.16H256.286V33H251.726ZM260.842 33L260.602 32.4C260.482 32.532 260.35 32.64 260.194 32.736C259.918 32.916 259.522 33.06 258.982 33.06C257.902 33.06 257.182 32.34 257.182 31.44C257.182 30.42 257.902 29.7 260.602 29.7V29.4C260.602 28.86 260.134 28.38 259.462 28.38C258.79 28.38 258.514 28.68 258.382 29.16H257.422C257.554 28.26 258.262 27.54 259.462 27.54C260.662 27.54 261.502 28.392 261.502 29.4V33H260.842ZM260.602 30.96V30.54C258.442 30.54 258.082 30.9 258.082 31.5C258.082 31.872 258.442 32.22 258.982 32.22C259.942 32.22 260.602 31.56 260.602 30.96ZM265.7 32.22C266.6 32.22 267.38 31.452 267.38 30.3C267.38 29.148 266.6 28.38 265.7 28.38C264.8 28.38 264.02 29.148 264.02 30.3C264.02 31.452 264.8 32.22 265.7 32.22ZM263.24 34.92V27.6H263.9L264.14 28.2C264.248 28.08 264.392 27.972 264.548 27.876C264.824 27.696 265.22 27.54 265.76 27.54C267.152 27.54 268.28 28.68 268.28 30.3C268.28 31.92 267.152 33.06 265.76 33.06C265.22 33.06 264.824 32.88 264.548 32.7C264.392 32.592 264.248 32.472 264.14 32.34V34.92H263.24ZM271.875 32.22C272.703 32.22 273.495 31.452 273.495 30.3C273.495 29.148 272.703 28.38 271.875 28.38C271.035 28.38 270.255 29.148 270.255 30.3C270.255 31.452 271.035 32.22 271.875 32.22ZM271.875 33.06C270.483 33.06 269.355 31.92 269.355 30.3C269.355 28.68 270.483 27.54 271.875 27.54C273.267 27.54 274.395 28.68 274.395 30.3C274.395 31.92 273.267 33.06 271.875 33.06ZM275.838 33V27.6H276.498L276.738 28.2C276.846 28.08 276.978 27.972 277.134 27.876C277.41 27.696 277.782 27.54 278.298 27.54H278.418V28.44H278.178C277.326 28.44 276.738 29.028 276.738 29.94V33H275.838ZM283.095 33L282.855 32.4C282.735 32.532 282.603 32.64 282.447 32.736C282.171 32.916 281.775 33.06 281.235 33.06C280.155 33.06 279.435 32.34 279.435 31.44C279.435 30.42 280.155 29.7 282.855 29.7V29.4C282.855 28.86 282.387 28.38 281.715 28.38C281.043 28.38 280.767 28.68 280.635 29.16H279.675C279.807 28.26 280.515 27.54 281.715 27.54C282.915 27.54 283.755 28.392 283.755 29.4V33H283.095ZM282.855 30.96V30.54C280.695 30.54 280.335 30.9 280.335 31.5C280.335 31.872 280.695 32.22 281.235 32.22C282.195 32.22 282.855 31.56 282.855 30.96ZM285.493 33V27.6H286.153L286.393 28.2C286.501 28.08 286.633 27.972 286.789 27.876C287.065 27.696 287.437 27.54 287.953 27.54C289.093 27.54 290.053 28.5 290.053 29.88V33H289.153V29.88C289.153 28.98 288.541 28.38 287.833 28.38C286.981 28.38 286.393 28.968 286.393 29.88V33H285.493Z" fill="#020202"/>
<path d="M302 36.2708C298.541 36.2708 295.729 33.4592 295.729 30C295.729 26.5408 298.541 23.7292 302 23.7292C305.459 23.7292 308.271 26.5408 308.271 30C308.271 33.4592 305.459 36.2708 302 36.2708ZM302 24.6042C299.025 24.6042 296.604 27.025 296.604 30C296.604 32.975 299.025 35.3958 302 35.3958C304.975 35.3958 307.396 32.975 307.396 30C307.396 27.025 304.975 24.6042 302 24.6042Z" fill="#020202"/>
<path d="M301.265 32.4967C301.154 32.4967 301.043 32.4558 300.956 32.3683C300.787 32.1992 300.787 31.9192 300.956 31.75L302.706 30L300.956 28.25C300.787 28.0808 300.787 27.8008 300.956 27.6317C301.125 27.4625 301.405 27.4625 301.574 27.6317L303.633 29.6908C303.802 29.86 303.802 30.14 303.633 30.3092L301.574 32.3683C301.487 32.4558 301.376 32.4967 301.265 32.4967Z" fill="#020202"/>
<path d="M33.8677 63V56.76L32.7877 57.48L32.3677 56.76L34.2277 55.44H34.8277V63H33.8677ZM36.5626 61.08H37.5226C37.6546 61.692 38.1706 62.22 39.0226 62.22C39.9106 62.22 40.5826 61.56 40.5826 60.54C40.5826 59.52 39.9346 58.86 39.0226 58.86C38.4826 58.86 38.1226 59.088 37.8946 59.316C37.7626 59.448 37.6546 59.604 37.5826 59.76H36.7426L37.2226 55.44H41.0626V56.34H38.0626L37.8226 58.5C37.9186 58.416 38.0386 58.332 38.1706 58.26C38.3986 58.128 38.7226 58.02 39.1426 58.02C40.4506 58.02 41.5426 59.1 41.5426 60.54C41.5426 61.98 40.4626 63.06 39.0226 63.06C37.6306 63.06 36.7546 62.172 36.5626 61.08ZM45.6226 62.22C46.6306 62.22 47.6026 61.272 47.6026 59.22C47.6026 57.168 46.6306 56.22 45.6226 56.22C44.6146 56.22 43.6426 57.168 43.6426 59.22C43.6426 61.272 44.6146 62.22 45.6226 62.22ZM45.6226 63.06C44.0506 63.06 42.6826 61.68 42.6826 59.22C42.6826 56.76 44.0506 55.38 45.6226 55.38C47.1826 55.38 48.5626 56.76 48.5626 59.22C48.5626 61.68 47.1826 63.06 45.6226 63.06ZM52.5774 62.22C53.5854 62.22 54.5574 61.272 54.5574 59.22C54.5574 57.168 53.5854 56.22 52.5774 56.22C51.5694 56.22 50.5974 57.168 50.5974 59.22C50.5974 61.272 51.5694 62.22 52.5774 62.22ZM52.5774 63.06C51.0054 63.06 49.6374 61.68 49.6374 59.22C49.6374 56.76 51.0054 55.38 52.5774 55.38C54.1374 55.38 55.5174 56.76 55.5174 59.22C55.5174 61.68 54.1374 63.06 52.5774 63.06Z" fill="#646464"/>
<path d="M33.5103 91V84.76L32.4303 85.48L32.0103 84.76L33.8703 83.44H34.4703V91H33.5103ZM39.0252 90.22C40.0332 90.22 41.0052 89.272 41.0052 87.22C41.0052 85.168 40.0332 84.22 39.0252 84.22C38.0172 84.22 37.0452 85.168 37.0452 87.22C37.0452 89.272 38.0172 90.22 39.0252 90.22ZM39.0252 91.06C37.4532 91.06 36.0852 89.68 36.0852 87.22C36.0852 84.76 37.4532 83.38 39.0252 83.38C40.5852 83.38 41.9652 84.76 41.9652 87.22C41.9652 89.68 40.5852 91.06 39.0252 91.06ZM45.98 90.22C46.988 90.22 47.96 89.272 47.96 87.22C47.96 85.168 46.988 84.22 45.98 84.22C44.972 84.22 44 85.168 44 87.22C44 89.272 44.972 90.22 45.98 90.22ZM45.98 91.06C44.408 91.06 43.04 89.68 43.04 87.22C43.04 84.76 44.408 83.38 45.98 83.38C47.54 83.38 48.92 84.76 48.92 87.22C48.92 89.68 47.54 91.06 45.98 91.06ZM52.9348 90.22C53.9428 90.22 54.9148 89.272 54.9148 87.22C54.9148 85.168 53.9428 84.22 52.9348 84.22C51.9268 84.22 50.9548 85.168 50.9548 87.22C50.9548 89.272 51.9268 90.22 52.9348 90.22ZM52.9348 91.06C51.3628 91.06 49.9948 89.68 49.9948 87.22C49.9948 84.76 51.3628 83.38 52.9348 83.38C54.4948 83.38 55.8748 84.76 55.8748 87.22C55.8748 89.68 54.4948 91.06 52.9348 91.06Z" fill="#646464"/>
<path d="M34.5238 116.84C34.5238 116.12 34.8478 115.64 35.1838 115.34C35.3758 115.16 35.5918 115.028 35.8438 114.92C35.6398 114.848 35.4718 114.74 35.3278 114.596C35.0758 114.356 34.8238 113.972 34.8238 113.36C34.8238 112.352 35.7838 111.38 37.0438 111.38C38.3038 111.38 39.2638 112.352 39.2638 113.36C39.2638 113.972 38.9998 114.356 38.7478 114.596C38.6038 114.74 38.4358 114.848 38.2438 114.92C38.4838 115.028 38.6998 115.16 38.9038 115.34C39.2278 115.64 39.5638 116.12 39.5638 116.84C39.5638 118.04 38.5438 119.06 37.0438 119.06C35.5438 119.06 34.5238 118.04 34.5238 116.84ZM35.4838 116.78C35.4838 117.632 36.0838 118.22 37.0438 118.22C38.0038 118.22 38.6038 117.632 38.6038 116.78C38.6038 116 38.0038 115.4 37.0438 115.4C36.0838 115.4 35.4838 116 35.4838 116.78ZM35.7838 113.42C35.7838 114.02 36.3238 114.56 37.0438 114.56C37.7638 114.56 38.3038 114.02 38.3038 113.42C38.3038 112.76 37.7638 112.22 37.0438 112.22C36.3238 112.22 35.7838 112.76 35.7838 113.42ZM43.5866 118.22C44.5946 118.22 45.5666 117.272 45.5666 115.22C45.5666 113.168 44.5946 112.22 43.5866 112.22C42.5786 112.22 41.6066 113.168 41.6066 115.22C41.6066 117.272 42.5786 118.22 43.5866 118.22ZM43.5866 119.06C42.0146 119.06 40.6466 117.68 40.6466 115.22C40.6466 112.76 42.0146 111.38 43.5866 111.38C45.1466 111.38 46.5266 112.76 46.5266 115.22C46.5266 117.68 45.1466 119.06 43.5866 119.06ZM50.5414 118.22C51.5494 118.22 52.5214 117.272 52.5214 115.22C52.5214 113.168 51.5494 112.22 50.5414 112.22C49.5334 112.22 48.5614 113.168 48.5614 115.22C48.5614 117.272 49.5334 118.22 50.5414 118.22ZM50.5414 119.06C48.9694 119.06 47.6014 117.68 47.6014 115.22C47.6014 112.76 48.9694 111.38 50.5414 111.38C52.1014 111.38 53.4814 112.76 53.4814 115.22C53.4814 117.68 52.1014 119.06 50.5414 119.06Z" fill="#646464"/>
<path d="M34.5852 145.08H35.5452C35.6772 145.692 36.1932 146.22 37.0452 146.22C37.9332 146.22 38.6052 145.56 38.6052 144.54C38.6052 143.52 37.9572 142.86 37.0452 142.86C36.5052 142.86 36.1452 143.088 35.9172 143.316C35.7852 143.448 35.6772 143.604 35.6052 143.76H34.7652L35.2452 139.44H39.0852V140.34H36.0852L35.8452 142.5C35.9412 142.416 36.0612 142.332 36.1932 142.26C36.4212 142.128 36.7452 142.02 37.1652 142.02C38.4732 142.02 39.5652 143.1 39.5652 144.54C39.5652 145.98 38.4852 147.06 37.0452 147.06C35.6532 147.06 34.7772 146.172 34.5852 145.08ZM43.6452 146.22C44.6532 146.22 45.6252 145.272 45.6252 143.22C45.6252 141.168 44.6532 140.22 43.6452 140.22C42.6372 140.22 41.6652 141.168 41.6652 143.22C41.6652 145.272 42.6372 146.22 43.6452 146.22ZM43.6452 147.06C42.0732 147.06 40.7052 145.68 40.7052 143.22C40.7052 140.76 42.0732 139.38 43.6452 139.38C45.2052 139.38 46.5852 140.76 46.5852 143.22C46.5852 145.68 45.2052 147.06 43.6452 147.06ZM50.6 146.22C51.608 146.22 52.58 145.272 52.58 143.22C52.58 141.168 51.608 140.22 50.6 140.22C49.592 140.22 48.62 141.168 48.62 143.22C48.62 145.272 49.592 146.22 50.6 146.22ZM50.6 147.06C49.028 147.06 47.66 145.68 47.66 143.22C47.66 140.76 49.028 139.38 50.6 139.38C52.16 139.38 53.54 140.76 53.54 143.22C53.54 145.68 52.16 147.06 50.6 147.06Z" fill="#646464"/>
<path d="M34.7023 175V174.28L37.7023 170.98C37.8343 170.836 37.9543 170.68 38.0623 170.524C38.2423 170.248 38.4223 169.876 38.4223 169.48C38.4223 168.76 37.8943 168.22 37.0423 168.22C36.1903 168.22 35.6023 168.808 35.6023 169.66H34.6423C34.6423 168.4 35.6623 167.38 37.0423 167.38C38.4223 167.38 39.3823 168.34 39.3823 169.48C39.3823 170.02 39.1183 170.536 38.8663 170.908C38.7223 171.124 38.5543 171.328 38.3623 171.52L35.9623 174.16H39.3823V175H34.7023ZM43.528 174.22C44.536 174.22 45.508 173.272 45.508 171.22C45.508 169.168 44.536 168.22 43.528 168.22C42.52 168.22 41.548 169.168 41.548 171.22C41.548 173.272 42.52 174.22 43.528 174.22ZM43.528 175.06C41.956 175.06 40.588 173.68 40.588 171.22C40.588 168.76 41.956 167.38 43.528 167.38C45.088 167.38 46.468 168.76 46.468 171.22C46.468 173.68 45.088 175.06 43.528 175.06ZM50.4828 174.22C51.4908 174.22 52.4628 173.272 52.4628 171.22C52.4628 169.168 51.4908 168.22 50.4828 168.22C49.4748 168.22 48.5028 169.168 48.5028 171.22C48.5028 173.272 49.4748 174.22 50.4828 174.22ZM50.4828 175.06C48.9108 175.06 47.5428 173.68 47.5428 171.22C47.5428 168.76 48.9108 167.38 50.4828 167.38C52.0428 167.38 53.4228 168.76 53.4228 171.22C53.4228 173.68 52.0428 175.06 50.4828 175.06Z" fill="#646464"/>
<path d="M38.0626 201.08H39.0226C39.1546 201.692 39.6706 202.22 40.5226 202.22C41.4106 202.22 42.0826 201.56 42.0826 200.54C42.0826 199.52 41.4346 198.86 40.5226 198.86C39.9826 198.86 39.6226 199.088 39.3946 199.316C39.2626 199.448 39.1546 199.604 39.0826 199.76H38.2426L38.7226 195.44H42.5626V196.34H39.5626L39.3226 198.5C39.4186 198.416 39.5386 198.332 39.6706 198.26C39.8986 198.128 40.2226 198.02 40.6426 198.02C41.9506 198.02 43.0426 199.1 43.0426 200.54C43.0426 201.98 41.9626 203.06 40.5226 203.06C39.1306 203.06 38.2546 202.172 38.0626 201.08ZM47.1226 202.22C48.1306 202.22 49.1026 201.272 49.1026 199.22C49.1026 197.168 48.1306 196.22 47.1226 196.22C46.1146 196.22 45.1426 197.168 45.1426 199.22C45.1426 201.272 46.1146 202.22 47.1226 202.22ZM47.1226 203.06C45.5506 203.06 44.1826 201.68 44.1826 199.22C44.1826 196.76 45.5506 195.38 47.1226 195.38C48.6826 195.38 50.0626 196.76 50.0626 199.22C50.0626 201.68 48.6826 203.06 47.1226 203.06Z" fill="#646464"/>
<path d="M82 138C82 135.239 84.2386 133 87 133C89.7614 133 92 135.239 92 138V207H82V138Z" fill="#8ECE91"/>
<path d="M107 158C107 155.239 104.761 153 102 153C99.2386 153 97 155.239 97 158L97 207L107 207L107 158Z" fill="#EB8B8F"/>
<path d="M132 158C132 155.239 134.239 153 137 153C139.761 153 142 155.239 142 158V207H132V158Z" fill="#8ECE91"/>
<path d="M157 127C157 124.239 154.761 122 152 122C149.239 122 147 124.239 147 127L147 207L157 207L157 127Z" fill="#EB8B8F"/>
<path d="M182 99C182 96.2386 184.239 94 187 94C189.761 94 192 96.2386 192 99V207H182V99Z" fill="#8ECE91"/>
<path d="M207 165C207 162.239 204.761 160 202 160C199.239 160 197 162.239 197 165L197 207L207 207L207 165Z" fill="#EB8B8F"/>
<path d="M232 58C232 55.2386 234.239 53 237 53C239.761 53 242 55.2386 242 58V207H232V58Z" fill="#8ECE91"/>
<path d="M257 125C257 122.239 254.761 120 252 120C249.239 120 247 122.239 247 125L247 207L257 207L257 125Z" fill="#EB8B8F"/>
<path d="M282 114C282 111.239 284.239 109 287 109C289.761 109 292 111.239 292 114V207H282V114Z" fill="#8ECE91"/>
<path d="M307 138C307 135.239 304.761 133 302 133C299.239 133 297 135.239 297 138L297 207L307 207L307 138Z" fill="#EB8B8F"/>
<rect x="80" y="207" width="229" height="2" rx="1" fill="#9F9F9F"/>
<path d="M83.3019 228.96H84.2619C84.3219 229.68 84.8619 230.22 85.5819 230.22C86.3619 230.22 86.9019 229.68 86.9019 228.96V223.44H87.8619V228.96C87.8619 230.1 86.9019 231.06 85.5819 231.06C84.2619 231.06 83.3019 230.1 83.3019 228.96ZM93.1414 231L92.9014 230.4C92.7814 230.532 92.6494 230.64 92.4934 230.736C92.2174 230.916 91.8214 231.06 91.2814 231.06C90.2014 231.06 89.4814 230.34 89.4814 229.44C89.4814 228.42 90.2014 227.7 92.9014 227.7V227.4C92.9014 226.86 92.4334 226.38 91.7614 226.38C91.0894 226.38 90.8134 226.68 90.6814 227.16H89.7214C89.8534 226.26 90.5614 225.54 91.7614 225.54C92.9614 225.54 93.8014 226.392 93.8014 227.4V231H93.1414ZM92.9014 228.96V228.54C90.7414 228.54 90.3814 228.9 90.3814 229.5C90.3814 229.872 90.7414 230.22 91.2814 230.22C92.2414 230.22 92.9014 229.56 92.9014 228.96ZM95.5395 231V225.6H96.1995L96.4395 226.2C96.5475 226.08 96.6795 225.972 96.8355 225.876C97.1115 225.696 97.4835 225.54 97.9995 225.54C99.1395 225.54 100.1 226.5 100.1 227.88V231H99.1995V227.88C99.1995 226.98 98.5875 226.38 97.8795 226.38C97.0275 226.38 96.4395 226.968 96.4395 227.88V231H95.5395Z" fill="#020202"/>
<path d="M124.837 231V223.44H129.457V224.28H125.797V226.8H128.797V227.64H125.797V231H124.837ZM134.074 229.56H135.034C134.674 230.34 133.954 231.06 132.754 231.06C131.314 231.06 130.174 229.92 130.174 228.3C130.174 226.68 131.386 225.54 132.694 225.54C134.014 225.54 135.154 226.608 135.154 228.24C135.154 228.396 135.13 228.504 135.118 228.588L135.094 228.72H131.134C131.194 229.5 131.902 230.22 132.754 230.22C133.462 230.22 133.894 229.812 134.074 229.56ZM131.134 227.94H134.254C134.122 227.04 133.474 226.38 132.694 226.38C131.914 226.38 131.266 227.04 131.134 227.94ZM139.118 230.22C140.018 230.22 140.798 229.452 140.798 228.3C140.798 227.148 140.018 226.38 139.118 226.38C138.218 226.38 137.438 227.148 137.438 228.3C137.438 229.452 138.218 230.22 139.118 230.22ZM136.658 231V223.44H137.558V226.26C137.666 226.128 137.81 226.008 137.966 225.9C138.242 225.72 138.638 225.54 139.178 225.54C140.57 225.54 141.698 226.68 141.698 228.3C141.698 229.92 140.57 231.06 139.178 231.06C138.638 231.06 138.242 230.916 137.966 230.736C137.81 230.64 137.666 230.532 137.558 230.4L137.318 231H136.658Z" fill="#020202"/>
<path d="M165.574 231V223.44H166.354L169.174 229.5L171.994 223.44H172.774V231H171.814V225.9L169.474 231H168.874L166.534 225.9V231H165.574ZM178.171 231L177.931 230.4C177.811 230.532 177.679 230.64 177.523 230.736C177.247 230.916 176.851 231.06 176.311 231.06C175.231 231.06 174.511 230.34 174.511 229.44C174.511 228.42 175.231 227.7 177.931 227.7V227.4C177.931 226.86 177.463 226.38 176.791 226.38C176.119 226.38 175.843 226.68 175.711 227.16H174.751C174.883 226.26 175.591 225.54 176.791 225.54C177.991 225.54 178.831 226.392 178.831 227.4V231H178.171ZM177.931 228.96V228.54C175.771 228.54 175.411 228.9 175.411 229.5C175.411 229.872 175.771 230.22 176.311 230.22C177.271 230.22 177.931 229.56 177.931 228.96ZM180.569 231V225.6H181.229L181.469 226.2C181.577 226.08 181.709 225.972 181.865 225.876C182.141 225.696 182.513 225.54 183.029 225.54H183.149V226.44H182.909C182.057 226.44 181.469 227.028 181.469 227.94V231H180.569Z" fill="#020202"/>
<path d="M206.545 231L209.425 223.44H210.265L213.145 231H212.125L211.405 229.14H208.285L207.565 231H206.545ZM208.585 228.3H211.105L209.845 225L208.585 228.3ZM216.623 230.22C217.523 230.22 218.303 229.452 218.303 228.3C218.303 227.148 217.523 226.38 216.623 226.38C215.723 226.38 214.943 227.148 214.943 228.3C214.943 229.452 215.723 230.22 216.623 230.22ZM214.163 232.92V225.6H214.823L215.063 226.2C215.171 226.08 215.315 225.972 215.471 225.876C215.747 225.696 216.143 225.54 216.683 225.54C218.075 225.54 219.203 226.68 219.203 228.3C219.203 229.92 218.075 231.06 216.683 231.06C216.143 231.06 215.747 230.88 215.471 230.7C215.315 230.592 215.171 230.472 215.063 230.34V232.92H214.163ZM220.637 231V225.6H221.297L221.537 226.2C221.645 226.08 221.777 225.972 221.933 225.876C222.209 225.696 222.581 225.54 223.097 225.54H223.217V226.44H222.977C222.125 226.44 221.537 227.028 221.537 227.94V231H220.637Z" fill="#020202"/>
<path d="M248.019 231V223.44H248.799L251.619 229.5L254.439 223.44H255.219V231H254.259V225.9L251.919 231H251.319L248.979 225.9V231H248.019ZM260.736 229.56H261.696C261.336 230.34 260.616 231.06 259.416 231.06C257.976 231.06 256.836 229.92 256.836 228.3C256.836 226.68 258.048 225.54 259.356 225.54C260.676 225.54 261.816 226.608 261.816 228.24C261.816 228.396 261.792 228.504 261.78 228.588L261.756 228.72H257.796C257.856 229.5 258.564 230.22 259.416 230.22C260.124 230.22 260.556 229.812 260.736 229.56ZM257.796 227.94H260.916C260.784 227.04 260.136 226.38 259.356 226.38C258.576 226.38 257.928 227.04 257.796 227.94ZM263.26 231V225.6H264.16V231H263.26ZM263.14 224.076C263.14 223.74 263.38 223.5 263.704 223.5C264.04 223.5 264.28 223.74 264.28 224.076C264.28 224.4 264.04 224.64 263.704 224.64C263.38 224.64 263.14 224.4 263.14 224.076Z" fill="#020202"/>
<path d="M288.032 228.96H288.992C289.052 229.68 289.592 230.22 290.312 230.22C291.092 230.22 291.632 229.68 291.632 228.96V223.44H292.592V228.96C292.592 230.1 291.632 231.06 290.312 231.06C288.992 231.06 288.032 230.1 288.032 228.96ZM294.452 228.72V225.6H295.352V228.72C295.352 229.62 295.94 230.22 296.672 230.22C297.524 230.22 298.112 229.632 298.112 228.72V225.6H299.012V231H298.352L298.112 230.4C298.004 230.532 297.872 230.64 297.716 230.736C297.44 230.916 297.068 231.06 296.552 231.06C295.412 231.06 294.452 230.1 294.452 228.72ZM300.809 231V225.6H301.469L301.709 226.2C301.817 226.08 301.949 225.972 302.105 225.876C302.381 225.696 302.753 225.54 303.269 225.54C304.409 225.54 305.369 226.5 305.369 227.88V231H304.469V227.88C304.469 226.98 303.857 226.38 303.149 226.38C302.297 226.38 301.709 226.968 301.709 227.88V231H300.809Z" fill="#020202"/>
<rect x="147" y="247" width="76" height="18" rx="9" fill="#8ECE91"/>
<path d="M161.145 259V252.7H163.295C164.385 252.7 165.295 253.6 165.295 254.65C165.295 255.7 164.385 256.6 163.295 256.6H161.945V259H161.145ZM161.945 255.9H163.295C163.945 255.9 164.495 255.35 164.495 254.65C164.495 253.95 163.945 253.4 163.295 253.4H161.945V255.9ZM169.301 257.8H170.101C169.801 258.45 169.201 259.05 168.201 259.05C167.001 259.05 166.051 258.1 166.051 256.75C166.051 255.4 167.061 254.45 168.151 254.45C169.251 254.45 170.201 255.34 170.201 256.7C170.201 256.83 170.181 256.92 170.171 256.99L170.151 257.1H166.851C166.901 257.75 167.491 258.35 168.201 258.35C168.791 258.35 169.151 258.01 169.301 257.8ZM166.851 256.45H169.451C169.341 255.7 168.801 255.15 168.151 255.15C167.501 255.15 166.961 255.7 166.851 256.45ZM171.405 259V254.5H171.955L172.155 255C172.245 254.9 172.355 254.81 172.485 254.73C172.715 254.58 173.025 254.45 173.455 254.45C174.405 254.45 175.205 255.25 175.205 256.4V259H174.455V256.4C174.455 255.65 173.945 255.15 173.355 255.15C172.645 255.15 172.155 255.64 172.155 256.4V259H171.405ZM178.504 258.35C179.254 258.35 179.904 257.71 179.904 256.75C179.904 255.79 179.254 255.15 178.504 255.15C177.754 255.15 177.104 255.79 177.104 256.75C177.104 257.71 177.754 258.35 178.504 258.35ZM180.004 259L179.804 258.5C179.704 258.61 179.594 258.7 179.464 258.78C179.234 258.93 178.904 259.05 178.454 259.05C177.294 259.05 176.354 258.1 176.354 256.75C176.354 255.4 177.294 254.45 178.454 254.45C178.904 254.45 179.234 254.6 179.464 254.75C179.594 254.84 179.704 254.94 179.804 255.05V252.7H180.554V259H180.004ZM184.958 259L184.758 258.5C184.658 258.61 184.548 258.7 184.418 258.78C184.188 258.93 183.858 259.05 183.408 259.05C182.508 259.05 181.908 258.45 181.908 257.7C181.908 256.85 182.508 256.25 184.758 256.25V256C184.758 255.55 184.368 255.15 183.808 255.15C183.248 255.15 183.018 255.4 182.908 255.8H182.108C182.218 255.05 182.808 254.45 183.808 254.45C184.808 254.45 185.508 255.16 185.508 256V259H184.958ZM184.758 257.3V256.95C182.958 256.95 182.658 257.25 182.658 257.75C182.658 258.06 182.958 258.35 183.408 258.35C184.208 258.35 184.758 257.8 184.758 257.3ZM189.006 258.35C189.756 258.35 190.406 257.71 190.406 256.75C190.406 255.79 189.756 255.15 189.006 255.15C188.256 255.15 187.606 255.79 187.606 256.75C187.606 257.71 188.256 258.35 189.006 258.35ZM186.956 260.6V254.5H187.506L187.706 255C187.796 254.9 187.916 254.81 188.046 254.73C188.276 254.58 188.606 254.45 189.056 254.45C190.216 254.45 191.156 255.4 191.156 256.75C191.156 258.1 190.216 259.05 189.056 259.05C188.606 259.05 188.276 258.9 188.046 258.75C187.916 258.66 187.796 258.56 187.706 258.45V260.6H186.956ZM195.201 259L195.001 258.5C194.901 258.61 194.791 258.7 194.661 258.78C194.431 258.93 194.101 259.05 193.651 259.05C192.751 259.05 192.151 258.45 192.151 257.7C192.151 256.85 192.751 256.25 195.001 256.25V256C195.001 255.55 194.611 255.15 194.051 255.15C193.491 255.15 193.261 255.4 193.151 255.8H192.351C192.461 255.05 193.051 254.45 194.051 254.45C195.051 254.45 195.751 255.16 195.751 256V259H195.201ZM195.001 257.3V256.95C193.201 256.95 192.901 257.25 192.901 257.75C192.901 258.06 193.201 258.35 193.651 258.35C194.451 258.35 195.001 257.8 195.001 257.3ZM197.452 257.55V255.2H196.652V254.5H197.002C197.372 254.5 197.552 254.32 197.552 253.95V253.3H198.202V254.5H199.202V255.2H198.202V257.55C198.202 258.06 198.502 258.35 198.952 258.35C199.022 258.35 199.082 258.34 199.132 258.33L199.202 258.3V258.95C199.172 258.97 199.132 258.99 199.092 259C199.002 259.03 198.892 259.05 198.752 259.05C198.062 259.05 197.452 258.45 197.452 257.55ZM203.258 259L203.058 258.5C202.958 258.61 202.848 258.7 202.718 258.78C202.488 258.93 202.158 259.05 201.708 259.05C200.808 259.05 200.208 258.45 200.208 257.7C200.208 256.85 200.808 256.25 203.058 256.25V256C203.058 255.55 202.668 255.15 202.108 255.15C201.548 255.15 201.318 255.4 201.208 255.8H200.408C200.518 255.05 201.108 254.45 202.108 254.45C203.108 254.45 203.808 255.16 203.808 256V259H203.258ZM203.058 257.3V256.95C201.258 256.95 200.958 257.25 200.958 257.75C200.958 258.06 201.258 258.35 201.708 258.35C202.508 258.35 203.058 257.8 203.058 257.3ZM205.256 259V254.5H205.806L206.006 255C206.096 254.9 206.206 254.81 206.336 254.73C206.566 254.58 206.876 254.45 207.306 254.45C208.256 254.45 209.056 255.25 209.056 256.4V259H208.306V256.4C208.306 255.65 207.796 255.15 207.206 255.15C206.496 255.15 206.006 255.64 206.006 256.4V259H205.256Z" fill="#020202"/>
<rect x="233" y="247" width="76" height="18" rx="9" fill="#EB8B8F"/>
<path d="M246 259V252.7H248.15C249.24 252.7 250.15 253.6 250.15 254.65C250.15 255.7 249.24 256.6 248.15 256.6H246.8V259H246ZM246.8 255.9H248.15C248.8 255.9 249.35 255.35 249.35 254.65C249.35 253.95 248.8 253.4 248.15 253.4H246.8V255.9ZM254.156 257.8H254.956C254.656 258.45 254.056 259.05 253.056 259.05C251.856 259.05 250.906 258.1 250.906 256.75C250.906 255.4 251.916 254.45 253.006 254.45C254.106 254.45 255.056 255.34 255.056 256.7C255.056 256.83 255.036 256.92 255.026 256.99L255.006 257.1H251.706C251.756 257.75 252.346 258.35 253.056 258.35C253.646 258.35 254.006 258.01 254.156 257.8ZM251.706 256.45H254.306C254.196 255.7 253.656 255.15 253.006 255.15C252.356 255.15 251.816 255.7 251.706 256.45ZM256.26 259V254.5H256.81L257.01 255C257.1 254.9 257.21 254.81 257.34 254.73C257.57 254.58 257.88 254.45 258.31 254.45C259.26 254.45 260.06 255.25 260.06 256.4V259H259.31V256.4C259.31 255.65 258.8 255.15 258.21 255.15C257.5 255.15 257.01 255.64 257.01 256.4V259H256.26ZM261.459 259.35H262.209C262.359 259.7 262.659 260 263.309 260C264.069 260 264.559 259.5 264.559 258.85V258.25C264.469 258.36 264.369 258.46 264.249 258.55C264.039 258.7 263.709 258.85 263.259 258.85C262.109 258.85 261.209 257.96 261.209 256.65C261.209 255.34 262.109 254.45 263.259 254.45C263.709 254.45 264.039 254.58 264.249 254.73C264.369 254.81 264.469 254.9 264.559 255L264.759 254.5H265.309V258.85C265.309 259.9 264.509 260.7 263.309 260.7C262.279 260.7 261.649 260.1 261.459 259.35ZM263.309 258.15C264.059 258.15 264.659 257.55 264.659 256.65C264.659 255.75 264.059 255.15 263.309 255.15C262.559 255.15 261.959 255.75 261.959 256.65C261.959 257.55 262.559 258.15 263.309 258.15ZM269.756 257.8H270.556C270.256 258.45 269.656 259.05 268.656 259.05C267.456 259.05 266.506 258.1 266.506 256.75C266.506 255.4 267.516 254.45 268.606 254.45C269.706 254.45 270.656 255.34 270.656 256.7C270.656 256.83 270.636 256.92 270.626 256.99L270.606 257.1H267.306C267.356 257.75 267.946 258.35 268.656 258.35C269.246 258.35 269.606 258.01 269.756 257.8ZM267.306 256.45H269.906C269.796 255.7 269.256 255.15 268.606 255.15C267.956 255.15 267.416 255.7 267.306 256.45ZM271.91 259V252.7H272.66V259H271.91ZM274.208 257.1V254.5H274.958V257.1C274.958 257.85 275.448 258.35 276.058 258.35C276.768 258.35 277.258 257.86 277.258 257.1V254.5H278.008V259H277.458L277.258 258.5C277.168 258.61 277.058 258.7 276.928 258.78C276.698 258.93 276.388 259.05 275.958 259.05C275.008 259.05 274.208 258.25 274.208 257.1ZM282.356 259L282.156 258.5C282.056 258.61 281.946 258.7 281.816 258.78C281.586 258.93 281.256 259.05 280.806 259.05C279.906 259.05 279.306 258.45 279.306 257.7C279.306 256.85 279.906 256.25 282.156 256.25V256C282.156 255.55 281.766 255.15 281.206 255.15C280.646 255.15 280.416 255.4 280.306 255.8H279.506C279.616 255.05 280.206 254.45 281.206 254.45C282.206 254.45 282.906 255.16 282.906 256V259H282.356ZM282.156 257.3V256.95C280.356 256.95 280.056 257.25 280.056 257.75C280.056 258.06 280.356 258.35 280.806 258.35C281.606 258.35 282.156 257.8 282.156 257.3ZM284.354 259V254.5H284.904L285.104 255C285.194 254.9 285.304 254.81 285.434 254.73C285.664 254.58 285.974 254.45 286.404 254.45H286.504V255.2H286.304C285.594 255.2 285.104 255.69 285.104 256.45V259H284.354ZM290.403 259L290.203 258.5C290.103 258.61 289.993 258.7 289.863 258.78C289.633 258.93 289.303 259.05 288.853 259.05C287.953 259.05 287.353 258.45 287.353 257.7C287.353 256.85 287.953 256.25 290.203 256.25V256C290.203 255.55 289.813 255.15 289.253 255.15C288.693 255.15 288.463 255.4 288.353 255.8H287.553C287.663 255.05 288.253 254.45 289.253 254.45C290.253 254.45 290.953 255.16 290.953 256V259H290.403ZM290.203 257.3V256.95C288.403 256.95 288.103 257.25 288.103 257.75C288.103 258.06 288.403 258.35 288.853 258.35C289.653 258.35 290.203 257.8 290.203 257.3ZM292.401 259V254.5H292.951L293.151 255C293.241 254.9 293.351 254.81 293.481 254.73C293.711 254.58 294.021 254.45 294.451 254.45C295.401 254.45 296.201 255.25 296.201 256.4V259H295.451V256.4C295.451 255.65 294.941 255.15 294.351 255.15C293.641 255.15 293.151 255.64 293.151 256.4V259H292.401Z" fill="#020202"/>
</g>
<defs>
<filter id="filter0_d_544_43654" x="0" y="0" width="338" height="288" filterUnits="userSpaceOnUse" color-interpolation-filters="sRGB">
<feFlood flood-opacity="0" result="BackgroundImageFix"/>
<feColorMatrix in="SourceAlpha" type="matrix" values="0 0 0 0 0 0 0 0 0 0 0 0 0 0 0 0 0 0 127 0" result="hardAlpha"/>
<feOffset/>
<feGaussianBlur stdDeviation="2.5"/>
<feComposite in2="hardAlpha" operator="out"/>
<feColorMatrix type="matrix" values="0 0 0 0 0 0 0 0 0 0 0 0 0 0 0 0 0 0 0.15 0"/>
<feBlend mode="normal" in2="BackgroundImageFix" result="effect1_dropShadow_544_43654"/>
<feBlend mode="normal" in="SourceGraphic" in2="effect1_dropShadow_544_43654" result="shape"/>
</filter>
</defs>
</svg>
