<svg width="338" height="258" viewBox="0 0 338 258" fill="none" xmlns="http://www.w3.org/2000/svg">
<g filter="url(#filter0_d_544_43719)">
<rect width="328" height="248" transform="translate(5 5)" fill="white"/>
<path d="M30.8213 38.3H32.7413C32.7413 39.196 33.3813 39.82 34.4213 39.82C35.5573 39.82 36.1013 39.26 36.1013 38.62C36.1013 36.78 30.9013 37.74 30.9013 34.236C30.9013 32.7 32.2613 31.34 34.4213 31.34C36.4213 31.34 37.7813 32.7 37.7813 34.54H35.9413C35.9413 33.644 35.3813 33.1 34.4213 33.1C33.4613 33.1 32.9013 33.66 32.9013 34.22C32.9013 35.964 38.1013 35.036 38.1013 38.7C38.1013 40.14 36.6453 41.58 34.4213 41.58C32.1813 41.58 30.8213 40.22 30.8213 38.3ZM40.3338 38.94V35.82H39.2138V34.3H39.6938C40.2858 34.3 40.5738 34.012 40.5738 33.42V32.38H42.1738V34.14H43.7738V35.82H42.1738V38.86C42.1738 39.5 42.5738 39.9 43.2138 39.9C43.3898 39.9 43.4858 39.884 43.5658 39.868L43.6938 39.82V41.42C43.6138 41.452 43.5338 41.484 43.4378 41.5C43.2618 41.548 43.0538 41.58 42.8138 41.58C41.3578 41.58 40.3338 40.54 40.3338 38.94ZM50.0131 41.5L49.6931 40.78C49.5171 40.924 49.3411 41.068 49.1331 41.18C48.7651 41.388 48.2531 41.58 47.6131 41.58C46.0131 41.58 45.1331 40.716 45.1331 39.5C45.1331 38.044 46.1731 37.02 49.5331 37.02C49.5331 36.204 49.0531 35.74 48.3331 35.74C47.8371 35.74 47.5811 35.948 47.4051 36.14C47.3091 36.252 47.2451 36.396 47.2131 36.54H45.3731C45.5491 35.196 46.6531 34.06 48.4931 34.06C50.1571 34.06 51.3731 35.276 51.3731 36.94V41.5H50.0131ZM49.5331 38.62V38.3C47.3731 38.3 46.9731 38.7 46.9731 39.34C46.9731 39.74 47.3731 40.14 47.9331 40.14C48.8931 40.14 49.5331 39.516 49.5331 38.62ZM53.7706 38.94V35.82H52.6506V34.3H53.1306C53.7226 34.3 54.0106 34.012 54.0106 33.42V32.38H55.6106V34.14H57.2106V35.82H55.6106V38.86C55.6106 39.5 56.0106 39.9 56.6506 39.9C56.8266 39.9 56.9226 39.884 57.0026 39.868L57.1306 39.82V41.42C57.0506 41.452 56.9706 41.484 56.8746 41.5C56.6986 41.548 56.4906 41.58 56.2506 41.58C54.7946 41.58 53.7706 40.54 53.7706 38.94ZM59.0463 38.46V34.14H60.8863V38.22C60.8863 39.18 61.5103 39.82 62.4063 39.82C63.3023 39.82 63.9263 39.18 63.9263 38.22V34.14H65.7663V41.5H64.4063L64.0863 40.78C63.9103 40.924 63.7023 41.068 63.4943 41.18C63.1263 41.388 62.5983 41.58 62.0063 41.58C60.2623 41.58 59.0463 40.38 59.0463 38.46ZM67.4506 39.18H69.2106C69.2906 39.676 69.6906 40.06 70.3306 40.06C70.9706 40.06 71.3706 39.66 71.3706 39.26C71.3706 38.22 67.6106 38.844 67.6106 36.3C67.6106 35.1 68.6506 34.06 70.2506 34.06C72.0266 34.06 72.9546 35.02 73.1306 36.3H71.3706C71.2906 35.98 70.8906 35.58 70.3306 35.58C69.7706 35.58 69.4506 35.9 69.4506 36.3C69.4506 37.324 73.2106 36.716 73.2106 39.34C73.2106 40.54 72.1546 41.58 70.4906 41.58C68.5706 41.58 67.5946 40.636 67.4506 39.18ZM78.9631 41.5V31.42H82.7231C84.6431 31.42 86.1631 32.924 86.1631 34.78C86.1631 36.636 84.6431 38.14 82.7231 38.14H80.8831V41.5H78.9631ZM80.8831 36.3H82.7231C83.5231 36.3 84.2431 35.58 84.2431 34.78C84.2431 33.98 83.5231 33.26 82.7231 33.26H80.8831V36.3ZM92.1694 39.26H94.0894C93.7054 40.364 92.4734 41.58 90.8094 41.58C88.8254 41.58 87.1294 39.9 87.1294 37.82C87.1294 35.74 88.8254 34.06 90.8094 34.06C92.7294 34.06 94.3294 35.58 94.3294 37.82C94.3294 37.996 94.2974 38.156 94.2814 38.3L94.2494 38.54H89.1294C89.3054 39.26 89.8494 39.82 90.8094 39.82C91.3054 39.82 91.6094 39.692 91.8494 39.548C91.9774 39.468 92.0894 39.372 92.1694 39.26ZM89.0494 37.26H92.5694C92.3934 36.444 91.7694 35.82 90.8094 35.82C89.8494 35.82 89.2254 36.444 89.0494 37.26ZM95.6056 39.18H97.3656C97.4456 39.676 97.8456 40.06 98.4856 40.06C99.1256 40.06 99.5256 39.66 99.5256 39.26C99.5256 38.22 95.7656 38.844 95.7656 36.3C95.7656 35.1 96.8056 34.06 98.4056 34.06C100.182 34.06 101.11 35.02 101.286 36.3H99.5256C99.4456 35.98 99.0456 35.58 98.4856 35.58C97.9256 35.58 97.6056 35.9 97.6056 36.3C97.6056 37.324 101.366 36.716 101.366 39.34C101.366 40.54 100.31 41.58 98.6456 41.58C96.7256 41.58 95.7496 40.636 95.6056 39.18ZM107.604 41.5L107.284 40.78C107.108 40.924 106.932 41.068 106.724 41.18C106.356 41.388 105.844 41.58 105.204 41.58C103.604 41.58 102.724 40.716 102.724 39.5C102.724 38.044 103.764 37.02 107.124 37.02C107.124 36.204 106.644 35.74 105.924 35.74C105.428 35.74 105.172 35.948 104.996 36.14C104.9 36.252 104.836 36.396 104.804 36.54H102.964C103.14 35.196 104.244 34.06 106.084 34.06C107.748 34.06 108.964 35.276 108.964 36.94V41.5H107.604ZM107.124 38.62V38.3C104.964 38.3 104.564 38.7 104.564 39.34C104.564 39.74 104.964 40.14 105.524 40.14C106.484 40.14 107.124 39.516 107.124 38.62ZM110.958 41.5V34.14H112.318L112.638 34.86C112.814 34.716 113.022 34.572 113.23 34.46C113.598 34.268 114.094 34.06 114.718 34.06C116.462 34.06 117.678 35.26 117.678 37.18V41.5H115.838V37.42C115.838 36.46 115.214 35.82 114.318 35.82C113.422 35.82 112.798 36.46 112.798 37.42V41.5H110.958ZM124.244 41.5L123.924 40.78C123.748 40.924 123.572 41.068 123.364 41.18C122.996 41.388 122.484 41.58 121.844 41.58C120.244 41.58 119.364 40.716 119.364 39.5C119.364 38.044 120.404 37.02 123.764 37.02C123.764 36.204 123.284 35.74 122.564 35.74C122.068 35.74 121.812 35.948 121.636 36.14C121.54 36.252 121.476 36.396 121.444 36.54H119.604C119.78 35.196 120.884 34.06 122.724 34.06C124.388 34.06 125.604 35.276 125.604 36.94V41.5H124.244ZM123.764 38.62V38.3C121.604 38.3 121.204 38.7 121.204 39.34C121.204 39.74 121.604 40.14 122.164 40.14C123.124 40.14 123.764 39.516 123.764 38.62ZM127.598 41.5V34.14H128.958L129.278 34.86C129.454 34.716 129.662 34.572 129.87 34.46C130.238 34.268 130.734 34.06 131.358 34.06C133.102 34.06 134.318 35.26 134.318 37.18V41.5H132.478V37.42C132.478 36.46 131.854 35.82 130.958 35.82C130.062 35.82 129.438 36.46 129.438 37.42V41.5H127.598ZM140.398 41.5V31.42H142.318V35.42H146.558V31.42H148.478V41.5H146.558V37.26H142.318V41.5H140.398ZM155.274 41.5L154.954 40.78C154.778 40.924 154.602 41.068 154.394 41.18C154.026 41.388 153.514 41.58 152.874 41.58C151.274 41.58 150.394 40.716 150.394 39.5C150.394 38.044 151.434 37.02 154.794 37.02C154.794 36.204 154.314 35.74 153.594 35.74C153.098 35.74 152.842 35.948 152.666 36.14C152.57 36.252 152.506 36.396 152.474 36.54H150.634C150.81 35.196 151.914 34.06 153.754 34.06C155.418 34.06 156.634 35.276 156.634 36.94V41.5H155.274ZM154.794 38.62V38.3C152.634 38.3 152.234 38.7 152.234 39.34C152.234 39.74 152.634 40.14 153.194 40.14C154.154 40.14 154.794 39.516 154.794 38.62ZM158.628 41.5V34.14H159.988L160.308 34.94C160.436 34.78 160.596 34.636 160.772 34.508C161.076 34.268 161.508 34.06 162.068 34.06C162.244 34.06 162.356 34.092 162.468 34.108L162.628 34.14V36.06L162.452 36.028C162.34 36.012 162.18 35.98 161.988 35.98C161.092 35.98 160.468 36.62 160.468 37.58V41.5H158.628ZM164.151 41.5V34.14H165.991V41.5H164.151ZM165.111 33.26C164.551 33.26 164.071 32.78 164.071 32.22C164.071 31.66 164.551 31.18 165.111 31.18C165.671 31.18 166.151 31.66 166.151 32.22C166.151 32.78 165.671 33.26 165.111 33.26ZM172.139 41.5V31.42H174.059V41.5H172.139ZM176.299 41.5V34.14H177.659L177.979 34.86C178.155 34.716 178.363 34.572 178.571 34.46C178.939 34.268 179.435 34.06 180.059 34.06C181.803 34.06 183.019 35.26 183.019 37.18V41.5H181.179V37.42C181.179 36.46 180.555 35.82 179.659 35.82C178.763 35.82 178.139 36.46 178.139 37.42V41.5H176.299ZM185.025 41.5V34.14H186.865V41.5H185.025ZM185.985 33.26C185.425 33.26 184.945 32.78 184.945 32.22C184.945 31.66 185.425 31.18 185.985 31.18C186.545 31.18 187.025 31.66 187.025 32.22C187.025 32.78 186.545 33.26 185.985 33.26Z" fill="#020202"/>
<path d="M296 47.75C290.07 47.75 285.25 42.93 285.25 37C285.25 31.07 290.07 26.25 296 26.25C301.93 26.25 306.75 31.07 306.75 37C306.75 42.93 301.93 47.75 296 47.75ZM296 27.75C290.9 27.75 286.75 31.9 286.75 37C286.75 42.1 290.9 46.25 296 46.25C301.1 46.25 305.25 42.1 305.25 37C305.25 31.9 301.1 27.75 296 27.75Z" fill="#389C9A"/>
<path d="M294.74 41.28C294.55 41.28 294.36 41.21 294.21 41.06C293.92 40.77 293.92 40.29 294.21 40L297.21 37L294.21 34C293.92 33.71 293.92 33.23 294.21 32.94C294.5 32.65 294.98 32.65 295.27 32.94L298.8 36.47C299.09 36.76 299.09 37.24 298.8 37.53L295.27 41.06C295.12 41.21 294.93 41.28 294.74 41.28Z" fill="#389C9A"/>
<path d="M31.28 73V62.92H35.04C36.72 62.92 38.08 64.28 38.08 65.88C38.08 67.048 37.52 67.752 36.96 68.184C36.624 68.44 36.256 68.632 35.856 68.76L38.32 73H36.88L34.48 68.84H32.56V73H31.28ZM32.56 67.72H35.04C35.984 67.72 36.8 66.904 36.8 65.88C36.8 64.856 35.984 64.04 35.04 64.04H32.56V67.72ZM44.795 73L44.475 72.2C44.315 72.376 44.139 72.52 43.931 72.648C43.563 72.888 43.035 73.08 42.315 73.08C40.875 73.08 39.915 72.12 39.915 70.92C39.915 69.56 40.875 68.6 44.475 68.6V68.2C44.475 67.48 43.851 66.84 42.955 66.84C42.059 66.84 41.691 67.24 41.515 67.88H40.235C40.411 66.68 41.355 65.72 42.955 65.72C44.555 65.72 45.675 66.856 45.675 68.2V73H44.795ZM44.475 70.28V69.72C41.595 69.72 41.115 70.2 41.115 71C41.115 71.496 41.595 71.96 42.315 71.96C43.595 71.96 44.475 71.08 44.475 70.28ZM50.9525 71.96C52.1525 71.96 53.1925 70.936 53.1925 69.4C53.1925 67.864 52.1525 66.84 50.9525 66.84C49.7525 66.84 48.7125 67.864 48.7125 69.4C48.7125 70.936 49.7525 71.96 50.9525 71.96ZM53.3525 73L53.0325 72.2C52.8725 72.376 52.6965 72.52 52.4885 72.648C52.1205 72.888 51.5925 73.08 50.8725 73.08C49.0165 73.08 47.5125 71.56 47.5125 69.4C47.5125 67.24 49.0165 65.72 50.8725 65.72C51.5925 65.72 52.1205 65.96 52.4885 66.2C52.6965 66.344 52.8725 66.504 53.0325 66.68V62.92H54.2325V73H53.3525ZM56.7187 73V65.8H57.9187V73H56.7187ZM56.5587 63.768C56.5587 63.32 56.8787 63 57.3107 63C57.7587 63 58.0787 63.32 58.0787 63.768C58.0787 64.2 57.7587 64.52 57.3107 64.52C56.8787 64.52 56.5587 64.2 56.5587 63.768ZM60.32 73V65.8H61.2L61.52 66.6C61.664 66.44 61.84 66.296 62.048 66.168C62.416 65.928 62.912 65.72 63.6 65.72C65.12 65.72 66.4 67 66.4 68.84V73H65.2V68.84C65.2 67.64 64.384 66.84 63.44 66.84C62.304 66.84 61.52 67.624 61.52 68.84V73H60.32ZM68.7981 73V62.92H69.9981V69.24L72.7181 65.8H74.0781L71.3581 69.16L74.4781 73H73.0381L69.9981 69.24V73H68.7981ZM80.1606 73L79.8406 72.2C79.6806 72.376 79.5046 72.52 79.2966 72.648C78.9286 72.888 78.4006 73.08 77.6806 73.08C76.2406 73.08 75.2806 72.12 75.2806 70.92C75.2806 69.56 76.2406 68.6 79.8406 68.6V68.2C79.8406 67.48 79.2166 66.84 78.3206 66.84C77.4246 66.84 77.0566 67.24 76.8806 67.88H75.6006C75.7766 66.68 76.7206 65.72 78.3206 65.72C79.9206 65.72 81.0406 66.856 81.0406 68.2V73H80.1606ZM79.8406 70.28V69.72C76.9606 69.72 76.4806 70.2 76.4806 71C76.4806 71.496 76.9606 71.96 77.6806 71.96C78.9606 71.96 79.8406 71.08 79.8406 70.28Z" fill="#020202"/>
<path d="M30.7008 87.3H31.5008C31.5508 87.9 32.0008 88.35 32.6008 88.35C33.2508 88.35 33.7008 87.9 33.7008 87.3V82.7H34.5008V87.3C34.5008 88.25 33.7008 89.05 32.6008 89.05C31.5008 89.05 30.7008 88.25 30.7008 87.3ZM36.0504 87.1V84.5H36.8004V87.1C36.8004 87.85 37.2904 88.35 37.9004 88.35C38.6104 88.35 39.1004 87.86 39.1004 87.1V84.5H39.8504V89H39.3004L39.1004 88.5C39.0104 88.61 38.9004 88.7 38.7704 88.78C38.5404 88.93 38.2304 89.05 37.8004 89.05C36.8504 89.05 36.0504 88.25 36.0504 87.1ZM41.348 89V84.5H41.898L42.098 85C42.168 84.9 42.258 84.81 42.368 84.73C42.558 84.58 42.808 84.45 43.198 84.45C43.648 84.45 43.958 84.65 44.158 84.85C44.278 84.97 44.378 85.1 44.448 85.25C44.538 85.1 44.638 84.97 44.768 84.85C44.998 84.65 45.318 84.45 45.7981 84.45C46.598 84.45 47.298 85.14 47.298 86.3V89H46.548V86.3C46.548 85.54 46.158 85.15 45.648 85.15C45.138 85.15 44.698 85.59 44.698 86.3V89H43.948V86.3C43.948 85.54 43.558 85.15 43.048 85.15C42.558 85.15 42.098 85.63 42.098 86.3V89H41.348ZM51.5953 89L51.3953 88.5C51.2953 88.61 51.1853 88.7 51.0553 88.78C50.8253 88.93 50.4953 89.05 50.0453 89.05C49.1453 89.05 48.5453 88.45 48.5453 87.7C48.5453 86.85 49.1453 86.25 51.3953 86.25V86C51.3953 85.55 51.0053 85.15 50.4453 85.15C49.8853 85.15 49.6553 85.4 49.5453 85.8H48.7453C48.8553 85.05 49.4453 84.45 50.4453 84.45C51.4453 84.45 52.1453 85.16 52.1453 86V89H51.5953ZM51.3953 87.3V86.95C49.5953 86.95 49.2953 87.25 49.2953 87.75C49.2953 88.06 49.5953 88.35 50.0453 88.35C50.8453 88.35 51.3953 87.8 51.3953 87.3ZM53.8461 87.55V85.2H53.0461V84.5H53.3961C53.7661 84.5 53.9461 84.32 53.9461 83.95V83.3H54.5961V84.5H55.5961V85.2H54.5961V87.55C54.5961 88.06 54.8961 88.35 55.3461 88.35C55.4161 88.35 55.4761 88.34 55.5261 88.33L55.5961 88.3V88.95C55.5661 88.97 55.5261 88.99 55.4861 89C55.3961 89.03 55.2861 89.05 55.1461 89.05C54.4561 89.05 53.8461 88.45 53.8461 87.55ZM56.7992 89.95L56.6992 89.8C56.7692 89.73 56.8292 89.66 56.8792 89.59C56.9692 89.46 57.0692 89.28 57.0992 89.05C56.7892 89.05 56.5992 88.86 56.5992 88.55C56.5992 88.24 56.7892 88.05 57.0992 88.05C57.4092 88.05 57.5992 88.24 57.5992 88.55C57.5992 89.03 57.3992 89.38 57.1992 89.61C57.0792 89.74 56.9492 89.86 56.7992 89.95ZM61.9969 89V83.8L61.0969 84.4L60.7469 83.8L62.2969 82.7H62.7969V89H61.9969ZM66.5926 88.35C67.4326 88.35 68.2426 87.56 68.2426 85.85C68.2426 84.14 67.4326 83.35 66.5926 83.35C65.7526 83.35 64.9426 84.14 64.9426 85.85C64.9426 87.56 65.7526 88.35 66.5926 88.35ZM66.5926 89.05C65.2826 89.05 64.1426 87.9 64.1426 85.85C64.1426 83.8 65.2826 82.65 66.5926 82.65C67.8926 82.65 69.0426 83.8 69.0426 85.85C69.0426 87.9 67.8926 89.05 66.5926 89.05ZM69.5883 90.8L72.1883 82.7H72.8883L70.2883 90.8H69.5883ZM75.8891 88.35C76.7291 88.35 77.5391 87.56 77.5391 85.85C77.5391 84.14 76.7291 83.35 75.8891 83.35C75.0491 83.35 74.2391 84.14 74.2391 85.85C74.2391 87.56 75.0491 88.35 75.8891 88.35ZM75.8891 89.05C74.5791 89.05 73.4391 87.9 73.4391 85.85C73.4391 83.8 74.5791 82.65 75.8891 82.65C77.1891 82.65 78.3391 83.8 78.3391 85.85C78.3391 87.9 77.1891 89.05 75.8891 89.05ZM79.3348 87.4H80.1348C80.2448 87.91 80.6748 88.35 81.3848 88.35C82.1248 88.35 82.6848 87.8 82.6848 86.95C82.6848 86.1 82.1448 85.55 81.3848 85.55C80.9348 85.55 80.6348 85.74 80.4448 85.93C80.3348 86.04 80.2448 86.17 80.1848 86.3H79.4848L79.8848 82.7H83.0848V83.45H80.5848L80.3848 85.25C80.4648 85.18 80.5648 85.11 80.6748 85.05C80.8648 84.94 81.1348 84.85 81.4848 84.85C82.5748 84.85 83.4848 85.75 83.4848 86.95C83.4848 88.15 82.5848 89.05 81.3848 89.05C80.2248 89.05 79.4948 88.31 79.3348 87.4ZM84.0848 90.8L86.6848 82.7H87.3848L84.7848 90.8H84.0848ZM88.0355 89V88.4L90.5355 85.65C90.6455 85.53 90.7455 85.4 90.8355 85.27C90.9855 85.04 91.1355 84.73 91.1355 84.4C91.1355 83.8 90.6955 83.35 89.9855 83.35C89.2755 83.35 88.7855 83.84 88.7855 84.55H87.9855C87.9855 83.5 88.8355 82.65 89.9855 82.65C91.1355 82.65 91.9355 83.45 91.9355 84.4C91.9355 84.85 91.7155 85.28 91.5055 85.59C91.3855 85.77 91.2455 85.94 91.0855 86.1L89.0855 88.3H91.9355V89H88.0355ZM95.3902 88.35C96.2302 88.35 97.0402 87.56 97.0402 85.85C97.0402 84.14 96.2302 83.35 95.3902 83.35C94.5502 83.35 93.7402 84.14 93.7402 85.85C93.7402 87.56 94.5502 88.35 95.3902 88.35ZM95.3902 89.05C94.0802 89.05 92.9402 87.9 92.9402 85.85C92.9402 83.8 94.0802 82.65 95.3902 82.65C96.6902 82.65 97.8402 83.8 97.8402 85.85C97.8402 87.9 96.6902 89.05 95.3902 89.05ZM98.8359 89V88.4L101.336 85.65C101.446 85.53 101.546 85.4 101.636 85.27C101.786 85.04 101.936 84.73 101.936 84.4C101.936 83.8 101.496 83.35 100.786 83.35C100.076 83.35 99.5859 83.84 99.5859 84.55H98.7859C98.7859 83.5 99.6359 82.65 100.786 82.65C101.936 82.65 102.736 83.45 102.736 84.4C102.736 84.85 102.516 85.28 102.306 85.59C102.186 85.77 102.046 85.94 101.886 86.1L99.8859 88.3H102.736V89H98.8359ZM103.395 87.65V87L106.045 82.7H106.995V86.95H107.695V87.65H106.995V89H106.195V87.65H103.395ZM104.295 86.95H106.195V83.85L104.295 86.95Z" fill="#020202"/>
<path d="M259.007 68L257.057 61.7H257.907L259.307 66.25L260.657 61.7H261.157L262.507 66.25L263.907 61.7H264.757L262.807 68H262.257L260.907 63.45L259.557 68H259.007ZM268.255 68L268.055 67.5C267.955 67.61 267.845 67.7 267.715 67.78C267.485 67.93 267.155 68.05 266.705 68.05C265.805 68.05 265.205 67.45 265.205 66.7C265.205 65.85 265.805 65.25 268.055 65.25V65C268.055 64.55 267.665 64.15 267.105 64.15C266.545 64.15 266.315 64.4 266.205 64.8H265.405C265.515 64.05 266.105 63.45 267.105 63.45C268.105 63.45 268.805 64.16 268.805 65V68H268.255ZM268.055 66.3V65.95C266.255 65.95 265.955 66.25 265.955 66.75C265.955 67.06 266.255 67.35 266.705 67.35C267.505 67.35 268.055 66.8 268.055 66.3ZM270.303 68V61.7H271.053V65.65L272.753 63.5H273.603L271.903 65.6L273.853 68H272.953L271.053 65.65V68H270.303ZM275.002 66.55V64.2H274.202V63.5H274.552C274.922 63.5 275.102 63.32 275.102 62.95V62.3H275.752V63.5H276.752V64.2H275.752V66.55C275.752 67.06 276.052 67.35 276.502 67.35C276.572 67.35 276.632 67.34 276.682 67.33L276.752 67.3V67.95C276.722 67.97 276.682 67.99 276.642 68C276.552 68.03 276.442 68.05 276.302 68.05C275.612 68.05 275.002 67.45 275.002 66.55ZM278.055 66.1V63.5H278.805V66.1C278.805 66.85 279.295 67.35 279.905 67.35C280.615 67.35 281.105 66.86 281.105 66.1V63.5H281.855V68H281.305L281.105 67.5C281.015 67.61 280.905 67.7 280.775 67.78C280.545 67.93 280.235 68.05 279.805 68.05C278.855 68.05 278.055 67.25 278.055 66.1ZM285.052 68L287.452 61.7H288.152L290.552 68H289.702L289.102 66.45H286.502L285.902 68H285.052ZM286.752 65.75H288.852L287.802 63L286.752 65.75ZM291.4 68V63.5H291.95L292.15 64C292.22 63.9 292.31 63.81 292.42 63.73C292.61 63.58 292.86 63.45 293.25 63.45C293.7 63.45 294.01 63.65 294.21 63.85C294.33 63.97 294.43 64.1 294.5 64.25C294.59 64.1 294.69 63.97 294.82 63.85C295.05 63.65 295.37 63.45 295.85 63.45C296.65 63.45 297.35 64.14 297.35 65.3V68H296.6V65.3C296.6 64.54 296.21 64.15 295.7 64.15C295.19 64.15 294.75 64.59 294.75 65.3V68H294V65.3C294 64.54 293.61 64.15 293.1 64.15C292.61 64.15 292.15 64.63 292.15 65.3V68H291.4ZM300.897 67.35C301.647 67.35 302.297 66.71 302.297 65.75C302.297 64.79 301.647 64.15 300.897 64.15C300.147 64.15 299.497 64.79 299.497 65.75C299.497 66.71 300.147 67.35 300.897 67.35ZM298.847 68V61.7H299.597V64.05C299.687 63.94 299.807 63.84 299.937 63.75C300.167 63.6 300.497 63.45 300.947 63.45C302.107 63.45 303.047 64.4 303.047 65.75C303.047 67.1 302.107 68.05 300.947 68.05C300.497 68.05 300.167 67.93 299.937 67.78C299.807 67.7 299.687 67.61 299.597 67.5L299.397 68H298.847ZM304.251 68V63.5H305.001V68H304.251ZM304.151 62.23C304.151 61.95 304.351 61.75 304.621 61.75C304.901 61.75 305.101 61.95 305.101 62.23C305.101 62.5 304.901 62.7 304.621 62.7C304.351 62.7 304.151 62.5 304.151 62.23ZM306.552 68V61.7H307.302V68H306.552Z" fill="#020202"/>
<path d="M178.394 85.78H179.354C179.354 86.692 179.894 87.22 180.914 87.22C181.934 87.22 182.474 86.692 182.474 86.02C182.474 84.16 178.454 85.12 178.454 82.42C178.454 81.4 179.474 80.38 180.914 80.38C182.222 80.38 183.254 81.4 183.254 82.66H182.294C182.294 81.808 181.694 81.22 180.914 81.22C180.014 81.22 179.414 81.808 179.414 82.42C179.414 84.28 183.434 83.32 183.434 86.02C183.434 87.1 182.486 88.06 180.914 88.06C179.342 88.06 178.394 87.1 178.394 85.78ZM188.295 88L188.055 87.4C187.935 87.532 187.803 87.64 187.647 87.736C187.371 87.916 186.975 88.06 186.435 88.06C185.355 88.06 184.635 87.34 184.635 86.44C184.635 85.42 185.355 84.7 188.055 84.7V84.4C188.055 83.86 187.587 83.38 186.915 83.38C186.243 83.38 185.967 83.68 185.835 84.16H184.875C185.007 83.26 185.715 82.54 186.915 82.54C188.115 82.54 188.955 83.392 188.955 84.4V88H188.295ZM188.055 85.96V85.54C185.895 85.54 185.535 85.9 185.535 86.5C185.535 86.872 185.895 87.22 186.435 87.22C187.395 87.22 188.055 86.56 188.055 85.96ZM193.213 87.22C194.113 87.22 194.893 86.452 194.893 85.3C194.893 84.148 194.113 83.38 193.213 83.38C192.313 83.38 191.533 84.148 191.533 85.3C191.533 86.452 192.313 87.22 193.213 87.22ZM190.753 88V80.44H191.653V83.26C191.761 83.128 191.905 83.008 192.061 82.9C192.337 82.72 192.733 82.54 193.273 82.54C194.665 82.54 195.793 83.68 195.793 85.3C195.793 86.92 194.665 88.06 193.273 88.06C192.733 88.06 192.337 87.916 192.061 87.736C191.905 87.64 191.761 87.532 191.653 87.4L191.413 88H190.753ZM197.658 86.26V83.44H196.698V82.6H197.118C197.562 82.6 197.778 82.384 197.778 81.94V81.16H198.558V82.6H199.758V83.44H198.558V86.26C198.558 86.872 198.918 87.22 199.458 87.22C199.542 87.22 199.614 87.208 199.674 87.196L199.758 87.16V87.94C199.722 87.964 199.674 87.988 199.626 88C199.518 88.036 199.386 88.06 199.218 88.06C198.39 88.06 197.658 87.34 197.658 86.26ZM201.322 85.72V82.6H202.222V85.72C202.222 86.62 202.81 87.22 203.542 87.22C204.394 87.22 204.982 86.632 204.982 85.72V82.6H205.882V88H205.222L204.982 87.4C204.874 87.532 204.742 87.64 204.586 87.736C204.31 87.916 203.938 88.06 203.422 88.06C202.282 88.06 201.322 87.1 201.322 85.72ZM207.559 89.14L207.439 88.96C207.523 88.876 207.595 88.792 207.655 88.708C207.763 88.552 207.883 88.336 207.919 88.06C207.547 88.06 207.319 87.832 207.319 87.46C207.319 87.088 207.547 86.86 207.919 86.86C208.291 86.86 208.519 87.088 208.519 87.46C208.519 88.036 208.279 88.456 208.039 88.732C207.895 88.888 207.739 89.032 207.559 89.14ZM213.796 88V81.76L212.716 82.48L212.296 81.76L214.156 80.44H214.756V88H213.796ZM217.751 88V81.76L216.671 82.48L216.251 81.76L218.111 80.44H218.711V88H217.751ZM219.906 90.16L223.026 80.44H223.866L220.746 90.16H219.906ZM227.467 87.22C228.475 87.22 229.447 86.272 229.447 84.22C229.447 82.168 228.475 81.22 227.467 81.22C226.459 81.22 225.487 82.168 225.487 84.22C225.487 86.272 226.459 87.22 227.467 87.22ZM227.467 88.06C225.895 88.06 224.527 86.68 224.527 84.22C224.527 81.76 225.895 80.38 227.467 80.38C229.027 80.38 230.407 81.76 230.407 84.22C230.407 86.68 229.027 88.06 227.467 88.06ZM231.602 86.08H232.562C232.694 86.692 233.21 87.22 234.062 87.22C234.95 87.22 235.622 86.56 235.622 85.54C235.622 84.52 234.974 83.86 234.062 83.86C233.522 83.86 233.162 84.088 232.934 84.316C232.802 84.448 232.694 84.604 232.622 84.76H231.782L232.262 80.44H236.102V81.34H233.102L232.862 83.5C232.958 83.416 233.078 83.332 233.21 83.26C233.438 83.128 233.762 83.02 234.182 83.02C235.49 83.02 236.582 84.1 236.582 85.54C236.582 86.98 235.502 88.06 234.062 88.06C232.67 88.06 231.794 87.172 231.602 86.08ZM237.302 90.16L240.422 80.44H241.262L238.142 90.16H237.302ZM242.043 88V87.28L245.043 83.98C245.175 83.836 245.295 83.68 245.403 83.524C245.583 83.248 245.763 82.876 245.763 82.48C245.763 81.76 245.235 81.22 244.383 81.22C243.531 81.22 242.943 81.808 242.943 82.66H241.983C241.983 81.4 243.003 80.38 244.383 80.38C245.763 80.38 246.723 81.34 246.723 82.48C246.723 83.02 246.459 83.536 246.207 83.908C246.063 84.124 245.895 84.328 245.703 84.52L243.303 87.16H246.723V88H242.043ZM250.868 87.22C251.876 87.22 252.848 86.272 252.848 84.22C252.848 82.168 251.876 81.22 250.868 81.22C249.86 81.22 248.888 82.168 248.888 84.22C248.888 86.272 249.86 87.22 250.868 87.22ZM250.868 88.06C249.296 88.06 247.928 86.68 247.928 84.22C247.928 81.76 249.296 80.38 250.868 80.38C252.428 80.38 253.808 81.76 253.808 84.22C253.808 86.68 252.428 88.06 250.868 88.06ZM255.003 88V87.28L258.003 83.98C258.135 83.836 258.255 83.68 258.363 83.524C258.543 83.248 258.723 82.876 258.723 82.48C258.723 81.76 258.195 81.22 257.343 81.22C256.491 81.22 255.903 81.808 255.903 82.66H254.943C254.943 81.4 255.963 80.38 257.343 80.38C258.723 80.38 259.683 81.34 259.683 82.48C259.683 83.02 259.419 83.536 259.167 83.908C259.023 84.124 258.855 84.328 258.663 84.52L256.263 87.16H259.683V88H255.003ZM260.474 86.38V85.6L263.654 80.44H264.794V85.54H265.634V86.38H264.794V88H263.834V86.38H260.474ZM261.554 85.54H263.834V81.82L261.554 85.54Z" fill="#020202"/>
<path d="M283.832 88V81.76L282.752 82.48L282.332 81.76L284.192 80.44H284.792V88H283.832ZM286.347 86.08H287.307C287.439 86.692 287.955 87.22 288.807 87.22C289.767 87.22 290.367 86.62 290.367 85.9C290.367 85.168 289.767 84.58 288.807 84.58H288.387V83.74H288.747C289.599 83.74 290.127 83.2 290.127 82.48C290.127 81.76 289.599 81.22 288.747 81.22C287.967 81.22 287.427 81.76 287.367 82.36H286.407C286.539 81.268 287.427 80.38 288.747 80.38C290.127 80.38 291.087 81.34 291.087 82.48C291.087 83.02 290.823 83.416 290.547 83.668C290.391 83.812 290.211 83.932 290.007 84.04C290.247 84.148 290.463 84.28 290.667 84.448C290.991 84.736 291.327 85.216 291.327 85.9C291.327 87.04 290.307 88.06 288.807 88.06C287.415 88.06 286.539 87.172 286.347 86.08ZM292.471 87.46C292.471 87.088 292.699 86.86 293.071 86.86C293.443 86.86 293.671 87.088 293.671 87.46C293.671 87.832 293.443 88.06 293.071 88.06C292.699 88.06 292.471 87.832 292.471 87.46ZM292.471 83.2C292.471 82.828 292.699 82.6 293.071 82.6C293.443 82.6 293.671 82.828 293.671 83.2C293.671 83.572 293.443 83.8 293.071 83.8C292.699 83.8 292.471 83.572 292.471 83.2ZM297.69 87.22C298.698 87.22 299.67 86.272 299.67 84.22C299.67 82.168 298.698 81.22 297.69 81.22C296.682 81.22 295.71 82.168 295.71 84.22C295.71 86.272 296.682 87.22 297.69 87.22ZM297.69 88.06C296.118 88.06 294.75 86.68 294.75 84.22C294.75 81.76 296.118 80.38 297.69 80.38C299.25 80.38 300.63 81.76 300.63 84.22C300.63 86.68 299.25 88.06 297.69 88.06ZM304.645 87.22C305.653 87.22 306.625 86.272 306.625 84.22C306.625 82.168 305.653 81.22 304.645 81.22C303.637 81.22 302.665 82.168 302.665 84.22C302.665 86.272 303.637 87.22 304.645 87.22ZM304.645 88.06C303.073 88.06 301.705 86.68 301.705 84.22C301.705 81.76 303.073 80.38 304.645 80.38C306.205 80.38 307.585 81.76 307.585 84.22C307.585 86.68 306.205 88.06 304.645 88.06Z" fill="#020202"/>
<line x1="31" y1="111" x2="307" y2="111" stroke="#389C9A" stroke-width="2" stroke-linecap="round"/>
<circle cx="81" cy="112" r="12" fill="white"/>
<path d="M81 103.667C76.4083 103.667 72.6667 107.408 72.6667 112C72.6667 116.592 76.4083 120.333 81 120.333C85.5917 120.333 89.3333 116.592 89.3333 112C89.3333 107.408 85.5917 103.667 81 103.667ZM84.9833 110.083L80.2583 114.808C80.1417 114.925 79.9833 114.992 79.8167 114.992C79.65 114.992 79.4917 114.925 79.375 114.808L77.0167 112.45C76.775 112.208 76.775 111.808 77.0167 111.567C77.2583 111.325 77.6583 111.325 77.9 111.567L79.8167 113.483L84.1 109.2C84.3417 108.958 84.7417 108.958 84.9833 109.2C85.225 109.442 85.225 109.833 84.9833 110.083Z" fill="#389C9A"/>
<circle cx="169" cy="112" r="12" fill="white"/>
<path d="M169 120.958C164.058 120.958 160.042 116.942 160.042 112C160.042 107.058 164.058 103.042 169 103.042C173.942 103.042 177.958 107.058 177.958 112C177.958 116.942 173.942 120.958 169 120.958ZM169 104.292C164.75 104.292 161.292 107.75 161.292 112C161.292 116.25 164.75 119.708 169 119.708C173.25 119.708 176.708 116.25 176.708 112C176.708 107.75 173.25 104.292 169 104.292Z" fill="#389C9A"/>
<path d="M167.817 114.983C167.65 114.983 167.492 114.917 167.375 114.8L165.017 112.442C164.775 112.2 164.775 111.8 165.017 111.558C165.258 111.317 165.658 111.317 165.9 111.558L167.817 113.475L172.1 109.192C172.342 108.95 172.742 108.95 172.983 109.192C173.225 109.433 173.225 109.833 172.983 110.075L168.258 114.8C168.142 114.917 167.983 114.983 167.817 114.983Z" fill="#389C9A"/>
<circle cx="257" cy="112" r="12" fill="white"/>
<path d="M257 120.958C252.058 120.958 248.042 116.942 248.042 112C248.042 107.058 252.058 103.042 257 103.042C261.942 103.042 265.958 107.058 265.958 112C265.958 116.942 261.942 120.958 257 120.958ZM257 104.292C252.75 104.292 249.292 107.75 249.292 112C249.292 116.25 252.75 119.708 257 119.708C261.25 119.708 264.708 116.25 264.708 112C264.708 107.75 261.25 104.292 257 104.292Z" fill="#C0BDB6"/>
<path d="M255.817 114.983C255.65 114.983 255.492 114.917 255.375 114.8L253.017 112.442C252.775 112.2 252.775 111.8 253.017 111.558C253.258 111.317 253.658 111.317 253.9 111.558L255.817 113.475L260.1 109.192C260.342 108.95 260.742 108.95 260.983 109.192C261.225 109.433 261.225 109.833 260.983 110.075L256.258 114.8C256.142 114.917 255.983 114.983 255.817 114.983Z" fill="#C0BDB6"/>
<path d="M63.2494 135V128.7H65.3994C66.4894 128.7 67.3994 129.6 67.3994 130.65C67.3994 131.7 66.4894 132.6 65.3994 132.6H64.0494V135H63.2494ZM64.0494 131.9H65.3994C66.0494 131.9 66.5994 131.35 66.5994 130.65C66.5994 129.95 66.0494 129.4 65.3994 129.4H64.0494V131.9ZM68.651 135V130.5H69.201L69.401 131C69.491 130.9 69.601 130.81 69.731 130.73C69.961 130.58 70.271 130.45 70.701 130.45H70.801V131.2H70.601C69.891 131.2 69.401 131.69 69.401 132.45V135H68.651ZM73.649 134.35C74.339 134.35 74.999 133.71 74.999 132.75C74.999 131.79 74.339 131.15 73.649 131.15C72.949 131.15 72.299 131.79 72.299 132.75C72.299 133.71 72.949 134.35 73.649 134.35ZM73.649 135.05C72.489 135.05 71.549 134.1 71.549 132.75C71.549 131.4 72.489 130.45 73.649 130.45C74.809 130.45 75.749 131.4 75.749 132.75C75.749 134.1 74.809 135.05 73.649 135.05ZM78.8014 134.35C79.5514 134.35 80.2014 133.71 80.2014 132.75C80.2014 131.79 79.5514 131.15 78.8014 131.15C78.0514 131.15 77.4014 131.79 77.4014 132.75C77.4014 133.71 78.0514 134.35 78.8014 134.35ZM80.3014 135L80.1014 134.5C80.0014 134.61 79.8914 134.7 79.7614 134.78C79.5314 134.93 79.2014 135.05 78.7514 135.05C77.5914 135.05 76.6514 134.1 76.6514 132.75C76.6514 131.4 77.5914 130.45 78.7514 130.45C79.2014 130.45 79.5314 130.6 79.7614 130.75C79.8914 130.84 80.0014 130.94 80.1014 131.05V128.7H80.8514V135H80.3014ZM82.4053 133.1V130.5H83.1553V133.1C83.1553 133.85 83.6453 134.35 84.2553 134.35C84.9653 134.35 85.4553 133.86 85.4553 133.1V130.5H86.2053V135H85.6553L85.4553 134.5C85.3653 134.61 85.2553 134.7 85.1253 134.78C84.8953 134.93 84.5853 135.05 84.1553 135.05C83.2053 135.05 82.4053 134.25 82.4053 133.1ZM87.7529 135V128.7H88.5029V132.65L90.2029 130.5H91.0529L89.3529 132.6L91.3029 135H90.4029L88.5029 132.65V135H87.7529ZM91.7045 133.65H92.4545C92.5045 134.05 92.7945 134.35 93.3545 134.35C93.8645 134.35 94.1545 134.05 94.1545 133.7C94.1545 132.69 91.8045 133.46 91.8045 131.75C91.8045 131.06 92.4045 130.45 93.3045 130.45C94.2645 130.45 94.8045 131 94.8545 131.8H94.1045C94.0545 131.4 93.8145 131.15 93.3045 131.15C92.8545 131.15 92.5545 131.44 92.5545 131.75C92.5545 132.76 94.9045 132 94.9045 133.7C94.9045 134.45 94.3045 135.05 93.3545 135.05C92.3545 135.05 91.7545 134.45 91.7045 133.65ZM96.1498 135V130.5H96.8998V135H96.1498ZM96.0498 129.23C96.0498 128.95 96.2498 128.75 96.5198 128.75C96.7998 128.75 96.9998 128.95 96.9998 129.23C96.9998 129.5 96.7998 129.7 96.5198 129.7C96.2498 129.7 96.0498 129.5 96.0498 129.23Z" fill="#389C9A"/>
<path d="M142.778 133.15H143.578C143.578 133.91 144.028 134.35 144.878 134.35C145.728 134.35 146.178 133.91 146.178 133.35C146.178 131.8 142.828 132.6 142.828 130.35C142.828 129.5 143.678 128.65 144.878 128.65C145.968 128.65 146.828 129.5 146.828 130.55H146.028C146.028 129.84 145.528 129.35 144.878 129.35C144.128 129.35 143.628 129.84 143.628 130.35C143.628 131.9 146.978 131.1 146.978 133.35C146.978 134.25 146.188 135.05 144.878 135.05C143.568 135.05 142.778 134.25 142.778 133.15ZM148.179 135V130.5H148.929V135H148.179ZM148.079 129.23C148.079 128.95 148.279 128.75 148.549 128.75C148.829 128.75 149.029 128.95 149.029 129.23C149.029 129.5 148.829 129.7 148.549 129.7C148.279 129.7 148.079 129.5 148.079 129.23ZM153.279 135L153.079 134.5C152.979 134.61 152.869 134.7 152.739 134.78C152.509 134.93 152.179 135.05 151.729 135.05C150.829 135.05 150.229 134.45 150.229 133.7C150.229 132.85 150.829 132.25 153.079 132.25V132C153.079 131.55 152.689 131.15 152.129 131.15C151.569 131.15 151.339 131.4 151.229 131.8H150.429C150.539 131.05 151.129 130.45 152.129 130.45C153.129 130.45 153.829 131.16 153.829 132V135H153.279ZM153.079 133.3V132.95C151.279 132.95 150.979 133.25 150.979 133.75C150.979 134.06 151.279 134.35 151.729 134.35C152.529 134.35 153.079 133.8 153.079 133.3ZM157.328 134.35C158.078 134.35 158.728 133.71 158.728 132.75C158.728 131.79 158.078 131.15 157.328 131.15C156.578 131.15 155.928 131.79 155.928 132.75C155.928 133.71 156.578 134.35 157.328 134.35ZM155.278 136.6V130.5H155.828L156.028 131C156.118 130.9 156.238 130.81 156.368 130.73C156.598 130.58 156.928 130.45 157.378 130.45C158.538 130.45 159.478 131.4 159.478 132.75C159.478 134.1 158.538 135.05 157.378 135.05C156.928 135.05 156.598 134.9 156.368 134.75C156.238 134.66 156.118 134.56 156.028 134.45V136.6H155.278ZM164.872 134.35C165.622 134.35 166.272 133.71 166.272 132.75C166.272 131.79 165.622 131.15 164.872 131.15C164.122 131.15 163.472 131.79 163.472 132.75C163.472 133.71 164.122 134.35 164.872 134.35ZM166.372 135L166.172 134.5C166.072 134.61 165.962 134.7 165.832 134.78C165.602 134.93 165.272 135.05 164.822 135.05C163.662 135.05 162.722 134.1 162.722 132.75C162.722 131.4 163.662 130.45 164.822 130.45C165.272 130.45 165.602 130.6 165.832 130.75C165.962 130.84 166.072 130.94 166.172 131.05V128.7H166.922V135H166.372ZM168.476 135V130.5H169.226V135H168.476ZM168.376 129.23C168.376 128.95 168.576 128.75 168.846 128.75C169.126 128.75 169.326 128.95 169.326 129.23C169.326 129.5 169.126 129.7 168.846 129.7C168.576 129.7 168.376 129.5 168.376 129.23ZM170.776 135V128.7H171.526V132.65L173.226 130.5H174.076L172.376 132.6L174.326 135H173.426L171.526 132.65V135H170.776ZM177.978 133.8H178.778C178.478 134.45 177.878 135.05 176.878 135.05C175.678 135.05 174.728 134.1 174.728 132.75C174.728 131.4 175.738 130.45 176.828 130.45C177.928 130.45 178.878 131.34 178.878 132.7C178.878 132.83 178.858 132.92 178.848 132.99L178.828 133.1H175.528C175.578 133.75 176.168 134.35 176.878 134.35C177.468 134.35 177.828 134.01 177.978 133.8ZM175.528 132.45H178.128C178.018 131.7 177.478 131.15 176.828 131.15C176.178 131.15 175.638 131.7 175.528 132.45ZM180.081 135V130.5H180.631L180.831 131C180.901 130.9 180.991 130.81 181.101 130.73C181.291 130.58 181.541 130.45 181.931 130.45C182.381 130.45 182.691 130.65 182.891 130.85C183.011 130.97 183.111 131.1 183.181 131.25C183.271 131.1 183.371 130.97 183.501 130.85C183.731 130.65 184.051 130.45 184.531 130.45C185.331 130.45 186.031 131.14 186.031 132.3V135H185.281V132.3C185.281 131.54 184.891 131.15 184.381 131.15C183.871 131.15 183.431 131.59 183.431 132.3V135H182.681V132.3C182.681 131.54 182.291 131.15 181.781 131.15C181.291 131.15 180.831 131.63 180.831 132.3V135H180.081ZM190.329 135L190.129 134.5C190.029 134.61 189.919 134.7 189.789 134.78C189.559 134.93 189.229 135.05 188.779 135.05C187.879 135.05 187.279 134.45 187.279 133.7C187.279 132.85 187.879 132.25 190.129 132.25V132C190.129 131.55 189.739 131.15 189.179 131.15C188.619 131.15 188.389 131.4 188.279 131.8H187.479C187.589 131.05 188.179 130.45 189.179 130.45C190.179 130.45 190.879 131.16 190.879 132V135H190.329ZM190.129 133.3V132.95C188.329 132.95 188.029 133.25 188.029 133.75C188.029 134.06 188.329 134.35 188.779 134.35C189.579 134.35 190.129 133.8 190.129 133.3ZM192.027 133.65H192.777C192.827 134.05 193.117 134.35 193.677 134.35C194.187 134.35 194.477 134.05 194.477 133.7C194.477 132.69 192.127 133.46 192.127 131.75C192.127 131.06 192.727 130.45 193.627 130.45C194.587 130.45 195.127 131 195.177 131.8H194.427C194.377 131.4 194.137 131.15 193.627 131.15C193.177 131.15 192.877 131.44 192.877 131.75C192.877 132.76 195.227 132 195.227 133.7C195.227 134.45 194.627 135.05 193.677 135.05C192.677 135.05 192.077 134.45 192.027 133.65Z" fill="#389C9A"/>
<path d="M233.501 133.15H234.301C234.301 133.91 234.751 134.35 235.601 134.35C236.451 134.35 236.901 133.91 236.901 133.35C236.901 131.8 233.551 132.6 233.551 130.35C233.551 129.5 234.401 128.65 235.601 128.65C236.691 128.65 237.551 129.5 237.551 130.55H236.751C236.751 129.84 236.251 129.35 235.601 129.35C234.851 129.35 234.351 129.84 234.351 130.35C234.351 131.9 237.701 131.1 237.701 133.35C237.701 134.25 236.911 135.05 235.601 135.05C234.291 135.05 233.501 134.25 233.501 133.15ZM238.902 135V130.5H239.652V135H238.902ZM238.802 129.23C238.802 128.95 239.002 128.75 239.272 128.75C239.552 128.75 239.752 128.95 239.752 129.23C239.752 129.5 239.552 129.7 239.272 129.7C239.002 129.7 238.802 129.5 238.802 129.23ZM244.003 135L243.803 134.5C243.703 134.61 243.593 134.7 243.463 134.78C243.233 134.93 242.903 135.05 242.453 135.05C241.553 135.05 240.953 134.45 240.953 133.7C240.953 132.85 241.553 132.25 243.803 132.25V132C243.803 131.55 243.413 131.15 242.853 131.15C242.293 131.15 242.063 131.4 241.953 131.8H241.153C241.263 131.05 241.853 130.45 242.853 130.45C243.853 130.45 244.553 131.16 244.553 132V135H244.003ZM243.803 133.3V132.95C242.003 132.95 241.703 133.25 241.703 133.75C241.703 134.06 242.003 134.35 242.453 134.35C243.253 134.35 243.803 133.8 243.803 133.3ZM248.052 134.35C248.802 134.35 249.452 133.71 249.452 132.75C249.452 131.79 248.802 131.15 248.052 131.15C247.302 131.15 246.652 131.79 246.652 132.75C246.652 133.71 247.302 134.35 248.052 134.35ZM246.002 136.6V130.5H246.552L246.752 131C246.842 130.9 246.962 130.81 247.092 130.73C247.322 130.58 247.652 130.45 248.102 130.45C249.262 130.45 250.202 131.4 250.202 132.75C250.202 134.1 249.262 135.05 248.102 135.05C247.652 135.05 247.322 134.9 247.092 134.75C246.962 134.66 246.842 134.56 246.752 134.45V136.6H246.002ZM255.595 134.35C256.345 134.35 256.995 133.71 256.995 132.75C256.995 131.79 256.345 131.15 255.595 131.15C254.845 131.15 254.195 131.79 254.195 132.75C254.195 133.71 254.845 134.35 255.595 134.35ZM257.095 135L256.895 134.5C256.795 134.61 256.685 134.7 256.555 134.78C256.325 134.93 255.995 135.05 255.545 135.05C254.385 135.05 253.445 134.1 253.445 132.75C253.445 131.4 254.385 130.45 255.545 130.45C255.995 130.45 256.325 130.6 256.555 130.75C256.685 130.84 256.795 130.94 256.895 131.05V128.7H257.645V135H257.095ZM259.199 135V130.5H259.949V135H259.199ZM259.099 129.23C259.099 128.95 259.299 128.75 259.569 128.75C259.849 128.75 260.049 128.95 260.049 129.23C260.049 129.5 259.849 129.7 259.569 129.7C259.299 129.7 259.099 129.5 259.099 129.23ZM264.3 135L264.1 134.5C264 134.61 263.89 134.7 263.76 134.78C263.53 134.93 263.2 135.05 262.75 135.05C261.85 135.05 261.25 134.45 261.25 133.7C261.25 132.85 261.85 132.25 264.1 132.25V132C264.1 131.55 263.71 131.15 263.15 131.15C262.59 131.15 262.36 131.4 262.25 131.8H261.45C261.56 131.05 262.15 130.45 263.15 130.45C264.15 130.45 264.85 131.16 264.85 132V135H264.3ZM264.1 133.3V132.95C262.3 132.95 262 133.25 262 133.75C262 134.06 262.3 134.35 262.75 134.35C263.55 134.35 264.1 133.8 264.1 133.3ZM266.298 135V130.5H266.848L267.048 131C267.118 130.9 267.208 130.81 267.318 130.73C267.508 130.58 267.758 130.45 268.148 130.45C268.598 130.45 268.908 130.65 269.108 130.85C269.228 130.97 269.328 131.1 269.398 131.25C269.488 131.1 269.588 130.97 269.718 130.85C269.948 130.65 270.268 130.45 270.748 130.45C271.548 130.45 272.248 131.14 272.248 132.3V135H271.498V132.3C271.498 131.54 271.108 131.15 270.598 131.15C270.088 131.15 269.648 131.59 269.648 132.3V135H268.898V132.3C268.898 131.54 268.508 131.15 267.998 131.15C267.508 131.15 267.048 131.63 267.048 132.3V135H266.298ZM275.796 134.35C276.546 134.35 277.196 133.71 277.196 132.75C277.196 131.79 276.546 131.15 275.796 131.15C275.046 131.15 274.396 131.79 274.396 132.75C274.396 133.71 275.046 134.35 275.796 134.35ZM273.746 135V128.7H274.496V131.05C274.586 130.94 274.706 130.84 274.836 130.75C275.066 130.6 275.396 130.45 275.846 130.45C277.006 130.45 277.946 131.4 277.946 132.75C277.946 134.1 277.006 135.05 275.846 135.05C275.396 135.05 275.066 134.93 274.836 134.78C274.706 134.7 274.586 134.61 274.496 134.5L274.296 135H273.746ZM279.15 135V130.5H279.9V135H279.15ZM279.05 129.23C279.05 128.95 279.25 128.75 279.52 128.75C279.8 128.75 280 128.95 280 129.23C280 129.5 279.8 129.7 279.52 129.7C279.25 129.7 279.05 129.5 279.05 129.23ZM281.45 135V128.7H282.2V135H281.45Z" fill="#C0BDB6"/>
<path d="M31.28 168V157.92H32.56V162.32H37.44V157.92H38.72V168H37.44V163.44H32.56V168H31.28ZM41.36 168V160.8H42.56V168H41.36ZM41.2 158.768C41.2 158.32 41.52 158 41.952 158C42.4 158 42.72 158.32 42.72 158.768C42.72 159.2 42.4 159.52 41.952 159.52C41.52 159.52 41.2 159.2 41.2 158.768ZM45.0413 168V157.92H46.2413V168H45.0413ZM48.7187 168V160.8H49.5987L49.9187 161.6C50.0307 161.44 50.1747 161.296 50.3507 161.168C50.6547 160.928 51.0547 160.72 51.6787 160.72C52.3987 160.72 52.8947 161.04 53.2147 161.36C53.4067 161.552 53.5667 161.76 53.6787 162C53.8227 161.76 53.9827 161.552 54.1907 161.36C54.5587 161.04 55.0707 160.72 55.8387 160.72C57.1187 160.72 58.2387 161.824 58.2387 163.68V168H57.0387V163.68C57.0387 162.464 56.4147 161.84 55.5987 161.84C54.7827 161.84 54.0787 162.544 54.0787 163.68V168H52.8787V163.68C52.8787 162.464 52.2547 161.84 51.4387 161.84C50.6547 161.84 49.9187 162.608 49.9187 163.68V168H48.7187ZM60.8744 170.56V169.6C61.5944 169.6 61.8984 169.28 62.1544 168.64L62.4744 167.84L59.6744 160.8H60.9544L63.1144 166.32L65.2744 160.8H66.5544L63.4344 168.64C62.8584 170.096 62.2984 170.64 61.3544 170.64C61.2264 170.64 61.1304 170.624 61.0184 170.608L60.8744 170.56Z" fill="#020202"/>
<path d="M30.7008 182.3H31.5008C31.5508 182.9 32.0008 183.35 32.6008 183.35C33.2508 183.35 33.7008 182.9 33.7008 182.3V177.7H34.5008V182.3C34.5008 183.25 33.7008 184.05 32.6008 184.05C31.5008 184.05 30.7008 183.25 30.7008 182.3ZM36.0504 182.1V179.5H36.8004V182.1C36.8004 182.85 37.2904 183.35 37.9004 183.35C38.6104 183.35 39.1004 182.86 39.1004 182.1V179.5H39.8504V184H39.3004L39.1004 183.5C39.0104 183.61 38.9004 183.7 38.7704 183.78C38.5404 183.93 38.2304 184.05 37.8004 184.05C36.8504 184.05 36.0504 183.25 36.0504 182.1ZM41.348 184V179.5H41.898L42.098 180C42.168 179.9 42.258 179.81 42.368 179.73C42.558 179.58 42.808 179.45 43.198 179.45C43.648 179.45 43.958 179.65 44.158 179.85C44.278 179.97 44.378 180.1 44.448 180.25C44.538 180.1 44.638 179.97 44.768 179.85C44.998 179.65 45.318 179.45 45.7981 179.45C46.598 179.45 47.298 180.14 47.298 181.3V184H46.548V181.3C46.548 180.54 46.158 180.15 45.648 180.15C45.138 180.15 44.698 180.59 44.698 181.3V184H43.948V181.3C43.948 180.54 43.558 180.15 43.048 180.15C42.558 180.15 42.098 180.63 42.098 181.3V184H41.348ZM51.5953 184L51.3953 183.5C51.2953 183.61 51.1853 183.7 51.0553 183.78C50.8253 183.93 50.4953 184.05 50.0453 184.05C49.1453 184.05 48.5453 183.45 48.5453 182.7C48.5453 181.85 49.1453 181.25 51.3953 181.25V181C51.3953 180.55 51.0053 180.15 50.4453 180.15C49.8853 180.15 49.6553 180.4 49.5453 180.8H48.7453C48.8553 180.05 49.4453 179.45 50.4453 179.45C51.4453 179.45 52.1453 180.16 52.1453 181V184H51.5953ZM51.3953 182.3V181.95C49.5953 181.95 49.2953 182.25 49.2953 182.75C49.2953 183.06 49.5953 183.35 50.0453 183.35C50.8453 183.35 51.3953 182.8 51.3953 182.3ZM53.8461 182.55V180.2H53.0461V179.5H53.3961C53.7661 179.5 53.9461 179.32 53.9461 178.95V178.3H54.5961V179.5H55.5961V180.2H54.5961V182.55C54.5961 183.06 54.8961 183.35 55.3461 183.35C55.4161 183.35 55.4761 183.34 55.5261 183.33L55.5961 183.3V183.95C55.5661 183.97 55.5261 183.99 55.4861 184C55.3961 184.03 55.2861 184.05 55.1461 184.05C54.4561 184.05 53.8461 183.45 53.8461 182.55ZM56.7992 184.95L56.6992 184.8C56.7692 184.73 56.8292 184.66 56.8792 184.59C56.9692 184.46 57.0692 184.28 57.0992 184.05C56.7892 184.05 56.5992 183.86 56.5992 183.55C56.5992 183.24 56.7892 183.05 57.0992 183.05C57.4092 183.05 57.5992 183.24 57.5992 183.55C57.5992 184.03 57.3992 184.38 57.1992 184.61C57.0792 184.74 56.9492 184.86 56.7992 184.95ZM61.9969 184V178.8L61.0969 179.4L60.7469 178.8L62.2969 177.7H62.7969V184H61.9969ZM66.5926 183.35C67.4326 183.35 68.2426 182.56 68.2426 180.85C68.2426 179.14 67.4326 178.35 66.5926 178.35C65.7526 178.35 64.9426 179.14 64.9426 180.85C64.9426 182.56 65.7526 183.35 66.5926 183.35ZM66.5926 184.05C65.2826 184.05 64.1426 182.9 64.1426 180.85C64.1426 178.8 65.2826 177.65 66.5926 177.65C67.8926 177.65 69.0426 178.8 69.0426 180.85C69.0426 182.9 67.8926 184.05 66.5926 184.05ZM69.5883 185.8L72.1883 177.7H72.8883L70.2883 185.8H69.5883ZM75.8891 183.35C76.7291 183.35 77.5391 182.56 77.5391 180.85C77.5391 179.14 76.7291 178.35 75.8891 178.35C75.0491 178.35 74.2391 179.14 74.2391 180.85C74.2391 182.56 75.0491 183.35 75.8891 183.35ZM75.8891 184.05C74.5791 184.05 73.4391 182.9 73.4391 180.85C73.4391 178.8 74.5791 177.65 75.8891 177.65C77.1891 177.65 78.3391 178.8 78.3391 180.85C78.3391 182.9 77.1891 184.05 75.8891 184.05ZM79.3348 182.4H80.1348C80.2448 182.91 80.6748 183.35 81.3848 183.35C82.1248 183.35 82.6848 182.8 82.6848 181.95C82.6848 181.1 82.1448 180.55 81.3848 180.55C80.9348 180.55 80.6348 180.74 80.4448 180.93C80.3348 181.04 80.2448 181.17 80.1848 181.3H79.4848L79.8848 177.7H83.0848V178.45H80.5848L80.3848 180.25C80.4648 180.18 80.5648 180.11 80.6748 180.05C80.8648 179.94 81.1348 179.85 81.4848 179.85C82.5748 179.85 83.4848 180.75 83.4848 181.95C83.4848 183.15 82.5848 184.05 81.3848 184.05C80.2248 184.05 79.4948 183.31 79.3348 182.4ZM84.0848 185.8L86.6848 177.7H87.3848L84.7848 185.8H84.0848ZM88.0355 184V183.4L90.5355 180.65C90.6455 180.53 90.7455 180.4 90.8355 180.27C90.9855 180.04 91.1355 179.73 91.1355 179.4C91.1355 178.8 90.6955 178.35 89.9855 178.35C89.2755 178.35 88.7855 178.84 88.7855 179.55H87.9855C87.9855 178.5 88.8355 177.65 89.9855 177.65C91.1355 177.65 91.9355 178.45 91.9355 179.4C91.9355 179.85 91.7155 180.28 91.5055 180.59C91.3855 180.77 91.2455 180.94 91.0855 181.1L89.0855 183.3H91.9355V184H88.0355ZM95.3902 183.35C96.2302 183.35 97.0402 182.56 97.0402 180.85C97.0402 179.14 96.2302 178.35 95.3902 178.35C94.5502 178.35 93.7402 179.14 93.7402 180.85C93.7402 182.56 94.5502 183.35 95.3902 183.35ZM95.3902 184.05C94.0802 184.05 92.9402 182.9 92.9402 180.85C92.9402 178.8 94.0802 177.65 95.3902 177.65C96.6902 177.65 97.8402 178.8 97.8402 180.85C97.8402 182.9 96.6902 184.05 95.3902 184.05ZM98.8359 184V183.4L101.336 180.65C101.446 180.53 101.546 180.4 101.636 180.27C101.786 180.04 101.936 179.73 101.936 179.4C101.936 178.8 101.496 178.35 100.786 178.35C100.076 178.35 99.5859 178.84 99.5859 179.55H98.7859C98.7859 178.5 99.6359 177.65 100.786 177.65C101.936 177.65 102.736 178.45 102.736 179.4C102.736 179.85 102.516 180.28 102.306 180.59C102.186 180.77 102.046 180.94 101.886 181.1L99.8859 183.3H102.736V184H98.8359ZM103.395 182.65V182L106.045 177.7H106.995V181.95H107.695V182.65H106.995V184H106.195V182.65H103.395ZM104.295 181.95H106.195V178.85L104.295 181.95Z" fill="#020202"/>
<path d="M259.007 163L257.057 156.7H257.907L259.307 161.25L260.657 156.7H261.157L262.507 161.25L263.907 156.7H264.757L262.807 163H262.257L260.907 158.45L259.557 163H259.007ZM268.255 163L268.055 162.5C267.955 162.61 267.845 162.7 267.715 162.78C267.485 162.93 267.155 163.05 266.705 163.05C265.805 163.05 265.205 162.45 265.205 161.7C265.205 160.85 265.805 160.25 268.055 160.25V160C268.055 159.55 267.665 159.15 267.105 159.15C266.545 159.15 266.315 159.4 266.205 159.8H265.405C265.515 159.05 266.105 158.45 267.105 158.45C268.105 158.45 268.805 159.16 268.805 160V163H268.255ZM268.055 161.3V160.95C266.255 160.95 265.955 161.25 265.955 161.75C265.955 162.06 266.255 162.35 266.705 162.35C267.505 162.35 268.055 161.8 268.055 161.3ZM270.303 163V156.7H271.053V160.65L272.753 158.5H273.603L271.903 160.6L273.853 163H272.953L271.053 160.65V163H270.303ZM275.002 161.55V159.2H274.202V158.5H274.552C274.922 158.5 275.102 158.32 275.102 157.95V157.3H275.752V158.5H276.752V159.2H275.752V161.55C275.752 162.06 276.052 162.35 276.502 162.35C276.572 162.35 276.632 162.34 276.682 162.33L276.752 162.3V162.95C276.722 162.97 276.682 162.99 276.642 163C276.552 163.03 276.442 163.05 276.302 163.05C275.612 163.05 275.002 162.45 275.002 161.55ZM278.055 161.1V158.5H278.805V161.1C278.805 161.85 279.295 162.35 279.905 162.35C280.615 162.35 281.105 161.86 281.105 161.1V158.5H281.855V163H281.305L281.105 162.5C281.015 162.61 280.905 162.7 280.775 162.78C280.545 162.93 280.235 163.05 279.805 163.05C278.855 163.05 278.055 162.25 278.055 161.1ZM285.052 163L287.452 156.7H288.152L290.552 163H289.702L289.102 161.45H286.502L285.902 163H285.052ZM286.752 160.75H288.852L287.802 158L286.752 160.75ZM291.4 163V158.5H291.95L292.15 159C292.22 158.9 292.31 158.81 292.42 158.73C292.61 158.58 292.86 158.45 293.25 158.45C293.7 158.45 294.01 158.65 294.21 158.85C294.33 158.97 294.43 159.1 294.5 159.25C294.59 159.1 294.69 158.97 294.82 158.85C295.05 158.65 295.37 158.45 295.85 158.45C296.65 158.45 297.35 159.14 297.35 160.3V163H296.6V160.3C296.6 159.54 296.21 159.15 295.7 159.15C295.19 159.15 294.75 159.59 294.75 160.3V163H294V160.3C294 159.54 293.61 159.15 293.1 159.15C292.61 159.15 292.15 159.63 292.15 160.3V163H291.4ZM300.897 162.35C301.647 162.35 302.297 161.71 302.297 160.75C302.297 159.79 301.647 159.15 300.897 159.15C300.147 159.15 299.497 159.79 299.497 160.75C299.497 161.71 300.147 162.35 300.897 162.35ZM298.847 163V156.7H299.597V159.05C299.687 158.94 299.807 158.84 299.937 158.75C300.167 158.6 300.497 158.45 300.947 158.45C302.107 158.45 303.047 159.4 303.047 160.75C303.047 162.1 302.107 163.05 300.947 163.05C300.497 163.05 300.167 162.93 299.937 162.78C299.807 162.7 299.687 162.61 299.597 162.5L299.397 163H298.847ZM304.251 163V158.5H305.001V163H304.251ZM304.151 157.23C304.151 156.95 304.351 156.75 304.621 156.75C304.901 156.75 305.101 156.95 305.101 157.23C305.101 157.5 304.901 157.7 304.621 157.7C304.351 157.7 304.151 157.5 304.151 157.23ZM306.552 163V156.7H307.302V163H306.552Z" fill="#020202"/>
<path d="M178.394 180.78H179.354C179.354 181.692 179.894 182.22 180.914 182.22C181.934 182.22 182.474 181.692 182.474 181.02C182.474 179.16 178.454 180.12 178.454 177.42C178.454 176.4 179.474 175.38 180.914 175.38C182.222 175.38 183.254 176.4 183.254 177.66H182.294C182.294 176.808 181.694 176.22 180.914 176.22C180.014 176.22 179.414 176.808 179.414 177.42C179.414 179.28 183.434 178.32 183.434 181.02C183.434 182.1 182.486 183.06 180.914 183.06C179.342 183.06 178.394 182.1 178.394 180.78ZM188.295 183L188.055 182.4C187.935 182.532 187.803 182.64 187.647 182.736C187.371 182.916 186.975 183.06 186.435 183.06C185.355 183.06 184.635 182.34 184.635 181.44C184.635 180.42 185.355 179.7 188.055 179.7V179.4C188.055 178.86 187.587 178.38 186.915 178.38C186.243 178.38 185.967 178.68 185.835 179.16H184.875C185.007 178.26 185.715 177.54 186.915 177.54C188.115 177.54 188.955 178.392 188.955 179.4V183H188.295ZM188.055 180.96V180.54C185.895 180.54 185.535 180.9 185.535 181.5C185.535 181.872 185.895 182.22 186.435 182.22C187.395 182.22 188.055 181.56 188.055 180.96ZM193.213 182.22C194.113 182.22 194.893 181.452 194.893 180.3C194.893 179.148 194.113 178.38 193.213 178.38C192.313 178.38 191.533 179.148 191.533 180.3C191.533 181.452 192.313 182.22 193.213 182.22ZM190.753 183V175.44H191.653V178.26C191.761 178.128 191.905 178.008 192.061 177.9C192.337 177.72 192.733 177.54 193.273 177.54C194.665 177.54 195.793 178.68 195.793 180.3C195.793 181.92 194.665 183.06 193.273 183.06C192.733 183.06 192.337 182.916 192.061 182.736C191.905 182.64 191.761 182.532 191.653 182.4L191.413 183H190.753ZM197.658 181.26V178.44H196.698V177.6H197.118C197.562 177.6 197.778 177.384 197.778 176.94V176.16H198.558V177.6H199.758V178.44H198.558V181.26C198.558 181.872 198.918 182.22 199.458 182.22C199.542 182.22 199.614 182.208 199.674 182.196L199.758 182.16V182.94C199.722 182.964 199.674 182.988 199.626 183C199.518 183.036 199.386 183.06 199.218 183.06C198.39 183.06 197.658 182.34 197.658 181.26ZM201.322 180.72V177.6H202.222V180.72C202.222 181.62 202.81 182.22 203.542 182.22C204.394 182.22 204.982 181.632 204.982 180.72V177.6H205.882V183H205.222L204.982 182.4C204.874 182.532 204.742 182.64 204.586 182.736C204.31 182.916 203.938 183.06 203.422 183.06C202.282 183.06 201.322 182.1 201.322 180.72ZM207.559 184.14L207.439 183.96C207.523 183.876 207.595 183.792 207.655 183.708C207.763 183.552 207.883 183.336 207.919 183.06C207.547 183.06 207.319 182.832 207.319 182.46C207.319 182.088 207.547 181.86 207.919 181.86C208.291 181.86 208.519 182.088 208.519 182.46C208.519 183.036 208.279 183.456 208.039 183.732C207.895 183.888 207.739 184.032 207.559 184.14ZM213.796 183V176.76L212.716 177.48L212.296 176.76L214.156 175.44H214.756V183H213.796ZM217.751 183V176.76L216.671 177.48L216.251 176.76L218.111 175.44H218.711V183H217.751ZM219.906 185.16L223.026 175.44H223.866L220.746 185.16H219.906ZM227.467 182.22C228.475 182.22 229.447 181.272 229.447 179.22C229.447 177.168 228.475 176.22 227.467 176.22C226.459 176.22 225.487 177.168 225.487 179.22C225.487 181.272 226.459 182.22 227.467 182.22ZM227.467 183.06C225.895 183.06 224.527 181.68 224.527 179.22C224.527 176.76 225.895 175.38 227.467 175.38C229.027 175.38 230.407 176.76 230.407 179.22C230.407 181.68 229.027 183.06 227.467 183.06ZM231.602 181.08H232.562C232.694 181.692 233.21 182.22 234.062 182.22C234.95 182.22 235.622 181.56 235.622 180.54C235.622 179.52 234.974 178.86 234.062 178.86C233.522 178.86 233.162 179.088 232.934 179.316C232.802 179.448 232.694 179.604 232.622 179.76H231.782L232.262 175.44H236.102V176.34H233.102L232.862 178.5C232.958 178.416 233.078 178.332 233.21 178.26C233.438 178.128 233.762 178.02 234.182 178.02C235.49 178.02 236.582 179.1 236.582 180.54C236.582 181.98 235.502 183.06 234.062 183.06C232.67 183.06 231.794 182.172 231.602 181.08ZM237.302 185.16L240.422 175.44H241.262L238.142 185.16H237.302ZM242.043 183V182.28L245.043 178.98C245.175 178.836 245.295 178.68 245.403 178.524C245.583 178.248 245.763 177.876 245.763 177.48C245.763 176.76 245.235 176.22 244.383 176.22C243.531 176.22 242.943 176.808 242.943 177.66H241.983C241.983 176.4 243.003 175.38 244.383 175.38C245.763 175.38 246.723 176.34 246.723 177.48C246.723 178.02 246.459 178.536 246.207 178.908C246.063 179.124 245.895 179.328 245.703 179.52L243.303 182.16H246.723V183H242.043ZM250.868 182.22C251.876 182.22 252.848 181.272 252.848 179.22C252.848 177.168 251.876 176.22 250.868 176.22C249.86 176.22 248.888 177.168 248.888 179.22C248.888 181.272 249.86 182.22 250.868 182.22ZM250.868 183.06C249.296 183.06 247.928 181.68 247.928 179.22C247.928 176.76 249.296 175.38 250.868 175.38C252.428 175.38 253.808 176.76 253.808 179.22C253.808 181.68 252.428 183.06 250.868 183.06ZM255.003 183V182.28L258.003 178.98C258.135 178.836 258.255 178.68 258.363 178.524C258.543 178.248 258.723 177.876 258.723 177.48C258.723 176.76 258.195 176.22 257.343 176.22C256.491 176.22 255.903 176.808 255.903 177.66H254.943C254.943 176.4 255.963 175.38 257.343 175.38C258.723 175.38 259.683 176.34 259.683 177.48C259.683 178.02 259.419 178.536 259.167 178.908C259.023 179.124 258.855 179.328 258.663 179.52L256.263 182.16H259.683V183H255.003ZM260.474 181.38V180.6L263.654 175.44H264.794V180.54H265.634V181.38H264.794V183H263.834V181.38H260.474ZM261.554 180.54H263.834V176.82L261.554 180.54Z" fill="#020202"/>
<path d="M283.656 183V176.76L282.576 177.48L282.156 176.76L284.016 175.44H284.616V183H283.656ZM286.351 181.08H287.311C287.443 181.692 287.959 182.22 288.811 182.22C289.699 182.22 290.371 181.56 290.371 180.54C290.371 179.52 289.723 178.86 288.811 178.86C288.271 178.86 287.911 179.088 287.683 179.316C287.551 179.448 287.443 179.604 287.371 179.76H286.531L287.011 175.44H290.851V176.34H287.851L287.611 178.5C287.707 178.416 287.827 178.332 287.959 178.26C288.187 178.128 288.511 178.02 288.931 178.02C290.239 178.02 291.331 179.1 291.331 180.54C291.331 181.98 290.251 183.06 288.811 183.06C287.419 183.06 286.543 182.172 286.351 181.08ZM292.471 182.46C292.471 182.088 292.699 181.86 293.071 181.86C293.443 181.86 293.671 182.088 293.671 182.46C293.671 182.832 293.443 183.06 293.071 183.06C292.699 183.06 292.471 182.832 292.471 182.46ZM292.471 178.2C292.471 177.828 292.699 177.6 293.071 177.6C293.443 177.6 293.671 177.828 293.671 178.2C293.671 178.572 293.443 178.8 293.071 178.8C292.699 178.8 292.471 178.572 292.471 178.2ZM297.69 182.22C298.698 182.22 299.67 181.272 299.67 179.22C299.67 177.168 298.698 176.22 297.69 176.22C296.682 176.22 295.71 177.168 295.71 179.22C295.71 181.272 296.682 182.22 297.69 182.22ZM297.69 183.06C296.118 183.06 294.75 181.68 294.75 179.22C294.75 176.76 296.118 175.38 297.69 175.38C299.25 175.38 300.63 176.76 300.63 179.22C300.63 181.68 299.25 183.06 297.69 183.06ZM304.645 182.22C305.653 182.22 306.625 181.272 306.625 179.22C306.625 177.168 305.653 176.22 304.645 176.22C303.637 176.22 302.665 177.168 302.665 179.22C302.665 181.272 303.637 182.22 304.645 182.22ZM304.645 183.06C303.073 183.06 301.705 181.68 301.705 179.22C301.705 176.76 303.073 175.38 304.645 175.38C306.205 175.38 307.585 176.76 307.585 179.22C307.585 181.68 306.205 183.06 304.645 183.06Z" fill="#020202"/>
<line x1="31" y1="206" x2="307" y2="206" stroke="#389C9A" stroke-width="2" stroke-linecap="round"/>
<circle cx="81" cy="207" r="12" fill="white"/>
<path d="M81 198.667C76.4083 198.667 72.6667 202.408 72.6667 207C72.6667 211.592 76.4083 215.333 81 215.333C85.5917 215.333 89.3333 211.592 89.3333 207C89.3333 202.408 85.5917 198.667 81 198.667ZM84.9833 205.083L80.2583 209.808C80.1417 209.925 79.9833 209.992 79.8167 209.992C79.65 209.992 79.4917 209.925 79.375 209.808L77.0167 207.45C76.775 207.208 76.775 206.808 77.0167 206.567C77.2583 206.325 77.6583 206.325 77.9 206.567L79.8167 208.483L84.1 204.2C84.3417 203.958 84.7417 203.958 84.9833 204.2C85.225 204.442 85.225 204.833 84.9833 205.083Z" fill="#389C9A"/>
<circle cx="169" cy="207" r="12" fill="white"/>
<path d="M169 198.667C164.408 198.667 160.667 202.408 160.667 207C160.667 211.592 164.408 215.333 169 215.333C173.592 215.333 177.333 211.592 177.333 207C177.333 202.408 173.592 198.667 169 198.667ZM172.983 205.083L168.258 209.808C168.142 209.925 167.983 209.992 167.817 209.992C167.65 209.992 167.492 209.925 167.375 209.808L165.017 207.45C164.775 207.208 164.775 206.808 165.017 206.567C165.258 206.325 165.658 206.325 165.9 206.567L167.817 208.483L172.1 204.2C172.342 203.958 172.742 203.958 172.983 204.2C173.225 204.442 173.225 204.833 172.983 205.083Z" fill="#389C9A"/>
<circle cx="257" cy="207" r="12" fill="white"/>
<path d="M257 215.958C252.058 215.958 248.042 211.942 248.042 207C248.042 202.058 252.058 198.042 257 198.042C261.942 198.042 265.958 202.058 265.958 207C265.958 211.942 261.942 215.958 257 215.958ZM257 199.292C252.75 199.292 249.292 202.75 249.292 207C249.292 211.25 252.75 214.708 257 214.708C261.25 214.708 264.708 211.25 264.708 207C264.708 202.75 261.25 199.292 257 199.292Z" fill="#C0BDB6"/>
<path d="M255.817 209.983C255.65 209.983 255.492 209.917 255.375 209.8L253.017 207.442C252.775 207.2 252.775 206.8 253.017 206.558C253.258 206.317 253.658 206.317 253.9 206.558L255.817 208.475L260.1 204.192C260.342 203.95 260.742 203.95 260.983 204.192C261.225 204.433 261.225 204.833 260.983 205.075L256.258 209.8C256.142 209.917 255.983 209.983 255.817 209.983Z" fill="#C0BDB6"/>
<path d="M63.2494 230V223.7H65.3994C66.4894 223.7 67.3994 224.6 67.3994 225.65C67.3994 226.7 66.4894 227.6 65.3994 227.6H64.0494V230H63.2494ZM64.0494 226.9H65.3994C66.0494 226.9 66.5994 226.35 66.5994 225.65C66.5994 224.95 66.0494 224.4 65.3994 224.4H64.0494V226.9ZM68.651 230V225.5H69.201L69.401 226C69.491 225.9 69.601 225.81 69.731 225.73C69.961 225.58 70.271 225.45 70.701 225.45H70.801V226.2H70.601C69.891 226.2 69.401 226.69 69.401 227.45V230H68.651ZM73.649 229.35C74.339 229.35 74.999 228.71 74.999 227.75C74.999 226.79 74.339 226.15 73.649 226.15C72.949 226.15 72.299 226.79 72.299 227.75C72.299 228.71 72.949 229.35 73.649 229.35ZM73.649 230.05C72.489 230.05 71.549 229.1 71.549 227.75C71.549 226.4 72.489 225.45 73.649 225.45C74.809 225.45 75.749 226.4 75.749 227.75C75.749 229.1 74.809 230.05 73.649 230.05ZM78.8014 229.35C79.5514 229.35 80.2014 228.71 80.2014 227.75C80.2014 226.79 79.5514 226.15 78.8014 226.15C78.0514 226.15 77.4014 226.79 77.4014 227.75C77.4014 228.71 78.0514 229.35 78.8014 229.35ZM80.3014 230L80.1014 229.5C80.0014 229.61 79.8914 229.7 79.7614 229.78C79.5314 229.93 79.2014 230.05 78.7514 230.05C77.5914 230.05 76.6514 229.1 76.6514 227.75C76.6514 226.4 77.5914 225.45 78.7514 225.45C79.2014 225.45 79.5314 225.6 79.7614 225.75C79.8914 225.84 80.0014 225.94 80.1014 226.05V223.7H80.8514V230H80.3014ZM82.4053 228.1V225.5H83.1553V228.1C83.1553 228.85 83.6453 229.35 84.2553 229.35C84.9653 229.35 85.4553 228.86 85.4553 228.1V225.5H86.2053V230H85.6553L85.4553 229.5C85.3653 229.61 85.2553 229.7 85.1253 229.78C84.8953 229.93 84.5853 230.05 84.1553 230.05C83.2053 230.05 82.4053 229.25 82.4053 228.1ZM87.7529 230V223.7H88.5029V227.65L90.2029 225.5H91.0529L89.3529 227.6L91.3029 230H90.4029L88.5029 227.65V230H87.7529ZM91.7045 228.65H92.4545C92.5045 229.05 92.7945 229.35 93.3545 229.35C93.8645 229.35 94.1545 229.05 94.1545 228.7C94.1545 227.69 91.8045 228.46 91.8045 226.75C91.8045 226.06 92.4045 225.45 93.3045 225.45C94.2645 225.45 94.8045 226 94.8545 226.8H94.1045C94.0545 226.4 93.8145 226.15 93.3045 226.15C92.8545 226.15 92.5545 226.44 92.5545 226.75C92.5545 227.76 94.9045 227 94.9045 228.7C94.9045 229.45 94.3045 230.05 93.3545 230.05C92.3545 230.05 91.7545 229.45 91.7045 228.65ZM96.1498 230V225.5H96.8998V230H96.1498ZM96.0498 224.23C96.0498 223.95 96.2498 223.75 96.5198 223.75C96.7998 223.75 96.9998 223.95 96.9998 224.23C96.9998 224.5 96.7998 224.7 96.5198 224.7C96.2498 224.7 96.0498 224.5 96.0498 224.23Z" fill="#389C9A"/>
<path d="M142.778 228.15H143.578C143.578 228.91 144.028 229.35 144.878 229.35C145.728 229.35 146.178 228.91 146.178 228.35C146.178 226.8 142.828 227.6 142.828 225.35C142.828 224.5 143.678 223.65 144.878 223.65C145.968 223.65 146.828 224.5 146.828 225.55H146.028C146.028 224.84 145.528 224.35 144.878 224.35C144.128 224.35 143.628 224.84 143.628 225.35C143.628 226.9 146.978 226.1 146.978 228.35C146.978 229.25 146.188 230.05 144.878 230.05C143.568 230.05 142.778 229.25 142.778 228.15ZM148.179 230V225.5H148.929V230H148.179ZM148.079 224.23C148.079 223.95 148.279 223.75 148.549 223.75C148.829 223.75 149.029 223.95 149.029 224.23C149.029 224.5 148.829 224.7 148.549 224.7C148.279 224.7 148.079 224.5 148.079 224.23ZM153.279 230L153.079 229.5C152.979 229.61 152.869 229.7 152.739 229.78C152.509 229.93 152.179 230.05 151.729 230.05C150.829 230.05 150.229 229.45 150.229 228.7C150.229 227.85 150.829 227.25 153.079 227.25V227C153.079 226.55 152.689 226.15 152.129 226.15C151.569 226.15 151.339 226.4 151.229 226.8H150.429C150.539 226.05 151.129 225.45 152.129 225.45C153.129 225.45 153.829 226.16 153.829 227V230H153.279ZM153.079 228.3V227.95C151.279 227.95 150.979 228.25 150.979 228.75C150.979 229.06 151.279 229.35 151.729 229.35C152.529 229.35 153.079 228.8 153.079 228.3ZM157.328 229.35C158.078 229.35 158.728 228.71 158.728 227.75C158.728 226.79 158.078 226.15 157.328 226.15C156.578 226.15 155.928 226.79 155.928 227.75C155.928 228.71 156.578 229.35 157.328 229.35ZM155.278 231.6V225.5H155.828L156.028 226C156.118 225.9 156.238 225.81 156.368 225.73C156.598 225.58 156.928 225.45 157.378 225.45C158.538 225.45 159.478 226.4 159.478 227.75C159.478 229.1 158.538 230.05 157.378 230.05C156.928 230.05 156.598 229.9 156.368 229.75C156.238 229.66 156.118 229.56 156.028 229.45V231.6H155.278ZM164.872 229.35C165.622 229.35 166.272 228.71 166.272 227.75C166.272 226.79 165.622 226.15 164.872 226.15C164.122 226.15 163.472 226.79 163.472 227.75C163.472 228.71 164.122 229.35 164.872 229.35ZM166.372 230L166.172 229.5C166.072 229.61 165.962 229.7 165.832 229.78C165.602 229.93 165.272 230.05 164.822 230.05C163.662 230.05 162.722 229.1 162.722 227.75C162.722 226.4 163.662 225.45 164.822 225.45C165.272 225.45 165.602 225.6 165.832 225.75C165.962 225.84 166.072 225.94 166.172 226.05V223.7H166.922V230H166.372ZM168.476 230V225.5H169.226V230H168.476ZM168.376 224.23C168.376 223.95 168.576 223.75 168.846 223.75C169.126 223.75 169.326 223.95 169.326 224.23C169.326 224.5 169.126 224.7 168.846 224.7C168.576 224.7 168.376 224.5 168.376 224.23ZM170.776 230V223.7H171.526V227.65L173.226 225.5H174.076L172.376 227.6L174.326 230H173.426L171.526 227.65V230H170.776ZM177.978 228.8H178.778C178.478 229.45 177.878 230.05 176.878 230.05C175.678 230.05 174.728 229.1 174.728 227.75C174.728 226.4 175.738 225.45 176.828 225.45C177.928 225.45 178.878 226.34 178.878 227.7C178.878 227.83 178.858 227.92 178.848 227.99L178.828 228.1H175.528C175.578 228.75 176.168 229.35 176.878 229.35C177.468 229.35 177.828 229.01 177.978 228.8ZM175.528 227.45H178.128C178.018 226.7 177.478 226.15 176.828 226.15C176.178 226.15 175.638 226.7 175.528 227.45ZM180.081 230V225.5H180.631L180.831 226C180.901 225.9 180.991 225.81 181.101 225.73C181.291 225.58 181.541 225.45 181.931 225.45C182.381 225.45 182.691 225.65 182.891 225.85C183.011 225.97 183.111 226.1 183.181 226.25C183.271 226.1 183.371 225.97 183.501 225.85C183.731 225.65 184.051 225.45 184.531 225.45C185.331 225.45 186.031 226.14 186.031 227.3V230H185.281V227.3C185.281 226.54 184.891 226.15 184.381 226.15C183.871 226.15 183.431 226.59 183.431 227.3V230H182.681V227.3C182.681 226.54 182.291 226.15 181.781 226.15C181.291 226.15 180.831 226.63 180.831 227.3V230H180.081ZM190.329 230L190.129 229.5C190.029 229.61 189.919 229.7 189.789 229.78C189.559 229.93 189.229 230.05 188.779 230.05C187.879 230.05 187.279 229.45 187.279 228.7C187.279 227.85 187.879 227.25 190.129 227.25V227C190.129 226.55 189.739 226.15 189.179 226.15C188.619 226.15 188.389 226.4 188.279 226.8H187.479C187.589 226.05 188.179 225.45 189.179 225.45C190.179 225.45 190.879 226.16 190.879 227V230H190.329ZM190.129 228.3V227.95C188.329 227.95 188.029 228.25 188.029 228.75C188.029 229.06 188.329 229.35 188.779 229.35C189.579 229.35 190.129 228.8 190.129 228.3ZM192.027 228.65H192.777C192.827 229.05 193.117 229.35 193.677 229.35C194.187 229.35 194.477 229.05 194.477 228.7C194.477 227.69 192.127 228.46 192.127 226.75C192.127 226.06 192.727 225.45 193.627 225.45C194.587 225.45 195.127 226 195.177 226.8H194.427C194.377 226.4 194.137 226.15 193.627 226.15C193.177 226.15 192.877 226.44 192.877 226.75C192.877 227.76 195.227 227 195.227 228.7C195.227 229.45 194.627 230.05 193.677 230.05C192.677 230.05 192.077 229.45 192.027 228.65Z" fill="#389C9A"/>
<path d="M233.501 228.15H234.301C234.301 228.91 234.751 229.35 235.601 229.35C236.451 229.35 236.901 228.91 236.901 228.35C236.901 226.8 233.551 227.6 233.551 225.35C233.551 224.5 234.401 223.65 235.601 223.65C236.691 223.65 237.551 224.5 237.551 225.55H236.751C236.751 224.84 236.251 224.35 235.601 224.35C234.851 224.35 234.351 224.84 234.351 225.35C234.351 226.9 237.701 226.1 237.701 228.35C237.701 229.25 236.911 230.05 235.601 230.05C234.291 230.05 233.501 229.25 233.501 228.15ZM238.902 230V225.5H239.652V230H238.902ZM238.802 224.23C238.802 223.95 239.002 223.75 239.272 223.75C239.552 223.75 239.752 223.95 239.752 224.23C239.752 224.5 239.552 224.7 239.272 224.7C239.002 224.7 238.802 224.5 238.802 224.23ZM244.003 230L243.803 229.5C243.703 229.61 243.593 229.7 243.463 229.78C243.233 229.93 242.903 230.05 242.453 230.05C241.553 230.05 240.953 229.45 240.953 228.7C240.953 227.85 241.553 227.25 243.803 227.25V227C243.803 226.55 243.413 226.15 242.853 226.15C242.293 226.15 242.063 226.4 241.953 226.8H241.153C241.263 226.05 241.853 225.45 242.853 225.45C243.853 225.45 244.553 226.16 244.553 227V230H244.003ZM243.803 228.3V227.95C242.003 227.95 241.703 228.25 241.703 228.75C241.703 229.06 242.003 229.35 242.453 229.35C243.253 229.35 243.803 228.8 243.803 228.3ZM248.052 229.35C248.802 229.35 249.452 228.71 249.452 227.75C249.452 226.79 248.802 226.15 248.052 226.15C247.302 226.15 246.652 226.79 246.652 227.75C246.652 228.71 247.302 229.35 248.052 229.35ZM246.002 231.6V225.5H246.552L246.752 226C246.842 225.9 246.962 225.81 247.092 225.73C247.322 225.58 247.652 225.45 248.102 225.45C249.262 225.45 250.202 226.4 250.202 227.75C250.202 229.1 249.262 230.05 248.102 230.05C247.652 230.05 247.322 229.9 247.092 229.75C246.962 229.66 246.842 229.56 246.752 229.45V231.6H246.002ZM255.595 229.35C256.345 229.35 256.995 228.71 256.995 227.75C256.995 226.79 256.345 226.15 255.595 226.15C254.845 226.15 254.195 226.79 254.195 227.75C254.195 228.71 254.845 229.35 255.595 229.35ZM257.095 230L256.895 229.5C256.795 229.61 256.685 229.7 256.555 229.78C256.325 229.93 255.995 230.05 255.545 230.05C254.385 230.05 253.445 229.1 253.445 227.75C253.445 226.4 254.385 225.45 255.545 225.45C255.995 225.45 256.325 225.6 256.555 225.75C256.685 225.84 256.795 225.94 256.895 226.05V223.7H257.645V230H257.095ZM259.199 230V225.5H259.949V230H259.199ZM259.099 224.23C259.099 223.95 259.299 223.75 259.569 223.75C259.849 223.75 260.049 223.95 260.049 224.23C260.049 224.5 259.849 224.7 259.569 224.7C259.299 224.7 259.099 224.5 259.099 224.23ZM264.3 230L264.1 229.5C264 229.61 263.89 229.7 263.76 229.78C263.53 229.93 263.2 230.05 262.75 230.05C261.85 230.05 261.25 229.45 261.25 228.7C261.25 227.85 261.85 227.25 264.1 227.25V227C264.1 226.55 263.71 226.15 263.15 226.15C262.59 226.15 262.36 226.4 262.25 226.8H261.45C261.56 226.05 262.15 225.45 263.15 225.45C264.15 225.45 264.85 226.16 264.85 227V230H264.3ZM264.1 228.3V227.95C262.3 227.95 262 228.25 262 228.75C262 229.06 262.3 229.35 262.75 229.35C263.55 229.35 264.1 228.8 264.1 228.3ZM266.298 230V225.5H266.848L267.048 226C267.118 225.9 267.208 225.81 267.318 225.73C267.508 225.58 267.758 225.45 268.148 225.45C268.598 225.45 268.908 225.65 269.108 225.85C269.228 225.97 269.328 226.1 269.398 226.25C269.488 226.1 269.588 225.97 269.718 225.85C269.948 225.65 270.268 225.45 270.748 225.45C271.548 225.45 272.248 226.14 272.248 227.3V230H271.498V227.3C271.498 226.54 271.108 226.15 270.598 226.15C270.088 226.15 269.648 226.59 269.648 227.3V230H268.898V227.3C268.898 226.54 268.508 226.15 267.998 226.15C267.508 226.15 267.048 226.63 267.048 227.3V230H266.298ZM275.796 229.35C276.546 229.35 277.196 228.71 277.196 227.75C277.196 226.79 276.546 226.15 275.796 226.15C275.046 226.15 274.396 226.79 274.396 227.75C274.396 228.71 275.046 229.35 275.796 229.35ZM273.746 230V223.7H274.496V226.05C274.586 225.94 274.706 225.84 274.836 225.75C275.066 225.6 275.396 225.45 275.846 225.45C277.006 225.45 277.946 226.4 277.946 227.75C277.946 229.1 277.006 230.05 275.846 230.05C275.396 230.05 275.066 229.93 274.836 229.78C274.706 229.7 274.586 229.61 274.496 229.5L274.296 230H273.746ZM279.15 230V225.5H279.9V230H279.15ZM279.05 224.23C279.05 223.95 279.25 223.75 279.52 223.75C279.8 223.75 280 223.95 280 224.23C280 224.5 279.8 224.7 279.52 224.7C279.25 224.7 279.05 224.5 279.05 224.23ZM281.45 230V223.7H282.2V230H281.45Z" fill="#C0BDB6"/>
</g>
<defs>
<filter id="filter0_d_544_43719" x="0" y="0" width="338" height="258" filterUnits="userSpaceOnUse" color-interpolation-filters="sRGB">
<feFlood flood-opacity="0" result="BackgroundImageFix"/>
<feColorMatrix in="SourceAlpha" type="matrix" values="0 0 0 0 0 0 0 0 0 0 0 0 0 0 0 0 0 0 127 0" result="hardAlpha"/>
<feOffset/>
<feGaussianBlur stdDeviation="2.5"/>
<feComposite in2="hardAlpha" operator="out"/>
<feColorMatrix type="matrix" values="0 0 0 0 0 0 0 0 0 0 0 0 0 0 0 0 0 0 0.15 0"/>
<feBlend mode="normal" in2="BackgroundImageFix" result="effect1_dropShadow_544_43719"/>
<feBlend mode="normal" in="SourceGraphic" in2="effect1_dropShadow_544_43719" result="shape"/>
</filter>
</defs>
</svg>
