<svg width="171" height="133" viewBox="0 0 171 133" fill="none" xmlns="http://www.w3.org/2000/svg">
<mask id="mask0_13_13101" style="mask-type:luminance" maskUnits="userSpaceOnUse" x="35" y="0" width="102" height="100">
<path d="M35.7163 0H136.192V99.188H35.7163V0Z" fill="white"/>
</mask>
<g mask="url(#mask0_13_13101)">
<path d="M80.8108 1.99045C67.5162 11.4004 54.2184 20.8103 40.9237 30.2171C38.0471 32.2525 35.7163 36.7568 35.7163 40.2787V92.8858C35.7163 96.4077 38.5736 99.2618 42.0955 99.2618H129.941C133.463 99.2618 136.317 96.4077 136.317 92.8858V40.2787C136.317 36.7568 133.986 32.2525 131.113 30.2171C117.815 20.8103 104.52 11.4004 91.2224 1.99045C88.3491 -0.0449954 83.6874 -0.0449954 80.8108 1.99045Z" fill="white"/>
</g>
<mask id="mask1_13_13101" style="mask-type:luminance" maskUnits="userSpaceOnUse" x="64" y="31" width="52" height="54">
<path d="M64.0676 31.2607H115.792V84.3494H64.0676V31.2607Z" fill="white"/>
</mask>
<g mask="url(#mask1_13_13101)">
<path d="M83.915 66.8815C83.8733 66.8397 83.8315 66.8012 83.7898 66.7595C82.8587 67.4818 81.0705 69.4177 80.8971 70.0117C81.902 68.9683 82.9101 67.9249 83.915 66.8815ZM66.5238 80.9434C65.1593 81.8327 64.9763 82.2276 66.1706 83.2871C66.604 83.6177 67.3521 82.6899 67.7406 82.2404C67.2975 81.7685 66.9123 81.3576 66.5238 80.9434ZM80.1298 70.8111C80.0881 70.7629 80.0464 70.718 80.0046 70.673C67.5672 83.3545 69.2752 81.6818 69.2559 81.9868C69.3362 81.9708 69.4774 81.9868 69.5352 81.9258C73.0732 78.2273 76.6015 74.5192 80.1298 70.8111ZM67.1819 80.1022C72.7393 74.3683 78.287 68.644 83.8187 62.9358C83.4463 62.3482 83.1027 62.5248 82.7913 62.8298C79.9565 65.5973 77.2532 68.4321 74.4633 71.2349C66.0647 79.8743 66.3986 78.8437 67.1819 80.1022ZM109.901 33.9964C109.243 33.7588 107.804 34.4234 107.502 34.4973C102.183 36.5456 97.7618 43.4545 96.8597 44.5782C94.7921 47.3842 92.5705 50.1002 91.0551 53.2658C91.7646 52.964 92.0825 52.2352 92.5897 51.7119C93.2672 50.8836 93.9574 50.081 94.6509 49.2751C102.626 40.1927 102.468 39.0529 109.901 33.9964ZM109.172 33.0012C109.191 32.9402 109.207 32.876 109.226 32.8118C106.751 31.9513 104.379 32.6288 102.192 33.7011C99.9097 34.8183 98.0861 36.568 96.6831 38.7447C95.0458 41.0916 93.7102 43.5829 92.5416 46.1899C91.4982 48.4244 90.3777 50.4405 89.4178 52.7328C89.6072 52.6365 89.7067 52.6108 89.7292 52.5819C89.9411 52.2384 90.1915 51.805 90.413 51.4326C93.1323 46.5559 95.7103 42.9408 99.2451 39.0305C102.822 34.9917 104.443 34.2629 109.172 33.0012ZM114.222 39.7271C114.161 39.7207 114.1 39.7143 114.036 39.7079C112.62 44.8415 108.186 48.0905 104.154 51.1501C96.8886 56.518 92.6989 59.1988 92.487 59.6579C93.0007 59.7124 93.3538 59.3368 93.7969 59.1699C94.7568 58.6947 95.7103 58.2324 96.6735 57.7572C107.14 52.8227 115.041 46.1192 114.222 39.7271ZM88.5156 59.34C88.5638 59.3818 88.6152 59.4203 88.6633 59.4588C92.349 56.0974 96.0089 52.7007 99.8583 49.5288C104.947 44.8094 111.702 39.8042 111.65 34.6899C106.899 36.8345 103.814 41.0691 100.497 44.8061C94.1789 51.9463 92.4164 53.7024 88.5156 59.34ZM92.7792 57.7605C94.5032 56.5469 96.1502 55.1824 97.8774 53.9625C100.009 52.4535 102.231 51.057 104.269 49.4164C111.907 42.8092 112.145 40.4495 112.482 38.4943C112.203 38.7062 112.077 38.9663 111.885 39.2456C110.626 41.265 109.615 42.4914 108.202 43.9329C103.117 48.8481 97.4023 53.0667 92.3072 57.9852C92.3393 58.0141 92.3682 58.043 92.4003 58.0719C92.5255 57.9691 92.654 57.8632 92.7792 57.7605ZM65.7115 79.9578C65.4515 79.2868 65.7822 78.863 66.1867 78.4649C67.5287 77.094 68.8129 75.7103 70.126 74.3298C73.9625 70.2589 77.8375 66.2394 81.7254 62.2198C83.2119 61.0833 83.9118 60.3321 84.7979 58.9355C86.5348 55.9786 87.6584 52.6718 89.055 49.532C91.0583 44.9731 93.6941 39.2038 95.5081 37.1523C104.199 26.4903 116.219 31.9192 115.779 40.6261C115.789 44.1191 114.588 47.0182 112.373 49.5031C109.008 53.2176 104.507 55.0444 100.288 57.144C95.3283 59.6611 90.1241 62.2423 88.8527 63.3628C88.2492 63.8347 87.6873 64.3323 87.1448 64.8781C86.1463 66.0499 85.1992 67.1704 84.098 68.2459C67.0631 85.7944 70.8451 82.3368 69.1082 82.8504C68.5271 83.0527 68.2253 83.8104 67.6699 84.0768C66.3729 84.8538 64.7066 83.8039 64.1833 82.5294C63.6953 81.3608 64.9153 80.6288 65.7115 79.9578Z" fill="#389C9A"/>
</g>
<path d="M66.7582 39.6077C65.657 38.0603 64.3375 36.6605 62.8318 35.4662C61.7306 34.487 60.2795 33.9444 59.3516 35.2736C57.5698 37.5883 62.286 41.3575 63.6633 42.6288C64.7067 41.6111 65.6859 40.6544 66.7582 39.6077ZM62.3695 44.3336C59.7401 41.579 57.1557 39.1358 56.9406 37.7489C56.2375 34.4934 59.3837 31.9668 62.4979 33.1482C64.9539 33.9605 67.4003 36.8596 68.4373 38.3492C71.224 36.7183 72.6752 36.76 74.961 38.9239C76.181 39.9834 77.3593 41.0364 78.5471 42.1312C80.6853 44.1153 82.7015 46.186 84.7113 48.2921C86.5381 50.273 87.3118 50.5491 86.4257 52.2314C85.6744 52.5011 85.2603 52.0195 84.8044 51.5058C84.3421 50.9986 83.9022 50.5106 83.4399 50.0065C80.6918 47.0111 76.4732 42.4426 74.3864 40.8727C72.4023 39.4793 71.6125 38.1951 69.8146 39.8261C69.0473 40.4617 68.3153 41.0364 67.6604 41.7748C62.5525 47.5248 62.5236 46.6548 66.1771 51.0371C69.9495 55.1882 73.9594 59.0954 78.0431 62.9319C78.7558 63.6479 78.5279 64.1166 77.8248 64.5372C77.1153 64.8358 76.7204 64.4248 76.3415 64.0492C75.8343 63.574 75.3495 63.1085 74.8551 62.6237C72.8646 60.6429 70.9158 58.6267 68.89 56.6811C61.8333 49.7336 59.7208 48.3531 62.3695 44.3336Z" fill="#389C9A"/>
<mask id="mask2_13_13101" style="mask-type:luminance" maskUnits="userSpaceOnUse" x="83" y="61" width="30" height="27">
<path d="M83.4111 61.0479H112.376V87.7816H83.4111V61.0479Z" fill="white"/>
</mask>
<g mask="url(#mask2_13_13101)">
<path d="M102.456 81.0617C103.454 82.7279 106.726 85.932 107.984 86.1374C109.352 86.4553 110.299 85.1005 110.216 83.9094C110.065 81.9702 106.347 78.8528 105.58 78.0245C104.495 79.0808 103.493 80.0536 102.456 81.0617ZM95.3031 61.5676C97.4798 60.5434 97.4156 61.2048 98.52 62.2129C99.8042 63.4874 101.088 64.7427 102.376 66.0141C107.253 70.9069 109.432 72.5795 106.736 76.4161C112.601 82.1308 112.158 82.5802 112.322 83.1677C112.489 84.0988 112.19 85.1679 111.609 86.0604C110.267 88.205 107.413 88.1344 105.467 87.0043C103.551 85.7875 102.106 84.0795 100.693 82.3459C96.6001 84.5964 95.4411 82.7504 93.8648 81.4373C92.099 79.938 90.4552 78.3327 88.8147 76.705C87.7135 75.5492 83.1931 71.3563 83.4275 71.0257C83.344 70.7335 83.7999 70.2166 84.198 70.0368C85.1322 69.6419 85.6973 70.7239 86.2495 71.2344C88.7055 73.806 95.2228 81.2479 97.8072 81.6299C98.6965 81.7969 101.592 78.8849 102.235 78.2107C106.399 73.5748 106.122 73.4753 104.164 71.0289C101.422 67.6611 98.1957 64.7909 95.3031 61.5676Z" fill="#389C9A"/>
</g>
<path d="M79.6648 61.7987C78.432 61.2626 77.6069 60.0554 76.5571 59.2271C73.3498 56.312 66.9673 50.379 65.8437 48.4945C65.3364 46.9663 67.542 47.0241 68.1681 47.9134C79.7675 60.0041 82.4001 61.4103 79.6648 61.7987Z" fill="#389C9A"/>
<path d="M87.3861 67.5485C87.5947 67.6095 88.0795 67.9305 88.3043 68.1745C90.497 70.1522 92.5742 72.1523 94.6225 74.2584C95.3031 75.1284 98.7416 77.8188 96.9565 78.538C95.5921 79.0003 94.9147 77.7675 94.1602 77.0612C92.6962 75.5426 91.2547 74.0401 89.765 72.5472C88.1373 70.8938 85.8868 68.8423 85.8771 68.6722C85.7294 67.9402 86.5834 67.4843 87.3861 67.5485Z" fill="#389C9A"/>
<path d="M17.2785 115.908C18.7938 115.429 20.0331 114.412 20.3413 112.623C20.8935 109.4 17.5771 107.233 14.3152 106.674L7.78828 105.557C5.36115 105.14 3.07528 105.076 2.81844 106.588C2.70929 107.227 3.00465 108.135 3.28076 108.675C4.1219 110.456 3.07207 119.452 1.34483 120.919C0.811889 121.401 0.144107 122.188 0.0221089 122.903C-0.244362 124.457 1.93877 125.119 4.3659 125.533L12.2059 126.875C15.6283 127.462 20.1936 125.908 20.8357 122.168C21.3109 119.385 19.5579 117.198 17.2785 115.908ZM12.8448 124.57C12.1192 124.977 11.628 124.974 10.9121 124.852C8.72253 124.477 8.31159 120.187 9.02753 116.011C15.8402 115.211 15.1692 123.205 12.8448 124.57ZM13.7694 108.177C14.0873 108.232 14.3923 108.366 14.5977 108.607C16.2768 110.286 12.8159 114.691 9.43526 114.113C10.2732 110.652 11.8592 107.849 13.7694 108.177Z" fill="white"/>
<path d="M31.1704 115.489C28.5249 115.158 26.6275 115.694 25.5006 116.571C21.6962 119.678 28.1621 121.99 29.4367 119.585C29.9183 118.667 30.1944 116.465 31.3245 117.177C32.4513 117.926 32.5444 120.786 29.7128 121.287C27.0031 121.804 23.5679 121.293 22.4282 123.592C21.0926 126.151 23.1056 128.6 26.4702 129.021C29.1156 129.352 30.3517 127.92 31.4721 128.058C32.6343 128.202 33.9635 129.955 36.0856 130.222C37.6491 130.414 39.0489 129.939 39.264 129.194C39.4149 128.642 38.7953 128.401 38.41 127.907C36.0053 125.001 40.8243 116.693 31.1704 115.489ZM28.1075 125.034C28.0658 123.727 29.6935 123.403 30.6856 122.629C31.2699 122.173 31.623 122.298 31.6583 122.671C31.729 123.412 31.668 124.542 31.2057 125.949C31.0965 126.18 30.8429 126.597 30.3902 126.623C29.4078 126.661 28.1268 126.176 28.1075 125.034Z" fill="white"/>
<path d="M52.7415 122.011L55.5089 120.326C56.7417 119.574 58.1255 119.481 58.7804 118.884C59.3904 118.367 57.2683 118.037 56.3436 117.963C55.6598 117.908 54.1669 117.831 53.6821 118.319C53.3322 118.656 53.8876 119.308 53.3707 119.712L48.6417 122.656C48.9467 118.268 49.836 113.195 50.0126 112.521C50.8216 109.953 46.8438 111.619 45.3766 112.232C43.9094 112.845 41.7552 113.484 41.4983 114.678C41.3667 115.317 41.9061 115.645 42.2657 116.239C43.0233 117.391 42.7408 119.436 42.5321 122.053C42.3491 124.345 42.0505 127.604 41.1452 128.3C40.7535 128.634 40.2944 128.801 40.3361 129.331C40.4004 130.551 43.3219 130.984 44.8918 131.11C46.4618 131.235 49.5759 131.277 49.8328 130.082C49.9516 129.607 49.4796 129.447 49.1489 129.016C48.7765 128.583 48.6545 127.601 48.5518 126.336C48.4202 124.907 49.3608 124.82 49.7268 124.811C51.3096 124.734 52.1893 126.422 52.0865 127.71C51.8265 131.01 54.793 131.893 56.4014 132.021C57.9714 132.147 60.0004 132.105 60.2572 130.911C60.3824 130.352 59.8334 130.147 59.3808 129.707C57.9874 128.381 57.6246 121.709 52.7415 122.011Z" fill="white"/>
<path d="M75.8997 126.542C73.2125 129.351 69.5686 129.582 68.4546 126.834C68.9715 127.098 69.6938 127.204 70.3809 127.229C73.4084 127.338 76.9945 124.279 75.8708 121.813C74.9719 119.88 72.5897 118.744 69.8865 118.644C65.7706 118.497 62.268 121.518 62.1267 125.393C61.9855 129.226 65.2602 132.498 69.376 132.645C72.9653 132.777 76.0763 130.549 76.9174 127.428L77.0138 127.027C77.1197 126.343 76.5322 125.878 75.8997 126.542ZM69.8287 120.221C70.8368 120.256 70.9363 124.218 68.461 125.624C68.339 125.659 68.2555 125.698 68.2106 125.775C68.1432 125.409 68.1175 125.046 68.1335 124.603C68.1978 122.866 68.7789 120.182 69.8287 120.221Z" fill="white"/>
<path d="M101.669 114.406C101.657 112.872 99.39 112.57 96.9275 112.596L96.6065 112.599C94.1023 112.621 91.8453 112.968 91.8582 114.503C91.8646 114.988 92.1535 115.549 92.4007 116.031C93.3446 117.758 91.1904 120.404 89.6301 121.71C88.5096 122.651 87.3057 123.714 86.5159 125.335C86.2816 122.028 86.6829 117.623 87.4373 116.525C87.7969 116.037 88.2335 115.183 88.2271 114.538C88.2111 113.003 85.9477 112.705 83.4852 112.727L83.1192 112.731C80.6568 112.756 78.3998 113.1 78.4159 114.634C78.4223 115.283 78.875 116.124 79.241 116.606C80.3903 118.211 80.9618 127.248 79.5267 128.998C79.0868 129.57 78.5732 130.462 78.5796 131.188C78.5956 132.764 80.859 133.024 83.3215 132.998L83.6843 132.995C86.1467 132.969 88.4037 132.664 88.3908 131.091C88.3876 130.767 88.2624 130.366 88.0955 130.003C86.776 127.313 89.1325 124.622 90.8533 123.152C91.8164 122.336 92.8566 121.437 93.6111 120.179C94.006 123.444 93.9289 127.727 93.0107 128.866C92.5324 129.435 92.0155 130.327 92.0219 131.056C92.038 132.629 94.3014 132.889 96.8055 132.867L97.1298 132.864C99.5922 132.838 101.849 132.533 101.833 130.96C101.827 130.231 101.294 129.348 100.844 128.786C99.3739 127.065 99.7688 118.018 100.921 116.39C101.242 115.903 101.676 115.052 101.669 114.406Z" fill="white"/>
<path d="M110.316 118.26C106.165 118.494 102.996 121.827 103.215 125.696C103.433 129.567 106.955 132.483 111.106 132.248C115.257 132.014 118.471 128.717 118.253 124.848C118.031 120.979 114.467 118.026 110.316 118.26ZM111.026 130.797C110.098 130.848 109.234 128.431 109.064 125.448C108.897 122.466 109.485 120.003 110.413 119.952C111.34 119.901 112.243 122.276 112.41 125.259C112.58 128.242 111.95 130.742 111.026 130.797Z" fill="white"/>
<path d="M138.362 127.533C136.327 125.783 136.786 118.518 136.915 117.33C137.223 114.701 133.601 117.048 132.301 117.863C130.965 118.727 128.959 119.777 128.917 120.997C128.895 121.607 129.492 121.873 129.945 122.355C130.307 122.766 130.927 123.681 131.148 125.119L131.177 125.398C131.287 126.525 131.27 127.581 131.036 128.092C130.734 128.727 130.33 129.174 129.848 129.222C129.527 129.254 129.238 129.199 128.936 129.026C126.567 126.785 127.306 119.452 127.431 118.261C127.742 115.635 124.156 117.975 122.817 118.797C121.523 119.655 119.552 120.659 119.427 121.847L119.443 122.011C119.459 122.576 120.008 122.807 120.461 123.289C121.411 124.29 121.543 126.021 121.655 127.186L121.674 127.389C122.169 130.342 125.903 131.193 128.314 130.955L128.474 130.939C128.879 130.901 129.119 130.875 129.312 130.776C130.693 130.397 131.222 129.572 132.025 129.495C132.869 129.411 134.263 130.371 136.07 130.191C137.637 130.037 139.184 129.681 139.226 128.461C139.258 127.97 138.725 127.902 138.362 127.533Z" fill="white"/>
<path d="M153.56 116.418C152.382 114.707 148.95 114.373 146.15 114.764L146.073 114.774C142.114 115.329 139.151 117.458 139.861 120.213C140.795 123.953 149.213 123.221 148.696 126.515C148.468 127.812 146.452 128.258 146.442 126.139C146.381 122.803 138.92 124.258 140.808 126.967C141.986 128.679 145.376 129.019 148.214 128.621L148.295 128.611C152.173 128.065 155.184 125.401 154.529 123.333C153.486 119.972 145.367 120.216 145.672 116.87C145.819 115.586 147.919 115.169 147.925 117.246C147.986 120.582 155.448 119.127 153.56 116.418Z" fill="white"/>
<path d="M169.627 118.692C167.592 122.006 164.08 123.001 162.413 120.548C162.972 120.696 163.701 120.648 164.378 120.526C167.361 119.996 170.221 116.249 168.603 114.076C167.319 112.377 164.748 111.767 162.086 112.239C158.031 112.962 155.241 116.654 155.922 120.471C156.593 124.247 160.481 126.754 164.536 126.035C168.074 125.406 170.645 122.571 170.812 119.344L170.819 118.93C170.78 118.24 170.106 117.909 169.627 118.692ZM162.362 113.79C163.354 113.613 164.285 117.469 162.163 119.363C162.051 119.424 161.977 119.476 161.951 119.562C161.807 119.219 161.704 118.869 161.627 118.432C161.322 116.721 161.328 113.973 162.362 113.79Z" fill="white"/>
</svg>
