<svg width="171" height="133" viewBox="0 0 171 133" fill="none" xmlns="http://www.w3.org/2000/svg">
<mask id="mask0_253_4736" style="mask-type:luminance" maskUnits="userSpaceOnUse" x="35" y="0" width="102" height="100">
<path d="M35.7158 0H136.191V99.188H35.7158V0Z" fill="white"/>
</mask>
<g mask="url(#mask0_253_4736)">
<path d="M80.8103 1.99045C67.5157 11.4004 54.2179 20.8103 40.9232 30.2171C38.0466 32.2525 35.7158 36.7568 35.7158 40.2787V92.8858C35.7158 96.4077 38.5732 99.2618 42.0951 99.2618H129.94C133.462 99.2618 136.316 96.4077 136.316 92.8858V40.2787C136.316 36.7568 133.986 32.2525 131.112 30.2171C117.814 20.8103 104.52 11.4004 91.222 1.99045C88.3486 -0.0449954 83.6869 -0.0449954 80.8103 1.99045Z" fill="#FCF9F2"/>
</g>
<mask id="mask1_253_4736" style="mask-type:luminance" maskUnits="userSpaceOnUse" x="64" y="31" width="52" height="54">
<path d="M64.0684 31.2605H115.793V84.3491H64.0684V31.2605Z" fill="white"/>
</mask>
<g mask="url(#mask1_253_4736)">
<path d="M83.9157 66.881C83.874 66.8392 83.8323 66.8007 83.7905 66.759C82.8595 67.4813 81.0712 69.4173 80.8979 70.0112C81.9028 68.9678 82.9108 67.9244 83.9157 66.881ZM66.5245 80.9429C65.1601 81.8322 64.9771 82.2271 66.1714 83.2866C66.6048 83.6172 67.3528 82.6894 67.7413 82.2399C67.2982 81.768 66.913 81.3571 66.5245 80.9429ZM80.1306 70.8106C80.0888 70.7625 80.0471 70.7175 80.0054 70.6726C67.5679 83.354 69.2759 81.6813 69.2566 81.9863C69.3369 81.9703 69.4782 81.9863 69.536 81.9253C73.0739 78.2268 76.6022 74.5187 80.1306 70.8106ZM67.1827 80.1018C72.74 74.3678 78.2877 68.6435 83.8194 62.9353C83.447 62.3478 83.1035 62.5243 82.7921 62.8293C79.9572 65.5968 77.254 68.4316 74.4641 71.2344C66.0654 79.8738 66.3993 78.8433 67.1827 80.1018ZM109.901 33.9959C109.243 33.7584 107.805 34.4229 107.503 34.4968C102.183 36.5451 97.7626 43.454 96.8604 44.5777C94.7929 47.3837 92.5712 50.0997 91.0559 53.2653C91.7654 52.9635 92.0832 52.2347 92.5905 51.7114C93.2679 50.8831 93.9581 50.0805 94.6516 49.2747C102.626 40.1922 102.469 39.0525 109.901 33.9959ZM109.173 33.0007C109.192 32.9397 109.208 32.8755 109.227 32.8113C106.752 31.9509 104.379 32.6283 102.193 33.7006C99.9104 34.8178 98.0868 36.5675 96.6838 38.7442C95.0465 41.0911 93.7109 43.5825 92.5423 46.1894C91.4989 48.4239 90.3784 50.4401 89.4185 52.7323C89.6079 52.636 89.7075 52.6103 89.7299 52.5815C89.9418 52.2379 90.1922 51.8045 90.4138 51.4321C93.133 46.5554 95.7111 42.9404 99.2458 39.03C102.822 34.9912 104.444 34.2624 109.173 33.0007ZM114.223 39.7267C114.162 39.7202 114.101 39.7138 114.037 39.7074C112.621 44.841 108.187 48.09 104.155 51.1496C96.8893 56.5175 92.6996 59.1983 92.4877 59.6574C93.0014 59.7119 93.3546 59.3363 93.7976 59.1694C94.7576 58.6942 95.7111 58.2319 96.6742 57.7568C107.14 52.8222 115.041 46.1187 114.223 39.7267ZM88.5164 59.3395C88.5645 59.3813 88.6159 59.4198 88.664 59.4583C92.3497 56.0969 96.0096 52.7002 99.859 49.5283C104.948 44.8089 111.703 39.8037 111.651 34.6894C106.9 36.834 103.814 41.0686 100.498 44.8057C94.1797 51.9458 92.4171 53.7019 88.5164 59.3395ZM92.7799 57.76C94.5039 56.5464 96.1509 55.1819 97.8781 53.962C100.01 52.453 102.232 51.0565 104.27 49.4159C111.908 42.8087 112.146 40.449 112.483 38.4938C112.203 38.7057 112.078 38.9658 111.886 39.2451C110.627 41.2645 109.616 42.4909 108.203 43.9324C103.118 48.8477 97.403 53.0662 92.3079 57.9847C92.3401 58.0136 92.3689 58.0425 92.4011 58.0714C92.5263 57.9687 92.6547 57.8627 92.7799 57.76ZM65.7123 79.9573C65.4522 79.2863 65.7829 78.8625 66.1874 78.4644C67.5294 77.0935 68.8136 75.7098 70.1267 74.3293C73.9632 70.2584 77.8383 66.2389 81.7262 62.2193C83.2126 61.0828 83.9125 60.3316 84.7986 58.935C86.5355 55.9782 87.6592 52.6713 89.0557 49.5315C91.0591 44.9726 93.6949 39.2033 95.5088 37.1518C104.2 26.4898 116.22 31.9188 115.78 40.6256C115.789 44.1186 114.589 47.0177 112.374 49.5026C109.009 53.2171 104.508 55.0439 100.289 57.1436C95.329 59.6606 90.1248 62.2418 88.8535 63.3623C88.2499 63.8342 87.6881 64.3318 87.1455 64.8776C86.147 66.0495 85.1999 67.1699 84.0987 68.2454C67.0639 85.794 70.8458 82.3363 69.109 82.8499C68.5279 83.0522 68.2261 83.8099 67.6707 84.0763C66.3736 84.8533 64.7074 83.8035 64.1841 82.5289C63.6961 81.3603 64.9161 80.6283 65.7123 79.9573Z" fill="#16336B"/>
</g>
<path d="M66.758 39.6077C65.6568 38.0603 64.3373 36.6605 62.8316 35.4662C61.7304 34.487 60.2792 33.9444 59.3514 35.2736C57.5696 37.5883 62.2858 41.3575 63.6631 42.6288C64.7065 41.6111 65.6857 40.6544 66.758 39.6077ZM62.3693 44.3336C59.7399 41.579 57.1554 39.1358 56.9403 37.7489C56.2372 34.4934 59.3835 31.9668 62.4977 33.1482C64.9537 33.9605 67.4001 36.8596 68.4371 38.3492C71.2238 36.7183 72.6749 36.76 74.9608 38.9239C76.1808 39.9834 77.359 41.0364 78.5469 42.1312C80.6851 44.1153 82.7013 46.186 84.711 48.2921C86.5378 50.273 87.3115 50.5491 86.4254 52.2314C85.6742 52.5011 85.26 52.0195 84.8041 51.5058C84.3418 50.9986 83.902 50.5106 83.4397 50.0065C80.6915 47.0111 76.4729 42.4426 74.3861 40.8727C72.402 39.4793 71.6123 38.1951 69.8144 39.8261C69.0471 40.4617 68.3151 41.0364 67.6601 41.7748C62.5523 47.5248 62.5234 46.6548 66.1769 51.0371C69.9492 55.1882 73.9591 59.0954 78.0429 62.9319C78.7556 63.6479 78.5276 64.1166 77.8245 64.5372C77.115 64.8358 76.7201 64.4248 76.3413 64.0492C75.834 63.574 75.3493 63.1085 74.8548 62.6237C72.8643 60.6429 70.9156 58.6267 68.8898 56.6811C61.8331 49.7336 59.7206 48.3531 62.3693 44.3336Z" fill="#16336B"/>
<mask id="mask2_253_4736" style="mask-type:luminance" maskUnits="userSpaceOnUse" x="83" y="61" width="30" height="27">
<path d="M83.4111 61.0476H112.376V87.7813H83.4111V61.0476Z" fill="white"/>
</mask>
<g mask="url(#mask2_253_4736)">
<path d="M102.456 81.0619C103.454 82.7281 106.725 85.9322 107.984 86.1377C109.352 86.4555 110.299 85.1007 110.215 83.9096C110.064 81.9705 106.347 78.8531 105.579 78.0248C104.494 79.081 103.493 80.0538 102.456 81.0619ZM95.3026 61.5678C97.4793 60.5437 97.4151 61.205 98.5195 62.2131C99.8037 63.4877 101.088 64.743 102.375 66.0143C107.252 70.9071 109.432 72.5798 106.735 76.4163C112.601 82.131 112.158 82.5805 112.321 83.168C112.488 84.099 112.19 85.1681 111.609 86.0606C110.267 88.2052 107.413 88.1346 105.467 87.0045C103.55 85.7877 102.106 84.0798 100.693 82.3461C96.5996 84.5967 95.4406 82.7506 93.8643 81.4375C92.0985 79.9382 90.4547 78.333 88.8142 76.7053C87.713 75.5495 83.1926 71.3566 83.427 71.0259C83.3435 70.7338 83.7994 70.2169 84.1975 70.0371C85.1317 69.6422 85.6968 70.7241 86.249 71.2346C88.705 73.8062 95.2223 81.2481 97.8068 81.6302C98.6961 81.7971 101.592 78.8852 102.234 78.211C106.398 73.575 106.122 73.4755 104.164 71.0291C101.422 67.6613 98.1952 64.7911 95.3026 61.5678Z" fill="#16336B"/>
</g>
<path d="M79.6648 61.7987C78.432 61.2626 77.6069 60.0554 76.5571 59.2271C73.3498 56.312 66.9673 50.379 65.8437 48.4945C65.3364 46.9663 67.542 47.0241 68.1681 47.9134C79.7675 60.0041 82.4001 61.4103 79.6648 61.7987Z" fill="#16336B"/>
<path d="M87.3861 67.5487C87.5947 67.6097 88.0795 67.9308 88.3043 68.1748C90.497 70.1524 92.5742 72.1526 94.6225 74.2586C95.3031 75.1287 98.7416 77.8191 96.9565 78.5382C95.5921 79.0005 94.9147 77.7677 94.1602 77.0614C92.6962 75.5428 91.2547 74.0403 89.765 72.5475C88.1373 70.8941 85.8868 68.8426 85.8771 68.6724C85.7294 67.9404 86.5834 67.4845 87.3861 67.5487Z" fill="#16336B"/>
<path d="M17.2785 115.908C18.7938 115.429 20.0331 114.412 20.3413 112.623C20.8935 109.4 17.5771 107.233 14.3152 106.674L7.78828 105.557C5.36115 105.14 3.07528 105.076 2.81844 106.588C2.70929 107.227 3.00465 108.135 3.28076 108.675C4.1219 110.456 3.07207 119.452 1.34483 120.919C0.811889 121.401 0.144107 122.188 0.0221089 122.903C-0.244362 124.457 1.93877 125.119 4.3659 125.533L12.2059 126.875C15.6283 127.462 20.1936 125.908 20.8357 122.168C21.3109 119.385 19.5579 117.198 17.2785 115.908ZM12.8448 124.57C12.1192 124.977 11.628 124.974 10.9121 124.852C8.72253 124.477 8.31159 120.187 9.02753 116.011C15.8402 115.211 15.1692 123.205 12.8448 124.57ZM13.7694 108.177C14.0873 108.232 14.3923 108.366 14.5977 108.607C16.2768 110.286 12.8159 114.691 9.43526 114.113C10.2732 110.652 11.8592 107.849 13.7694 108.177Z" fill="#FCF9F2"/>
<path d="M31.1699 115.489C28.5244 115.158 26.627 115.694 25.5001 116.571C21.6957 119.678 28.1616 121.99 29.4362 119.585C29.9178 118.667 30.1939 116.465 31.324 117.177C32.4509 117.926 32.544 120.786 29.7123 121.287C27.0027 121.804 23.5674 121.293 22.4277 123.592C21.0921 126.151 23.1051 128.6 26.4697 129.021C29.1152 129.352 30.3512 127.92 31.4717 128.058C32.6338 128.202 33.963 129.955 36.0851 130.222C37.6486 130.414 39.0484 129.939 39.2635 129.194C39.4144 128.642 38.7948 128.401 38.4095 127.907C36.0049 125.001 40.8238 116.693 31.1699 115.489ZM28.1071 125.034C28.0653 123.727 29.693 123.403 30.6851 122.629C31.2694 122.173 31.6225 122.298 31.6579 122.671C31.7285 123.412 31.6675 124.542 31.2052 125.949C31.096 126.18 30.8424 126.597 30.3897 126.623C29.4073 126.661 28.1263 126.176 28.1071 125.034Z" fill="#FCF9F2"/>
<path d="M52.741 122.011L55.5084 120.325C56.7413 119.574 58.125 119.481 58.7799 118.884C59.3899 118.367 57.2678 118.036 56.3432 117.962C55.6593 117.908 54.1664 117.831 53.6817 118.319C53.3317 118.656 53.8871 119.308 53.3702 119.712L48.6412 122.656C48.9462 118.267 49.8355 113.195 50.0121 112.521C50.8211 109.952 46.8433 111.619 45.3761 112.232C43.9089 112.845 41.7547 113.484 41.4979 114.678C41.3662 115.317 41.9056 115.644 42.2652 116.238C43.0228 117.391 42.7403 119.436 42.5316 122.053C42.3486 124.345 42.0501 127.604 41.1447 128.3C40.753 128.634 40.2939 128.801 40.3357 129.331C40.3999 130.551 43.3214 130.984 44.8913 131.109C46.4613 131.235 49.5754 131.276 49.8323 130.082C49.9511 129.607 49.4791 129.446 49.1484 129.016C48.776 128.583 48.654 127.6 48.5513 126.335C48.4197 124.907 49.3603 124.82 49.7263 124.81C51.3091 124.733 52.1888 126.422 52.086 127.709C51.826 131.01 54.7925 131.893 56.4009 132.021C57.9709 132.146 59.9999 132.105 60.2567 130.91C60.382 130.352 59.833 130.146 59.3803 129.706C57.9869 128.38 57.6241 121.709 52.741 122.011Z" fill="#FCF9F2"/>
<path d="M75.8995 126.542C73.2123 129.351 69.5684 129.582 68.4543 126.834C68.9712 127.097 69.6936 127.203 70.3806 127.229C73.4081 127.338 76.9942 124.279 75.8706 121.813C74.9716 119.88 72.5895 118.744 69.8862 118.644C65.7704 118.496 62.2677 121.517 62.1265 125.393C61.9852 129.226 65.2599 132.497 69.3758 132.645C72.9651 132.777 76.076 130.549 76.9172 127.428L77.0135 127.027C77.1195 126.343 76.5319 125.877 75.8995 126.542ZM69.8284 120.22C70.8365 120.256 70.9361 124.218 68.4608 125.624C68.3388 125.659 68.2553 125.698 68.2104 125.775C68.1429 125.409 68.1172 125.046 68.1333 124.603C68.1975 122.866 68.7786 120.182 69.8284 120.22Z" fill="#FCF9F2"/>
<path d="M101.67 114.406C101.657 112.872 99.3902 112.57 96.9278 112.596L96.6067 112.599C94.1025 112.621 91.8456 112.968 91.8584 114.503C91.8648 114.988 92.1538 115.549 92.401 116.031C93.3449 117.758 91.1906 120.404 89.6303 121.71C88.5099 122.651 87.3059 123.714 86.5162 125.335C86.2818 122.028 86.6831 117.623 87.4376 116.525C87.7971 116.037 88.2338 115.183 88.2274 114.538C88.2113 113.003 85.9479 112.705 83.4855 112.727L83.1195 112.731C80.657 112.756 78.4 113.1 78.4161 114.634C78.4225 115.283 78.8752 116.124 79.2412 116.606C80.3906 118.211 80.962 127.248 79.5269 128.998C79.0871 129.57 78.5734 130.462 78.5798 131.188C78.5959 132.764 80.8593 133.024 83.3217 132.998L83.6845 132.995C86.147 132.969 88.4039 132.664 88.3911 131.091C88.3879 130.767 88.2627 130.366 88.0957 130.003C86.7762 127.313 89.1327 124.622 90.8535 123.152C91.8167 122.336 92.8569 121.437 93.6113 120.179C94.0062 123.444 93.9292 127.727 93.011 128.866C92.5326 129.435 92.0157 130.327 92.0222 131.056C92.0382 132.629 94.3016 132.889 96.8058 132.867L97.13 132.864C99.5925 132.838 101.849 132.533 101.833 130.96C101.827 130.231 101.294 129.348 100.845 128.786C99.3742 127.065 99.7691 118.018 100.922 116.39C101.243 115.903 101.676 115.052 101.67 114.406Z" fill="#FCF9F2"/>
<path d="M110.316 118.26C106.165 118.494 102.996 121.826 103.215 125.695C103.433 129.567 106.955 132.482 111.106 132.248C115.257 132.013 118.471 128.716 118.253 124.848C118.031 120.979 114.467 118.025 110.316 118.26ZM111.026 130.797C110.098 130.848 109.234 128.43 109.064 125.448C108.897 122.465 109.485 120.003 110.413 119.952C111.34 119.9 112.243 122.276 112.41 125.258C112.58 128.241 111.95 130.742 111.026 130.797Z" fill="#FCF9F2"/>
<path d="M138.362 127.533C136.327 125.783 136.786 118.518 136.914 117.33C137.222 114.701 133.601 117.047 132.301 117.863C130.965 118.726 128.959 119.776 128.917 120.996C128.894 121.606 129.492 121.873 129.944 122.354C130.307 122.765 130.927 123.68 131.148 125.119L131.177 125.398C131.286 126.525 131.27 127.581 131.036 128.091C130.734 128.727 130.33 129.173 129.848 129.222C129.527 129.254 129.238 129.199 128.936 129.026C126.567 126.785 127.305 119.452 127.431 118.261C127.742 115.635 124.156 117.975 122.817 118.797C121.523 119.654 119.552 120.659 119.427 121.847L119.443 122.011C119.459 122.576 120.008 122.807 120.461 123.289C121.411 124.29 121.542 126.021 121.655 127.186L121.674 127.388C122.169 130.342 125.902 131.193 128.313 130.955L128.474 130.939C128.878 130.901 129.119 130.875 129.312 130.775C130.692 130.397 131.222 129.572 132.025 129.494C132.869 129.411 134.262 130.371 136.07 130.191C137.637 130.037 139.184 129.681 139.226 128.461C139.258 127.969 138.725 127.902 138.362 127.533Z" fill="#FCF9F2"/>
<path d="M153.56 116.418C152.382 114.707 148.95 114.373 146.151 114.765L146.074 114.774C142.115 115.33 139.152 117.458 139.861 120.213C140.795 123.953 149.213 123.221 148.696 126.515C148.469 127.812 146.452 128.258 146.443 126.139C146.382 122.804 138.921 124.258 140.808 126.968C141.987 128.679 145.377 129.019 148.215 128.621L148.295 128.611C152.173 128.066 155.185 125.401 154.53 123.333C153.487 119.972 145.367 120.216 145.672 116.871C145.82 115.586 147.92 115.169 147.926 117.246C147.987 120.582 155.448 119.128 153.56 116.418Z" fill="#FCF9F2"/>
<path d="M169.627 118.692C167.592 122.005 164.079 123.001 162.413 120.548C162.972 120.695 163.701 120.647 164.378 120.525C167.361 119.996 170.221 116.249 168.603 114.075C167.319 112.377 164.747 111.767 162.086 112.239C158.031 112.961 155.241 116.653 155.922 120.471C156.593 124.246 160.481 126.754 164.535 126.035C168.073 125.405 170.645 122.57 170.812 119.344L170.818 118.93C170.78 118.239 170.106 117.909 169.627 118.692ZM162.362 113.79C163.354 113.613 164.285 117.469 162.163 119.363C162.05 119.424 161.977 119.475 161.951 119.562C161.806 119.219 161.704 118.869 161.627 118.432C161.322 116.721 161.328 113.973 162.362 113.79Z" fill="#FCF9F2"/>
</svg>
