<svg width="30" height="30" viewBox="0 0 30 30" fill="none" xmlns="http://www.w3.org/2000/svg">
<path d="M25.125 8.675C25.125 9.35 24.7625 9.9625 24.1875 10.275L22.0125 11.45L20.1625 12.4375L16.325 14.5125C15.9125 14.7375 15.4625 14.85 15 14.85C14.5375 14.85 14.0875 14.7375 13.675 14.5125L5.8125 10.275C5.2375 9.9625 4.875 9.35 4.875 8.675C4.875 8 5.2375 7.3875 5.8125 7.075L8.275 5.75L10.2375 4.6875L13.675 2.8375C14.5 2.3875 15.5 2.3875 16.325 2.8375L24.1875 7.075C24.7625 7.3875 25.125 8 25.125 8.675Z" fill="#389C9A"/>
<path d="M12.3749 15.9877L5.0624 12.3377C4.4999 12.0502 3.8499 12.0877 3.3124 12.4127C2.7749 12.7377 2.4624 13.3127 2.4624 13.9377V20.8502C2.4624 22.0502 3.1249 23.1252 4.1999 23.6627L11.5124 27.3127C11.7624 27.4377 12.0374 27.5002 12.3124 27.5002C12.6374 27.5002 12.9624 27.4127 13.2499 27.2252C13.7874 26.9002 14.0999 26.3252 14.0999 25.7002V18.7877C14.1124 17.6002 13.4499 16.5252 12.3749 15.9877Z" fill="#389C9A"/>
<path d="M27.5375 13.9375V20.85C27.5375 22.0375 26.875 23.1125 25.8 23.65L18.4875 27.3125C18.2375 27.4375 17.9625 27.5 17.6875 27.5C17.3625 27.5 17.0375 27.4125 16.7375 27.225C16.2125 26.9 15.8875 26.325 15.8875 25.7V18.8C15.8875 17.6 16.55 16.525 17.625 15.9875L20.3125 14.65L22.1875 13.7125L24.9375 12.3375C25.5 12.05 26.15 12.075 26.6875 12.4125C27.2125 12.7375 27.5375 13.3125 27.5375 13.9375Z" fill="#389C9A"/>
<path d="M22.0124 11.45L20.1624 12.4375L8.2749 5.75L10.2374 4.6875L21.7124 11.1625C21.8374 11.2375 21.9374 11.3375 22.0124 11.45Z" fill="white"/>
<path d="M22.1875 13.7124V16.5499C22.1875 17.0624 21.7625 17.4874 21.25 17.4874C20.7375 17.4874 20.3125 17.0624 20.3125 16.5499V14.6499L22.1875 13.7124Z" fill="white"/>
</svg>
