<svg width="30" height="30" viewBox="0 0 30 30" fill="none" xmlns="http://www.w3.org/2000/svg">
<path d="M26.8126 17.05V18.3C26.8126 18.6375 26.5501 18.9125 26.2001 18.925H24.3751C23.7126 18.925 23.1126 18.4375 23.0626 17.7875C23.0251 17.4 23.1751 17.0375 23.4251 16.7875C23.6501 16.55 23.9626 16.425 24.3001 16.425H26.1876C26.5501 16.4375 26.8126 16.7125 26.8126 17.05Z" fill="#389C9A"/>
<path d="M22.4875 15.8625C21.8625 16.475 21.5625 17.3875 21.8125 18.3375C22.1375 19.5 23.275 20.2376 24.475 20.2376H25.5625C26.25 20.2376 26.8125 20.8 26.8125 21.4876V21.725C26.8125 24.3125 24.7 26.425 22.1125 26.425H7.7625C5.175 26.425 3.0625 24.3125 3.0625 21.725V13.3125C3.0625 11.775 3.8 10.4125 4.9375 9.56255C5.725 8.96255 6.7 8.61255 7.7625 8.61255H22.1125C24.7 8.61255 26.8125 10.725 26.8125 13.3125V13.8625C26.8125 14.55 26.25 15.1125 25.5625 15.1125H24.2875C23.5875 15.1125 22.95 15.3875 22.4875 15.8625Z" fill="#389C9A"/>
<path d="M20.2501 6.025C20.5876 6.3625 20.3001 6.8875 19.8251 6.8875L10.2251 6.875C9.67507 6.875 9.38757 6.2 9.78757 5.8125L11.8126 3.775C13.5251 2.075 16.3001 2.075 18.0126 3.775L20.2001 5.9875C20.2126 6 20.2376 6.0125 20.2501 6.025Z" fill="#389C9A"/>
</svg>
