<svg width="36" height="36" viewBox="0 0 36 36" fill="none" xmlns="http://www.w3.org/2000/svg">
<path d="M22.3353 27.33H9.15028C8.37028 27.33 7.63527 27.255 6.97527 27.105C6.63027 27.06 6.21028 26.94 5.77528 26.775C3.78028 26.025 1.42529 24.18 1.42529 19.59V11.865C1.42529 6.95996 4.24528 4.14001 9.15028 4.14001H22.3353C26.4753 4.14001 29.1453 6.11997 29.8653 9.71997C30.0003 10.38 30.0603 11.085 30.0603 11.865V19.59C30.0603 24.525 27.2553 27.33 22.3353 27.33ZM9.16525 6.42004C5.47525 6.42004 3.69026 8.20499 3.69026 11.895V19.62C3.69026 22.305 4.63528 23.955 6.57028 24.69C6.87028 24.795 7.15529 24.87 7.42529 24.915C7.99529 25.035 8.55025 25.095 9.16525 25.095H22.3503C26.0403 25.095 27.8253 23.31 27.8253 19.62V11.895C27.8253 11.265 27.7803 10.71 27.6753 10.2C27.1653 7.64998 25.4253 6.42004 22.3503 6.42004H9.16525Z" fill="#020202"/>
<path d="M26.8351 31.8299H13.6501C12.3751 31.8299 11.2351 31.6499 10.2601 31.2749C8.05512 30.4499 6.61511 28.7099 6.12011 26.2199C6.04511 25.8449 6.16514 25.455 6.43514 25.2C6.70514 24.93 7.09514 24.825 7.47014 24.915C7.96514 25.02 8.52014 25.0799 9.15014 25.0799H22.3351C26.0251 25.0799 27.8101 23.295 27.8101 19.605V11.8799C27.8101 11.2499 27.7651 10.6949 27.6601 10.1849C27.5851 9.80994 27.7051 9.43495 27.9601 9.16495C28.2301 8.89495 28.6051 8.77493 28.9801 8.86493C32.5801 9.59993 34.5601 12.2699 34.5601 16.3799V24.105C34.5601 29.025 31.7551 31.8299 26.8351 31.8299ZM8.88015 27.3299C9.36015 28.1999 10.0801 28.815 11.0701 29.175C11.7901 29.445 12.6601 29.5799 13.6651 29.5799H26.8501C30.5401 29.5799 32.3251 27.795 32.3251 24.105V16.3799C32.3251 14.0099 31.5901 12.435 30.0751 11.61C30.0751 11.7 30.0751 11.7899 30.0751 11.8799V19.605C30.0751 24.51 27.2551 27.3299 22.3501 27.3299H9.16511C9.06011 27.3299 8.97015 27.3299 8.88015 27.3299Z" fill="#020202"/>
<path d="M15.7498 20.835C12.9448 20.835 10.6648 18.555 10.6648 15.75C10.6648 12.945 12.9448 10.665 15.7498 10.665C18.5548 10.665 20.8348 12.945 20.8348 15.75C20.8348 18.555 18.5548 20.835 15.7498 20.835ZM15.7498 12.915C14.1898 12.915 12.9148 14.19 12.9148 15.75C12.9148 17.31 14.1898 18.585 15.7498 18.585C17.3098 18.585 18.5848 17.31 18.5848 15.75C18.5848 14.19 17.3098 12.915 15.7498 12.915Z" fill="#020202"/>
<path d="M7.17041 20.1751C6.55541 20.1751 6.04541 19.6651 6.04541 19.0501V12.4501C6.04541 11.8351 6.55541 11.3251 7.17041 11.3251C7.78541 11.3251 8.29541 11.8351 8.29541 12.4501V19.0501C8.29541 19.6651 7.80041 20.1751 7.17041 20.1751Z" fill="#020202"/>
<path d="M24.3149 20.1751C23.6999 20.1751 23.1899 19.6651 23.1899 19.0501V12.4501C23.1899 11.8351 23.6999 11.3251 24.3149 11.3251C24.9299 11.3251 25.4399 11.8351 25.4399 12.4501V19.0501C25.4399 19.6651 24.9449 20.1751 24.3149 20.1751Z" fill="#020202"/>
</svg>
