<svg width="154" height="165" viewBox="0 0 154 165" fill="none" xmlns="http://www.w3.org/2000/svg">
<path d="M148.173 44.0322H104.66C102.365 44.0322 100.504 45.893 100.504 48.1884V60.0225C100.504 62.3179 102.365 64.1786 104.66 64.1786H148.173C150.468 64.1786 152.329 62.3179 152.329 60.0225V48.1884C152.329 45.893 150.468 44.0322 148.173 44.0322Z" fill="#FFD35A"/>
<path d="M139.541 47.4297H105.551C105.15 47.4297 104.824 47.7554 104.824 48.1571V48.9555C104.824 49.3573 105.15 49.683 105.551 49.683H139.541C139.943 49.683 140.269 49.3573 140.269 48.9555V48.1571C140.269 47.7554 139.943 47.4297 139.541 47.4297Z" fill="#FFD35A"/>
<path d="M128.776 52.8589H105.551C105.15 52.8589 104.824 53.1846 104.824 53.5863V54.3847C104.824 54.7865 105.15 55.1122 105.551 55.1122H128.776C129.178 55.1122 129.504 54.7865 129.504 54.3847V53.5863C129.504 53.1846 129.178 52.8589 128.776 52.8589Z" fill="#FFD35A"/>
<path d="M122.549 58.2881H105.551C105.15 58.2881 104.824 58.6138 104.824 59.0155V59.8139C104.824 60.2157 105.15 60.5414 105.551 60.5414H122.549C122.95 60.5414 123.276 60.2157 123.276 59.8139V59.0155C123.276 58.6138 122.95 58.2881 122.549 58.2881Z" fill="#FFD35A"/>
<path d="M143.613 58.2881H126.616C126.214 58.2881 125.888 58.6138 125.888 59.0155V59.8139C125.888 60.2157 126.214 60.5414 126.616 60.5414H143.613C144.015 60.5414 144.34 60.2157 144.34 59.8139V59.0155C144.34 58.6138 144.015 58.2881 143.613 58.2881Z" fill="#FFD35A"/>
<g opacity="0.5">
<path d="M139.541 47.4297H105.551C105.15 47.4297 104.824 47.7554 104.824 48.1571V48.9555C104.824 49.3573 105.15 49.683 105.551 49.683H139.541C139.943 49.683 140.269 49.3573 140.269 48.9555V48.1571C140.269 47.7554 139.943 47.4297 139.541 47.4297Z" fill="white"/>
<path d="M128.776 52.8589H105.552C105.15 52.8589 104.824 53.1846 104.824 53.5863V54.3847C104.824 54.7865 105.15 55.1122 105.552 55.1122H128.776C129.178 55.1122 129.504 54.7865 129.504 54.3847V53.5863C129.504 53.1846 129.178 52.8589 128.776 52.8589Z" fill="white"/>
<path d="M122.549 58.2881H105.552C105.15 58.2881 104.824 58.6138 104.824 59.0155V59.8139C104.824 60.2157 105.15 60.5414 105.552 60.5414H122.549C122.951 60.5414 123.276 60.2157 123.276 59.8139V59.0155C123.276 58.6138 122.951 58.2881 122.549 58.2881Z" fill="white"/>
<path d="M143.613 58.2881H126.616C126.214 58.2881 125.889 58.6138 125.889 59.0155V59.8139C125.889 60.2157 126.214 60.5414 126.616 60.5414H143.613C144.015 60.5414 144.341 60.2157 144.341 59.8139V59.0155C144.341 58.6138 144.015 58.2881 143.613 58.2881Z" fill="white"/>
</g>
<path d="M113.318 39.335H63.928C60.5621 39.335 57.8335 42.0636 57.8335 45.4294V62.7814C57.8335 66.1473 60.5621 68.8759 63.928 68.8759H113.318C116.684 68.8759 119.413 66.1473 119.413 62.7814V45.4294C119.413 42.0636 116.684 39.335 113.318 39.335Z" fill="#FFD35A"/>
<path d="M115.066 44.3159H65.2366C64.6462 44.3159 64.1676 44.7945 64.1676 45.3849V46.5514C64.1676 47.1418 64.6462 47.6204 65.2366 47.6204H115.066C115.656 47.6204 116.135 47.1418 116.135 46.5514V45.3849C116.135 44.7945 115.656 44.3159 115.066 44.3159Z" fill="#FFD35A"/>
<path d="M99.2796 52.2778H65.2366C64.6462 52.2778 64.1676 52.7564 64.1676 53.3468V54.5134C64.1676 55.1037 64.6462 55.5823 65.2366 55.5823H99.2796C99.87 55.5823 100.349 55.1037 100.349 54.5134V53.3468C100.349 52.7564 99.87 52.2778 99.2796 52.2778Z" fill="#FFD35A"/>
<path d="M90.1512 60.2393H65.2366C64.6462 60.2393 64.1676 60.7179 64.1676 61.3082V62.4748C64.1676 63.0652 64.6462 63.5438 65.2366 63.5438H90.1512C90.7416 63.5438 91.2202 63.0652 91.2202 62.4748V61.3082C91.2202 60.7179 90.7416 60.2393 90.1512 60.2393Z" fill="#FFD35A"/>
<path d="M116.88 60.2393H96.1212C95.5308 60.2393 95.0522 60.7179 95.0522 61.3082V62.4748C95.0522 63.0652 95.5308 63.5438 96.1212 63.5438H116.88C117.47 63.5438 117.949 63.0652 117.949 62.4748V61.3082C117.949 60.7179 117.47 60.2393 116.88 60.2393Z" fill="#FFD35A"/>
<g opacity="0.5">
<path d="M115.066 44.3159H65.2366C64.6462 44.3159 64.1676 44.7945 64.1676 45.3849V46.5514C64.1676 47.1418 64.6462 47.6204 65.2366 47.6204H115.066C115.656 47.6204 116.135 47.1418 116.135 46.5514V45.3849C116.135 44.7945 115.656 44.3159 115.066 44.3159Z" fill="white"/>
<path d="M99.2798 52.2778H65.2367C64.6463 52.2778 64.1677 52.7564 64.1677 53.3468V54.5134C64.1677 55.1037 64.6463 55.5823 65.2367 55.5823H99.2798C99.8701 55.5823 100.349 55.1037 100.349 54.5134V53.3468C100.349 52.7564 99.8701 52.2778 99.2798 52.2778Z" fill="white"/>
<path d="M90.1513 60.2393H65.2367C64.6463 60.2393 64.1677 60.7179 64.1677 61.3082V62.4748C64.1677 63.0652 64.6463 63.5438 65.2367 63.5438H90.1513C90.7417 63.5438 91.2203 63.0652 91.2203 62.4748V61.3082C91.2203 60.7179 90.7417 60.2393 90.1513 60.2393Z" fill="white"/>
<path d="M116.88 60.2393H96.1215C95.5311 60.2393 95.0525 60.7179 95.0525 61.3082V62.4748C95.0525 63.0652 95.5311 63.5438 96.1215 63.5438H116.88C117.47 63.5438 117.949 63.0652 117.949 62.4748V61.3082C117.949 60.7179 117.47 60.2393 116.88 60.2393Z" fill="white"/>
</g>
<path d="M82.6104 74.2295H58.8224C57.2497 74.2295 55.9747 75.5044 55.9747 77.0771V112.713C55.9747 114.285 57.2497 115.56 58.8224 115.56H82.6104C84.1831 115.56 85.458 114.285 85.458 112.713V77.0771C85.458 75.5044 84.1831 74.2295 82.6104 74.2295Z" fill="#FFD35A"/>
<path opacity="0.4" d="M82.6104 74.2295H58.8224C57.2497 74.2295 55.9747 75.5044 55.9747 77.0771V112.713C55.9747 114.285 57.2497 115.56 58.8224 115.56H82.6104C84.1831 115.56 85.458 114.285 85.458 112.713V77.0771C85.458 75.5044 84.1831 74.2295 82.6104 74.2295Z" fill="black"/>
<path d="M81.5192 78.5405H59.909C59.62 78.5405 59.3856 78.7749 59.3856 79.0639V79.849C59.3856 80.1381 59.62 80.3724 59.909 80.3724H81.5192C81.8082 80.3724 82.0426 80.1381 82.0426 79.849V79.0639C82.0426 78.7749 81.8082 78.5405 81.5192 78.5405Z" fill="#FAFAFA"/>
<path d="M74.6396 82.9497H59.909C59.62 82.9497 59.3856 83.184 59.3856 83.4731V84.2582C59.3856 84.5473 59.62 84.7816 59.909 84.7816H74.6396C74.9286 84.7816 75.163 84.5473 75.163 84.2582V83.4731C75.163 83.184 74.9286 82.9497 74.6396 82.9497Z" fill="#FAFAFA"/>
<path d="M81.5192 87.3633H59.909C59.62 87.3633 59.3856 87.5976 59.3856 87.8867V88.6718C59.3856 88.9608 59.62 89.1952 59.909 89.1952H81.5192C81.8082 89.1952 82.0426 88.9608 82.0426 88.6718V87.8867C82.0426 87.5976 81.8082 87.3633 81.5192 87.3633Z" fill="#FAFAFA"/>
<path d="M67.9418 91.772H59.909C59.62 91.772 59.3856 92.0063 59.3856 92.2954V93.0805C59.3856 93.3695 59.62 93.6039 59.909 93.6039H67.9418C68.2309 93.6039 68.4653 93.3695 68.4653 93.0805V92.2954C68.4653 92.0063 68.2309 91.772 67.9418 91.772Z" fill="#FAFAFA"/>
<path d="M79.182 91.772H71.1491C70.8601 91.772 70.6257 92.0063 70.6257 92.2954V93.0805C70.6257 93.3695 70.8601 93.6039 71.1491 93.6039H79.182C79.471 93.6039 79.7054 93.3695 79.7054 93.0805V92.2954C79.7054 92.0063 79.471 91.772 79.182 91.772Z" fill="#FAFAFA"/>
<path d="M81.5192 96.1855H59.909C59.62 96.1855 59.3856 96.4199 59.3856 96.7089V97.494C59.3856 97.7831 59.62 98.0174 59.909 98.0174H81.5192C81.8082 98.0174 82.0426 97.7831 82.0426 97.494V96.7089C82.0426 96.4199 81.8082 96.1855 81.5192 96.1855Z" fill="#FAFAFA"/>
<path d="M81.5192 100.595H59.909C59.62 100.595 59.3856 100.829 59.3856 101.118V101.903C59.3856 102.192 59.62 102.427 59.909 102.427H81.5192C81.8082 102.427 82.0426 102.192 82.0426 101.903V101.118C82.0426 100.829 81.8082 100.595 81.5192 100.595Z" fill="#FAFAFA"/>
<path d="M77.6868 105.008H59.909C59.62 105.008 59.3856 105.242 59.3856 105.531V106.316C59.3856 106.605 59.62 106.84 59.909 106.84H77.6868C77.9759 106.84 78.2102 106.605 78.2102 106.316V105.531C78.2102 105.242 77.9759 105.008 77.6868 105.008Z" fill="#FAFAFA"/>
<path d="M68.2035 109.417H59.909C59.62 109.417 59.3856 109.651 59.3856 109.94V110.725C59.3856 111.015 59.62 111.249 59.909 111.249H68.2035C68.4926 111.249 68.7269 111.015 68.7269 110.725V109.94C68.7269 109.651 68.4926 109.417 68.2035 109.417Z" fill="#FAFAFA"/>
<path d="M89.0466 73.9766H56.0503L70.6389 85.5845L93.0075 94.0121V77.9287C93.0052 76.8797 92.5868 75.8745 91.8443 75.1336C91.1017 74.3927 90.0955 73.9766 89.0466 73.9766Z" fill="#FFD35A"/>
<path opacity="0.4" d="M89.0466 73.9766H56.0503L70.6389 85.5845L93.0075 94.0121V77.9287C93.0052 76.8797 92.5868 75.8745 91.8443 75.1336C91.1017 74.3927 90.0955 73.9766 89.0466 73.9766Z" fill="black"/>
<path d="M87.6049 79.9556H63.462C63.0995 79.9556 62.8055 80.2495 62.8055 80.612V81.8363C62.8055 82.1988 63.0995 82.4927 63.462 82.4927H87.6049C87.9674 82.4927 88.2613 82.1988 88.2613 81.8363V80.612C88.2613 80.2495 87.9674 79.9556 87.6049 79.9556Z" fill="#FAFAFA"/>
<path d="M146.11 105.398V82.1914C146.11 80.4129 144.668 78.9712 142.89 78.9712H102.593C100.814 78.9712 99.3725 80.4129 99.3725 82.1914V105.398C99.3725 107.177 100.814 108.619 102.593 108.619H142.89C144.668 108.619 146.11 107.177 146.11 105.398Z" fill="#FFD35A"/>
<path d="M153.469 98.0439V74.8369C153.469 73.0584 152.027 71.6167 150.249 71.6167H109.952C108.173 71.6167 106.731 73.0584 106.731 74.8369V98.0439C106.731 99.8224 108.173 101.264 109.952 101.264H150.249C152.027 101.264 153.469 99.8224 153.469 98.0439Z" fill="#FFD35A"/>
<path opacity="0.5" d="M153.469 98.0439V74.8369C153.469 73.0584 152.027 71.6167 150.249 71.6167H109.952C108.173 71.6167 106.731 73.0584 106.731 74.8369V98.0439C106.731 99.8224 108.173 101.264 109.952 101.264H150.249C152.027 101.264 153.469 99.8224 153.469 98.0439Z" fill="white"/>
<path d="M149.379 90.0913V75.8043C149.379 75.013 148.738 74.3716 147.946 74.3716H134.777C133.986 74.3716 133.345 75.013 133.345 75.8043V90.0913C133.345 90.8825 133.986 91.524 134.777 91.524H147.946C148.738 91.524 149.379 90.8825 149.379 90.0913Z" fill="#FFD35A"/>
<path opacity="0.7" d="M149.379 90.0913V75.8043C149.379 75.013 148.738 74.3716 147.946 74.3716H134.777C133.986 74.3716 133.345 75.013 133.345 75.8043V90.0913C133.345 90.8825 133.986 91.524 134.777 91.524H147.946C148.738 91.524 149.379 90.8825 149.379 90.0913Z" fill="white"/>
<path d="M130.834 97.0016V86.0546C130.834 85.4471 130.342 84.9546 129.734 84.9546H119.643C119.036 84.9546 118.543 85.4471 118.543 86.0546V97.0016C118.543 97.6091 119.036 98.1016 119.643 98.1016H129.734C130.342 98.1016 130.834 97.6091 130.834 97.0016Z" fill="#FFD35A"/>
<path opacity="0.3" d="M130.834 97.0016V86.0546C130.834 85.4471 130.342 84.9546 129.734 84.9546H119.643C119.036 84.9546 118.543 85.4471 118.543 86.0546V97.0016C118.543 97.6091 119.036 98.1016 119.643 98.1016H129.734C130.342 98.1016 130.834 97.6091 130.834 97.0016Z" fill="white"/>
<path d="M124.686 27.5938V21.6812C124.686 19.8733 123.221 18.4077 121.413 18.4077L13.127 18.4077C11.3192 18.4077 9.85358 19.8733 9.85358 21.6812V27.5938C9.85358 29.4017 11.3192 30.8673 13.127 30.8673L121.413 30.8673C123.221 30.8673 124.686 29.4017 124.686 27.5938Z" fill="#FFD35A"/>
<path opacity="0.5" d="M124.686 27.5938V21.6812C124.686 19.8733 123.221 18.4077 121.413 18.4077L13.127 18.4077C11.3192 18.4077 9.85358 19.8733 9.85358 21.6812V27.5938C9.85358 29.4017 11.3192 30.8673 13.127 30.8673L121.413 30.8673C123.221 30.8673 124.686 29.4017 124.686 27.5938Z" fill="white"/>
<path d="M104.199 32.9518V28.6626L73.0387 28.6626V32.9518H104.199Z" fill="#FFD35A"/>
<path opacity="0.5" d="M104.199 32.9518V28.6626L73.0387 28.6626V32.9518H104.199Z" fill="white"/>
<path d="M135.86 9.18609V3.27346C135.86 1.46558 134.394 0 132.586 0L24.3004 0C22.4925 0 21.0269 1.46558 21.0269 3.27346V9.18609C21.0269 10.994 22.4925 12.4595 24.3004 12.4595L132.586 12.4595C134.394 12.4595 135.86 10.994 135.86 9.18609Z" fill="#FFD35A"/>
<path d="M19.7895 65.5178C19.3991 66.4049 18.9689 67.363 18.5919 68.2989C18.2148 69.2348 17.8245 70.1974 17.483 71.1555C16.7822 73.0232 16.2203 74.9401 15.8019 76.8907L15.6733 77.6004L15.6289 77.8665C15.6289 77.9419 15.6289 78.0395 15.6023 78.1282C15.5854 78.5601 15.5943 78.9926 15.6289 79.4234C15.7132 80.3593 15.864 81.3617 16.0725 82.3642C16.445 84.3735 16.9196 86.4449 17.4031 88.4853L15.1277 89.3724C14.067 87.4388 13.1636 85.423 12.4264 83.3444C12.038 82.2626 11.7238 81.1556 11.4861 80.031C11.3528 79.4089 11.2698 78.777 11.2377 78.1415C11.2377 77.9641 11.2377 77.7955 11.2377 77.6048C11.2377 77.4141 11.2377 77.2012 11.2687 77.077L11.3574 76.1898C11.49 75.0473 11.6929 73.9141 11.9651 72.7966C12.2135 71.6877 12.5329 70.6099 12.8522 69.5453C13.1716 68.4808 13.5708 67.434 13.9922 66.4049C14.2006 65.8904 14.4357 65.3803 14.6398 64.8702C14.8438 64.3601 15.0833 63.8722 15.3672 63.3267L19.7895 65.5178Z" fill="#E4897B"/>
<path d="M17.2833 87.8862L19.0132 89.5762L15.2385 91.3504C15.2385 91.3504 14.3248 89.7492 14.9591 88.3032L17.2833 87.8862Z" fill="#E4897B"/>
<path d="M20.4105 92.0916L17.2213 93.3957L15.243 91.3332L19.0133 89.5767L20.4105 92.0916Z" fill="#E4897B"/>
<path opacity="0.4" d="M85.0147 90.273C78.7388 89.5684 72.8127 87.0188 67.9856 82.9466C63.1584 78.8745 59.647 73.4625 57.8952 67.395C56.1434 61.3274 56.2299 54.8767 58.1437 48.8583C60.0575 42.8399 63.7127 37.5241 68.6473 33.5827C73.5818 29.6414 79.5742 27.2516 85.8667 26.7154C92.1593 26.1792 98.4695 27.5208 104 30.5704C109.53 33.62 114.032 38.2408 116.936 43.8487C119.841 49.4565 121.018 55.7996 120.318 62.0761C119.852 66.2461 118.57 70.2837 116.544 73.9579C114.518 77.6322 111.788 80.8712 108.509 83.4898C105.23 86.1084 101.468 88.0553 97.4368 89.2192C93.4056 90.3831 89.1845 90.7412 85.0147 90.273Z" fill="#FAFAFA"/>
<path opacity="0.4" d="M108.248 33.3731L59.6785 72.18C59.4744 71.7365 59.2748 71.2929 59.0885 70.8493C57.8709 67.953 57.092 64.8913 56.7776 61.7653L98.7293 28.2456C102.174 29.3945 105.394 31.1291 108.248 33.3731Z" fill="#FAFAFA"/>
<path opacity="0.4" d="M119.457 50.3748L73.7925 86.8574C69.4543 84.596 65.695 81.3663 62.8055 77.4185L112.666 37.5781C115.88 41.2672 118.203 45.6453 119.457 50.3748Z" fill="#FAFAFA"/>
<path d="M52.6262 46.3295L52.2048 46.1876C52.9346 44.0341 53.8519 41.9488 54.946 39.9556L55.3319 40.1685C54.2522 42.1394 53.3469 44.201 52.6262 46.3295ZM58.011 35.9769L57.6517 35.7152C61.2969 30.7863 66.0677 26.8003 71.5661 24.0896L71.7657 24.4888C66.3297 27.1715 61.6137 31.115 58.011 35.9902V35.9769ZM106.621 25.0964C105.171 24.319 103.671 23.6388 102.132 23.0605L102.291 22.6436C103.846 23.2355 105.361 23.9289 106.825 24.7194L106.621 25.0964Z" fill="#FFD35A"/>
<path opacity="0.3" d="M52.6262 46.3295L52.2048 46.1876C52.9346 44.0341 53.8519 41.9488 54.946 39.9556L55.3319 40.1685C54.2522 42.1394 53.3469 44.201 52.6262 46.3295ZM58.011 35.9769L57.6517 35.7152C61.2969 30.7863 66.0677 26.8003 71.5661 24.0896L71.7657 24.4888C66.3297 27.1715 61.6137 31.115 58.011 35.9902V35.9769ZM106.621 25.0964C105.171 24.319 103.671 23.6388 102.132 23.0605L102.291 22.6436C103.846 23.2355 105.361 23.9289 106.825 24.7194L106.621 25.0964Z" fill="black"/>
<path d="M121.59 42.2221C117.483 33.7037 110.255 27.0925 101.406 23.759C92.5557 20.4255 82.7625 20.6255 74.056 24.3174C65.3496 28.0093 58.3977 34.9099 54.6416 43.5889C50.8855 52.2678 50.6132 62.0593 53.8812 70.9336C50.9183 71.9715 47.9908 73.0848 45.0811 74.2336C40.885 75.8984 36.7274 77.6372 32.6082 79.4499C28.492 81.2729 24.3935 83.1314 20.335 85.0742C18.299 86.0278 16.2897 87.0347 14.2627 88.0105C13.2081 88.4637 12.2527 89.1192 11.4505 89.94C11.0164 90.3946 10.6341 90.8959 10.3106 91.4348C9.91583 92.0722 9.61693 92.7642 9.42343 93.4885C9.08967 94.7937 9.23401 96.1754 9.83033 97.3835C10.4267 98.5916 11.4356 99.5464 12.6747 100.075C13.3628 100.364 14.0888 100.552 14.8304 100.634C15.4568 100.705 16.0892 100.705 16.7155 100.634C17.8538 100.496 18.9539 100.136 19.9535 99.5741C21.9628 98.5583 23.9854 97.5781 25.9815 96.5357C29.9735 94.4998 33.9655 92.3751 37.9087 90.2195C41.852 88.0638 45.7996 85.8061 49.6497 83.4907C52.311 81.8806 54.999 80.235 57.6337 78.514C62.6931 86.5009 70.6313 92.2353 79.8034 94.5289C88.9756 96.8225 98.6786 95.4994 106.902 90.8338C115.125 86.1682 121.238 78.5178 123.974 69.4678C126.71 60.4179 125.86 50.6621 121.599 42.2221H121.59ZM101.426 84.5951C96.2715 87.1395 90.478 88.0983 84.7784 87.3502C79.0788 86.6021 73.729 84.1808 69.4055 80.3924C65.0819 76.604 61.9788 71.6186 60.4885 66.0667C58.9981 60.5147 59.1875 54.6456 61.0327 49.2012C62.8778 43.7569 66.2959 38.982 70.8547 35.4802C75.4135 31.9784 80.9082 29.907 86.6442 29.5279C92.3802 29.1489 98.0998 30.4791 103.08 33.3505C108.06 36.2219 112.076 40.5055 114.622 45.6596C116.313 49.0825 117.312 52.8049 117.564 56.6143C117.816 60.4236 117.315 64.2452 116.089 67.8608C114.864 71.4764 112.938 74.8152 110.422 77.6865C107.906 80.5578 104.85 82.9054 101.426 84.5951Z" fill="#FFD35A"/>
<path opacity="0.3" d="M121.59 42.2221C117.483 33.7037 110.255 27.0925 101.406 23.759C92.5557 20.4255 82.7625 20.6255 74.056 24.3174C65.3496 28.0093 58.3977 34.9099 54.6416 43.5889C50.8855 52.2678 50.6132 62.0593 53.8812 70.9336C50.9183 71.9715 47.9908 73.0848 45.0811 74.2336C40.885 75.8984 36.7274 77.6372 32.6082 79.4499C28.492 81.2729 24.3935 83.1314 20.335 85.0742C18.299 86.0278 16.2897 87.0347 14.2627 88.0105C13.2081 88.4637 12.2527 89.1192 11.4505 89.94C11.0164 90.3946 10.6341 90.8959 10.3106 91.4348C9.91583 92.0722 9.61693 92.7642 9.42343 93.4885C9.08967 94.7937 9.23401 96.1754 9.83033 97.3835C10.4267 98.5916 11.4356 99.5464 12.6747 100.075C13.3628 100.364 14.0888 100.552 14.8304 100.634C15.4568 100.705 16.0892 100.705 16.7155 100.634C17.8538 100.496 18.9539 100.136 19.9535 99.5741C21.9628 98.5583 23.9854 97.5781 25.9815 96.5357C29.9735 94.4998 33.9655 92.3751 37.9087 90.2195C41.852 88.0638 45.7996 85.8061 49.6497 83.4907C52.311 81.8806 54.999 80.235 57.6337 78.514C62.6931 86.5009 70.6313 92.2353 79.8034 94.5289C88.9756 96.8225 98.6786 95.4994 106.902 90.8338C115.125 86.1682 121.238 78.5178 123.974 69.4678C126.71 60.4179 125.86 50.6621 121.599 42.2221H121.59ZM101.426 84.5951C96.2715 87.1395 90.478 88.0983 84.7784 87.3502C79.0788 86.6021 73.729 84.1808 69.4055 80.3924C65.0819 76.604 61.9788 71.6186 60.4885 66.0667C58.9981 60.5147 59.1875 54.6456 61.0327 49.2012C62.8778 43.7569 66.2959 38.982 70.8547 35.4802C75.4135 31.9784 80.9082 29.907 86.6442 29.5279C92.3802 29.1489 98.0998 30.4791 103.08 33.3505C108.06 36.2219 112.076 40.5055 114.622 45.6596C116.313 49.0825 117.312 52.8049 117.564 56.6143C117.816 60.4236 117.315 64.2452 116.089 67.8608C114.864 71.4764 112.938 74.8152 110.422 77.6865C107.906 80.5578 104.85 82.9054 101.426 84.5951Z" fill="black"/>
<path d="M32.0492 49.6787C32.0492 49.9404 32.1867 50.1533 32.3597 50.1533C32.5327 50.1533 32.6702 49.9404 32.6702 49.6787C32.6702 49.417 32.5327 49.2041 32.3597 49.2041C32.1867 49.2041 32.0492 49.4348 32.0492 49.6787Z" fill="#020202"/>
<path d="M32.1736 50.1528C32.4875 50.9562 32.9099 51.7128 33.4289 52.4017C33.2494 52.53 33.0441 52.6176 32.8272 52.6582C32.6104 52.6988 32.3873 52.6915 32.1736 52.6368V50.1528Z" fill="#DE5753"/>
<path d="M31.1313 48.2195C31.1066 48.2195 31.0821 48.2139 31.0599 48.2032C31.0376 48.1924 31.018 48.1768 31.0027 48.1574C30.9795 48.1235 30.9703 48.0821 30.9769 48.0416C30.9835 48.0012 31.0055 47.9648 31.0381 47.94C31.2335 47.7919 31.4618 47.6931 31.7035 47.6522C31.9452 47.6113 32.1933 47.6294 32.4265 47.705C32.4474 47.7107 32.4669 47.7207 32.4838 47.7344C32.5006 47.7481 32.5144 47.7652 32.5242 47.7846C32.534 47.804 32.5396 47.8252 32.5407 47.8468C32.5418 47.8685 32.5384 47.8902 32.5306 47.9105C32.5228 47.9307 32.5108 47.9491 32.4955 47.9645C32.4801 47.9798 32.4617 47.9918 32.4415 47.9996C32.4212 48.0074 32.3995 48.0109 32.3779 48.0098C32.3562 48.0087 32.335 48.0031 32.3156 47.9933C32.1303 47.9364 31.9341 47.9249 31.7435 47.9596C31.5528 47.9944 31.3733 48.0744 31.22 48.1929C31.1937 48.2103 31.1628 48.2196 31.1313 48.2195Z" fill="#020202"/>
<path d="M23.0893 51.6523C23.5329 54.0342 24.0208 58.4033 22.353 59.9957C22.353 59.9957 23.0051 62.4131 27.4362 62.4131C32.3153 62.4131 29.7604 59.9957 29.7604 59.9957C27.0991 59.3569 27.1745 57.3875 27.6358 55.5335L23.0893 51.6523Z" fill="#E4897B"/>
<path d="M20.3616 61.2512C20.8894 60.4306 20.0023 58.439 20.0023 58.439C20.0023 58.439 27.8444 56.4652 31.0513 59.4947C31.7167 60.1201 30.9804 61.0427 30.9804 61.0427L20.3616 61.2512Z" fill="#FFD35A"/>
<path opacity="0.1" d="M20.3616 61.2512C20.8894 60.4306 20.0023 58.439 20.0023 58.439C20.0023 58.439 27.8444 56.4652 31.0513 59.4947C31.7167 60.1201 30.9804 61.0427 30.9804 61.0427L20.3616 61.2512Z" fill="black"/>
<path d="M7.38753 151.75C6.97502 151.75 6.31412 151.063 6.11895 150.805C6.11056 150.793 6.10608 150.778 6.10608 150.763C6.10608 150.748 6.11056 150.734 6.11895 150.721C6.12611 150.709 6.13648 150.698 6.14897 150.691C6.16145 150.684 6.1756 150.681 6.18992 150.681C6.23871 150.681 7.32543 150.779 7.62261 151.165C7.65493 151.205 7.67801 151.253 7.69026 151.303C7.70251 151.354 7.70364 151.406 7.69358 151.457C7.68972 151.523 7.66546 151.587 7.62415 151.638C7.58283 151.69 7.5265 151.727 7.46293 151.746L7.38753 151.75ZM6.35847 150.863C6.68227 151.236 7.20123 151.657 7.42301 151.604C7.42301 151.604 7.51172 151.582 7.53834 151.44C7.54417 151.41 7.54321 151.379 7.53553 151.35C7.52784 151.321 7.51364 151.294 7.49398 151.271C7.16539 151.022 6.77003 150.877 6.35847 150.854V150.863Z" fill="#FFD35A"/>
<path d="M6.40742 150.854C6.32779 150.862 6.24754 150.862 6.1679 150.854C6.15388 150.853 6.14049 150.848 6.12944 150.839C6.11838 150.83 6.11016 150.819 6.1058 150.805C6.09956 150.793 6.09631 150.779 6.09631 150.765C6.09631 150.751 6.09956 150.738 6.1058 150.725C6.13685 150.699 6.78888 150.02 7.28123 150.02C7.34015 150.019 7.39868 150.03 7.45296 150.053C7.50724 150.076 7.55605 150.11 7.59616 150.153C7.64032 150.19 7.67054 150.241 7.68183 150.298C7.69312 150.354 7.68481 150.413 7.65825 150.464C7.52962 150.712 6.85098 150.854 6.40742 150.854ZM6.34976 150.699C6.79332 150.699 7.43648 150.561 7.54293 150.366C7.54293 150.366 7.57398 150.308 7.50301 150.237C7.47719 150.209 7.44555 150.187 7.41031 150.173C7.37507 150.158 7.33707 150.152 7.29897 150.153C6.93536 150.237 6.60489 150.427 6.34976 150.699Z" fill="#FFD35A"/>
<path d="M36.6581 161.819C36.3219 161.816 35.9865 161.785 35.6556 161.726C35.6392 161.723 35.6244 161.714 35.6138 161.701C35.6033 161.688 35.5977 161.671 35.598 161.655C35.5955 161.639 35.5975 161.624 35.6038 161.609C35.6101 161.595 35.6204 161.583 35.6334 161.575C35.6822 161.548 36.8177 160.896 37.3633 161.047C37.4139 161.058 37.4616 161.08 37.5036 161.111C37.5455 161.141 37.5808 161.18 37.6073 161.224C37.642 161.274 37.6607 161.333 37.6607 161.393C37.6607 161.453 37.642 161.512 37.6073 161.562C37.4786 161.761 37.075 161.819 36.6581 161.819ZM35.9084 161.61C36.5117 161.699 37.3367 161.695 37.4875 161.482C37.5097 161.455 37.5274 161.406 37.4875 161.313C37.4536 161.258 37.3995 161.218 37.3367 161.202C36.9907 161.114 36.3032 161.406 35.9084 161.61Z" fill="#FFD35A"/>
<path d="M35.6733 161.73C35.6588 161.734 35.6435 161.734 35.629 161.73C35.6167 161.722 35.6071 161.711 35.6015 161.697C35.596 161.684 35.5947 161.669 35.5979 161.655C35.628 161.193 35.8052 160.753 36.1036 160.399C36.1639 160.347 36.2348 160.309 36.3113 160.287C36.3879 160.264 36.4683 160.259 36.5471 160.271C36.76 160.271 36.8221 160.399 36.8354 160.484C36.8931 160.852 36.1169 161.557 35.7221 161.734L35.6733 161.73ZM36.4673 160.399C36.3697 160.399 36.2752 160.433 36.2012 160.497C35.9504 160.777 35.795 161.13 35.7576 161.504C36.1568 161.26 36.6891 160.71 36.6447 160.488C36.6447 160.488 36.6447 160.413 36.4939 160.399H36.4673Z" fill="#FFD35A"/>
<path d="M32.0895 161.65H35.3496L35.6734 154.105H32.4133L32.0895 161.65Z" fill="#E4897B"/>
<path d="M3.05847 148.698L5.78192 150.482L11.7966 145.403L9.06868 143.615L3.05847 148.698Z" fill="#E4897B"/>
<path d="M6.22994 150.313L3.40004 147.993C3.35005 147.952 3.28734 147.93 3.22262 147.93C3.15791 147.93 3.0952 147.952 3.0452 147.993L0.712082 149.825C0.655716 149.87 0.610196 149.927 0.578908 149.992C0.547621 150.057 0.531372 150.128 0.531372 150.2C0.531372 150.272 0.547621 150.343 0.578908 150.408C0.610196 150.473 0.655716 150.53 0.712082 150.575C1.71452 151.369 2.24236 151.706 3.48876 152.726C4.25611 153.351 6.1501 155.268 7.21908 156.133C8.28805 156.997 9.26831 156.066 8.91347 155.618C7.32109 153.6 6.69568 151.874 6.51382 150.805C6.48239 150.612 6.38143 150.437 6.22994 150.313Z" fill="#020202"/>
<path d="M35.327 161.273H31.7786C31.7139 161.274 31.6511 161.296 31.6004 161.336C31.5497 161.376 31.5141 161.432 31.4991 161.495L30.856 164.392C30.8398 164.462 30.8398 164.535 30.856 164.605C30.8723 164.675 30.9042 164.741 30.9495 164.797C30.9948 164.853 31.0523 164.898 31.1175 164.928C31.1828 164.959 31.2541 164.974 31.3261 164.973C32.608 164.951 34.4621 164.875 36.0767 164.875C37.9618 164.875 39.5941 164.977 41.803 164.977C43.1337 164.977 43.5151 163.624 42.9518 163.505C40.4058 162.946 38.3211 162.888 36.121 161.526C35.8849 161.37 35.61 161.282 35.327 161.273Z" fill="#020202"/>
<path d="M15.9306 60.9673C13.1051 62.298 11.495 71.2135 11.495 71.2135L18.4012 73.968C19.4121 71.4996 20.2292 68.9563 20.8452 66.361C21.7944 62.2537 18.8226 59.5923 15.9306 60.9673Z" fill="#020202"/>
<path d="M19.5942 65.9926C17.8865 67.7225 17.1058 71.1113 16.7643 73.3157L18.4188 73.9766C19.4009 71.5783 20.2016 69.1096 20.814 66.5914C20.6676 65.6511 20.3039 65.274 19.5942 65.9926Z" fill="#203048"/>
<path d="M34.773 60.9048C34.773 60.9048 38.2417 64.8259 34.9682 89.0707H17.5408C17.4211 86.4094 19.1021 73.3466 16.5206 60.7407C18.4466 60.3673 20.3951 60.1213 22.3534 60.0044C24.8204 59.8579 27.2939 59.8579 29.7608 60.0044C31.4523 60.1746 33.1281 60.4757 34.773 60.9048Z" fill="#020202"/>
<path d="M36.3651 70.3173L33.4288 65.2563C32.862 67.6177 32.6305 70.0471 32.7413 72.473C32.8211 74.2118 34.4135 80.6522 35.8462 81.5926C36.2263 77.8466 36.3996 74.0824 36.3651 70.3173Z" fill="#203048"/>
<path d="M36.7731 64.3691C37.2167 66.5248 37.6602 68.7338 38.1348 70.8983C38.6094 73.0629 39.1018 75.2363 39.674 77.3343C39.8203 77.8533 39.9578 78.3856 40.1175 78.8824L40.2373 79.2638L40.2949 79.4545V79.4324C40.2639 79.3925 40.2284 79.388 40.255 79.4324C40.4373 79.6315 40.6704 79.7771 40.9292 79.8537C41.3486 80.0098 41.7803 80.13 42.22 80.213C44.3171 80.5454 46.4404 80.6835 48.5629 80.6255L48.9842 83.0385C48.3899 83.2292 47.8354 83.3667 47.2499 83.5042C46.6644 83.6417 46.0878 83.7571 45.4979 83.8458C44.2773 84.049 43.0398 84.1322 41.803 84.0942C41.1156 84.0756 40.4319 83.9865 39.7627 83.828C38.9118 83.6419 38.1122 83.2709 37.4207 82.7413C36.969 82.3766 36.5963 81.9239 36.3251 81.4106C36.2541 81.2776 36.192 81.1268 36.1344 80.9981L36.0545 80.7897L35.8904 80.3461C35.6642 79.7828 35.4779 79.2283 35.2739 78.6739C34.5243 76.4561 33.8988 74.2161 33.3488 71.9806C32.7988 69.7451 32.3242 67.514 31.9294 65.2208L36.7731 64.3691Z" fill="#E4897B"/>
<path d="M30.4213 63.2823C29.5032 66.2586 33.2246 75.1342 33.2246 75.1342L40.6365 73.2712C40.6365 73.2712 40.3526 68.6582 38.6626 64.9989C36.1166 59.481 31.5214 59.7117 30.4213 63.2823Z" fill="#020202"/>
<path d="M48.5008 80.6254L52.1912 80.5322L50.417 84.3734C50.417 84.3734 48.9133 84.573 47.6802 82.546L46.3806 80.9935L47.8754 80.6963C48.0812 80.653 48.2906 80.6293 48.5008 80.6254Z" fill="#E4897B"/>
<path d="M54.5201 81.2464L52.4088 84.4311L50.4172 84.3734L52.1915 80.5322L54.5201 81.2464Z" fill="#E4897B"/>
<path d="M35.6735 154.105L35.5049 157.995H32.2448L32.4133 154.105H35.6735Z" fill="#CE6F64"/>
<path d="M9.06886 143.615L11.7967 145.403L8.69183 148.02L5.96838 146.237L9.06886 143.615Z" fill="#CE6F64"/>
<path d="M23.2935 49.1152C23.4887 52.3399 23.4399 54.2427 25.0677 55.8972C27.5162 58.3945 31.5038 56.9174 32.2755 53.6794C32.9719 50.7786 32.5372 45.9881 29.3791 44.7018C28.6823 44.4205 27.9254 44.3209 27.1795 44.4123C26.4336 44.5037 25.7232 44.7831 25.1149 45.2243C24.5065 45.6654 24.0202 46.2539 23.7017 46.9345C23.3831 47.6151 23.2426 48.3655 23.2935 49.1152Z" fill="#E4897B"/>
<path d="M19.4967 48.5472C20.2995 51.488 22.1891 54.8768 24.6331 55.0941C27.667 55.3602 29.0376 52.2243 29.4368 48.9863C31.2554 47.7399 30.3018 46.3693 32.1248 46.1963C34.4668 45.9746 33.7172 41.6898 30.6344 41.0023C30.6344 41.0023 31.6679 42.9317 29.4989 41.9559C27.4362 40.9756 25.1445 40.5783 22.8722 40.8071C22.8722 40.8071 25.64 42.191 22.9343 42.8076C20.2286 43.4241 19.4213 45.0919 20.6677 46.0987C20.6677 46.1032 18.9689 46.6133 19.4967 48.5472Z" fill="#020202"/>
<path d="M27.5873 49.6519C27.6469 50.4534 27.9697 51.2128 28.5055 51.812C29.2152 52.5971 29.9559 52.1092 30.0801 51.1555C30.1955 50.2995 29.9604 48.8579 29.091 48.4232C28.2216 47.9885 27.5297 48.6849 27.5873 49.6519Z" fill="#E4897B"/>
<path d="M28.785 89.0708C28.785 89.0708 31.9609 112.069 29.4592 121.286C25.4938 135.88 10.333 148.197 10.333 148.197L5.19214 144.826C5.19214 144.826 18.1041 134.425 19.6832 122.205C21.1026 111.235 17.5408 97.9686 17.5408 89.0664L28.785 89.0708Z" fill="#FFD35A"/>
<path opacity="0.1" d="M28.785 89.0708C28.785 89.0708 31.9609 112.069 29.4592 121.286C25.4938 135.88 10.333 148.197 10.333 148.197L5.19214 144.826C5.19214 144.826 18.1041 134.425 19.6832 122.205C21.1026 111.235 17.5408 97.9686 17.5408 89.0664L28.785 89.0708Z" fill="black"/>
<path d="M30.0975 102.218C29.252 101.249 28.3213 100.359 27.3164 99.5566C27.8575 107.022 28.3011 118.08 27.8088 125.935C28.4707 124.429 29.0222 122.877 29.4588 121.291C30.6786 116.789 30.5499 109.013 30.0975 102.218Z" fill="#FFD35A"/>
<path opacity="0.3" d="M30.0975 102.218C29.252 101.249 28.3213 100.359 27.3164 99.5566C27.8575 107.022 28.3011 118.08 27.8088 125.935C28.4707 124.429 29.0222 122.877 29.4588 121.291C30.6786 116.789 30.5499 109.013 30.0975 102.218Z" fill="black"/>
<path d="M12.4041 147.049C12.4263 147.049 10.4126 148.379 10.4126 148.379L4.79712 144.698L6.57135 143.229L12.4041 147.049Z" fill="#FFD35A"/>
<path opacity="0.3" d="M12.4041 147.049C12.4263 147.049 10.4126 148.379 10.4126 148.379L4.79712 144.698L6.57135 143.229L12.4041 147.049Z" fill="black"/>
<path d="M34.9681 89.0708C34.9681 89.0708 39.8738 109.874 40.2198 119.814C40.6101 130.956 36.7201 157.241 36.7201 157.241H31.1978C31.1978 157.241 30.5192 130.752 30.2752 120.603C30.0047 109.537 23.511 89.0708 23.511 89.0708H34.9681Z" fill="#FFD35A"/>
<path opacity="0.1" d="M34.9681 89.0708C34.9681 89.0708 39.8738 109.874 40.2198 119.814C40.6101 130.956 36.7201 157.241 36.7201 157.241H31.1978C31.1978 157.241 30.5192 130.752 30.2752 120.603C30.0047 109.537 23.511 89.0708 23.511 89.0708H34.9681Z" fill="black"/>
<path d="M37.78 155.045C37.8066 155.045 37.4695 157.334 37.4695 157.334H30.754L30.5721 155.289L37.78 155.045Z" fill="#FFD35A"/>
<path opacity="0.3" d="M37.78 155.045C37.8066 155.045 37.4695 157.334 37.4695 157.334H30.754L30.5721 155.289L37.78 155.045Z" fill="black"/>
<path d="M119.874 69.0796C120.251 69.4344 120.548 69.7361 120.859 70.0732C121.169 70.4103 121.462 70.7385 121.746 71.08C122.322 71.7587 122.864 72.4728 123.387 73.1914C124.432 74.6328 125.362 76.1545 126.168 77.7423L126.332 78.0661C126.412 78.2228 126.479 78.386 126.532 78.554C126.639 78.8785 126.705 79.2154 126.727 79.5564C126.756 80.1578 126.673 80.7594 126.483 81.3307C126.159 82.2796 125.678 83.1673 125.059 83.9565C123.945 85.3879 122.63 86.6517 121.156 87.709L120.051 86.4404C120.57 85.8328 121.112 85.1807 121.595 84.5287C122.087 83.897 122.532 83.2298 122.926 82.5327C123.294 81.9244 123.566 81.2632 123.733 80.5722C123.79 80.325 123.801 80.0692 123.764 79.8181C123.748 79.7337 123.721 79.6517 123.684 79.5742C123.668 79.5401 123.648 79.5075 123.627 79.4766L123.485 79.2371C122.629 77.8422 121.701 76.4934 120.703 75.1963C120.211 74.5442 119.683 73.9188 119.151 73.3023C118.889 72.9918 118.619 72.6902 118.348 72.3885C118.078 72.0869 117.785 71.7853 117.55 71.5502L119.874 69.0796Z" fill="#E4897B"/>
<path d="M120.477 86.068L117.164 85.5269L118.898 88.4277C118.898 88.4277 121.032 88.3523 121.639 87.0971L120.477 86.068Z" fill="#E4897B"/>
<path d="M114.715 86.8664L116.294 89.2217L118.898 88.4277L117.164 85.5269L114.715 86.8664Z" fill="#E4897B"/>
<path d="M120.317 161.778C120.092 161.798 119.867 161.736 119.683 161.605C119.628 161.553 119.587 161.487 119.564 161.414C119.541 161.341 119.538 161.263 119.555 161.189C119.558 161.141 119.574 161.095 119.601 161.056C119.629 161.017 119.666 160.986 119.71 160.967C120.096 160.794 121.107 161.441 121.222 161.517C121.235 161.525 121.246 161.537 121.251 161.551C121.257 161.566 121.258 161.582 121.253 161.597C121.252 161.612 121.245 161.626 121.235 161.637C121.224 161.648 121.211 161.656 121.196 161.659C120.908 161.732 120.614 161.772 120.317 161.778ZM119.874 161.091C119.842 161.086 119.809 161.086 119.776 161.091C119.757 161.1 119.74 161.114 119.728 161.132C119.717 161.15 119.71 161.171 119.71 161.193C119.698 161.242 119.699 161.294 119.713 161.343C119.727 161.392 119.753 161.437 119.79 161.472C119.958 161.623 120.393 161.645 120.974 161.53C120.641 161.31 120.267 161.161 119.874 161.091Z" fill="#FFD35A"/>
<path d="M121.205 161.655H121.165C120.85 161.473 120.242 160.768 120.318 160.382C120.332 160.321 120.366 160.266 120.414 160.226C120.462 160.186 120.521 160.163 120.584 160.16C120.644 160.151 120.705 160.156 120.762 160.175C120.82 160.193 120.873 160.224 120.916 160.266C121.28 160.586 121.285 161.544 121.285 161.597C121.284 161.61 121.28 161.624 121.273 161.635C121.266 161.647 121.256 161.656 121.245 161.663L121.205 161.655ZM120.637 160.324H120.601C120.504 160.324 120.482 160.377 120.473 160.417C120.428 160.643 120.805 161.184 121.12 161.437C121.128 161.065 121.021 160.7 120.814 160.39C120.788 160.366 120.756 160.347 120.722 160.335C120.687 160.324 120.651 160.32 120.615 160.324H120.637Z" fill="#FFD35A"/>
<path d="M105.201 161.779C104.918 161.806 104.634 161.734 104.398 161.575C104.345 161.528 104.304 161.468 104.279 161.402C104.253 161.336 104.244 161.264 104.252 161.193C104.255 161.15 104.269 161.108 104.292 161.072C104.315 161.036 104.347 161.006 104.385 160.985C104.798 160.754 106.119 161.428 106.27 161.513C106.284 161.522 106.295 161.534 106.302 161.549C106.309 161.564 106.312 161.581 106.31 161.597C106.307 161.612 106.3 161.627 106.289 161.638C106.278 161.649 106.263 161.656 106.248 161.659C105.904 161.732 105.553 161.772 105.201 161.779ZM104.611 161.091C104.56 161.088 104.51 161.099 104.465 161.122C104.449 161.13 104.435 161.142 104.426 161.157C104.417 161.172 104.412 161.189 104.412 161.207C104.405 161.253 104.409 161.3 104.425 161.344C104.44 161.388 104.466 161.428 104.5 161.459C104.704 161.641 105.25 161.672 105.986 161.548C105.557 161.319 105.092 161.165 104.611 161.091Z" fill="#FFD35A"/>
<path d="M106.235 161.654H106.199C105.804 161.477 105.019 160.767 105.081 160.381C105.081 160.293 105.161 160.182 105.379 160.16C105.458 160.151 105.538 160.159 105.615 160.183C105.691 160.206 105.761 160.245 105.822 160.297C106.239 160.643 106.319 161.539 106.319 161.579C106.321 161.593 106.319 161.606 106.313 161.619C106.308 161.631 106.299 161.642 106.288 161.65C106.271 161.657 106.252 161.659 106.235 161.654ZM105.441 160.324H105.392C105.25 160.324 105.241 160.395 105.237 160.412C105.201 160.639 105.733 161.202 106.124 161.446C106.085 161.067 105.93 160.709 105.68 160.421C105.613 160.364 105.529 160.33 105.441 160.324Z" fill="#FFD35A"/>
<path d="M111.477 58.8818C111.349 60.8867 111.003 64.9586 112.542 66.0852C112.542 66.0852 112.263 68.1389 108.63 68.6179C104.638 69.1369 106.461 66.8836 106.461 66.8836C108.577 66.0763 108.306 64.4662 107.729 62.9936L111.477 58.8818Z" fill="#E4897B"/>
<path d="M103.214 55.3382C103.192 55.3382 103.17 55.3335 103.151 55.3243C103.131 55.3151 103.113 55.3017 103.099 55.285C102.972 55.1345 102.812 55.016 102.63 54.9389C102.449 54.8619 102.253 54.8285 102.056 54.8414C102.036 54.8452 102.014 54.8447 101.994 54.84C101.973 54.8353 101.954 54.8264 101.937 54.814C101.92 54.8015 101.906 54.7857 101.895 54.7676C101.884 54.7494 101.877 54.7293 101.875 54.7083C101.87 54.6666 101.881 54.6246 101.907 54.5914C101.933 54.5582 101.97 54.5365 102.012 54.5309C102.263 54.5098 102.514 54.5495 102.746 54.6469C102.978 54.7442 103.183 54.8962 103.343 55.0898C103.362 55.1129 103.374 55.141 103.378 55.1708C103.382 55.2006 103.378 55.231 103.365 55.2583C103.353 55.2856 103.333 55.3089 103.307 55.3254C103.282 55.3419 103.253 55.3509 103.223 55.3515L103.214 55.3382Z" fill="#020202"/>
<path d="M102.522 57.3032C102.364 57.9394 102.121 58.5512 101.799 59.1218C101.947 59.2015 102.111 59.2476 102.278 59.2568C102.446 59.266 102.614 59.2381 102.77 59.175L102.522 57.3032Z" fill="#DE5753"/>
<path d="M102.699 56.815C102.735 57.0811 102.624 57.3118 102.451 57.3384C102.278 57.365 102.105 57.161 102.074 56.8949C102.043 56.6287 102.149 56.3981 102.322 56.3759C102.495 56.3537 102.668 56.5311 102.699 56.815Z" fill="#020202"/>
<path d="M102.402 56.3808L101.741 56.2788C101.741 56.2788 102.132 56.7357 102.402 56.3808Z" fill="#020202"/>
<path d="M109.89 161.583H106.563L106.341 153.888H109.668L109.89 161.583Z" fill="#E4897B"/>
<path d="M124.993 161.583H121.666L120.597 153.888H123.924L124.993 161.583Z" fill="#E4897B"/>
<path d="M121.462 161.211H125.197C125.261 161.21 125.322 161.233 125.37 161.275C125.419 161.316 125.45 161.374 125.459 161.437L125.902 164.396C125.91 164.47 125.903 164.546 125.879 164.617C125.856 164.689 125.818 164.754 125.768 164.81C125.718 164.866 125.656 164.91 125.588 164.94C125.519 164.971 125.445 164.986 125.37 164.986C124.07 164.963 123.44 164.888 121.799 164.888C120.788 164.888 119.311 164.99 117.918 164.99C116.525 164.99 116.45 163.611 117.031 163.486C119.635 162.928 120.047 162.156 120.921 161.415C121.074 161.288 121.264 161.217 121.462 161.211Z" fill="#020202"/>
<path d="M106.452 161.211H110.182C110.246 161.21 110.309 161.233 110.358 161.274C110.407 161.316 110.439 161.374 110.448 161.437L110.892 164.396C110.9 164.47 110.892 164.546 110.869 164.617C110.846 164.689 110.808 164.754 110.758 164.81C110.708 164.866 110.646 164.91 110.578 164.94C110.509 164.971 110.435 164.986 110.36 164.986C109.06 164.963 108.43 164.888 106.789 164.888C105.778 164.888 103.684 164.99 102.291 164.99C100.899 164.99 100.823 163.611 101.404 163.486C104.008 162.928 105.033 162.156 105.911 161.415C106.063 161.288 106.254 161.217 106.452 161.211Z" fill="#020202"/>
<path d="M106.341 153.888L106.456 157.858H109.783L109.668 153.888H106.341Z" fill="#CE6F64"/>
<path d="M123.924 153.888H120.597L121.151 157.858H124.474L123.924 153.888Z" fill="#CE6F64"/>
<path d="M111.522 54.7308C111.748 58.022 111.912 59.4104 110.484 61.3044C108.333 64.1476 104.243 63.7084 103.037 60.5503C101.95 57.7071 101.764 52.8058 104.789 51.0848C105.454 50.7034 106.206 50.4983 106.973 50.4891C107.74 50.4798 108.497 50.6667 109.171 51.0319C109.846 51.3972 110.415 51.9287 110.827 52.576C111.238 53.2234 111.478 53.9651 111.522 54.7308Z" fill="#E4897B"/>
<path d="M113.438 57.7869C115.283 58.8159 116.654 56.2788 116.654 56.2788C116.654 56.2788 113.345 56.6381 113.642 54.6687C114.032 52.0561 112.161 48.8802 107.468 49.2883C107.206 49.3105 106.958 49.3415 106.714 49.3815C106.222 49.1486 105.667 49.0885 105.137 49.2108C104.607 49.3332 104.135 49.6309 103.795 50.0557C102.464 50.1666 100.668 51.7545 101.888 53.8525C101.973 53.6115 102.106 53.3898 102.278 53.2005C102.38 54.4291 103.454 56.3808 104.793 56.5094C105.081 58.1905 103.964 60.1377 104.35 61.8942C104.922 64.4269 109.193 64.9991 109.193 64.9991C109.046 64.6828 108.991 64.3314 109.035 63.9852C109.079 63.6391 109.22 63.3125 109.442 63.043C112.343 64.3737 114.254 63.0741 114.254 63.0741C112.276 62.3378 112.875 61.0249 112.875 61.0249C113.558 61.3281 114.332 61.3548 115.034 61.0992C115.736 60.8436 116.312 60.3256 116.641 59.6543C115.983 59.6855 115.331 59.5257 114.763 59.1943C114.195 58.863 113.735 58.3741 113.438 57.7869Z" fill="#020202"/>
<path d="M105.951 57.0149C105.959 57.3308 105.904 57.6451 105.79 57.9397C105.675 58.2343 105.504 58.5034 105.285 58.7315C104.7 59.3392 103.981 58.9134 103.786 58.1371C103.613 57.4363 103.711 56.2786 104.474 55.9593C104.642 55.8933 104.823 55.8703 105.002 55.8925C105.181 55.9146 105.352 55.9811 105.499 56.086C105.646 56.1909 105.764 56.3309 105.843 56.4931C105.922 56.6553 105.959 56.8347 105.951 57.0149Z" fill="#E4897B"/>
<path d="M108.714 87.6779C108.714 87.6779 109.557 109.572 111.562 122.426C113.176 132.814 120.349 157.086 120.349 157.086H124.882C124.882 157.086 121.142 133.644 120.322 123.375C118.246 97.3874 123.635 91.8074 118.548 86.396L108.714 87.6779Z" fill="#020202"/>
<path d="M112.502 94.6021C112.502 94.6021 110.453 94.2473 109.255 98.1506C109.699 105.545 110.457 115.356 111.562 122.427C111.806 124.001 112.178 125.9 112.635 127.98C111.77 115.489 112.502 94.6021 112.502 94.6021Z" fill="#161F33"/>
<path d="M105.179 88.1392C105.179 88.1392 101.444 112.362 101.662 122.497C101.888 133.041 105.751 157.095 105.751 157.095H110.244C110.244 157.095 109.535 133.666 109.93 123.313C110.373 112.025 114.982 86.8662 114.982 86.8662L105.179 88.1392Z" fill="#020202"/>
<path d="M125.538 157.299H119.51L119.04 155.276L125.494 155.321L125.538 157.299Z" fill="#FFD35A"/>
<path opacity="0.2" d="M125.538 157.299H119.51L119.04 155.276L125.494 155.321L125.538 157.299Z" fill="black"/>
<path d="M118.322 66.09C120.056 66.2586 122.691 71.1865 122.691 71.1865L118.313 74.5442C118.313 74.5442 114.689 71.3639 115.119 69.5764C115.567 67.7179 116.658 65.9348 118.322 66.09Z" fill="#FFD35A"/>
<path opacity="0.1" d="M118.322 66.09C120.056 66.2586 122.691 71.1865 122.691 71.1865L118.313 74.5442C118.313 74.5442 114.689 71.3639 115.119 69.5764C115.567 67.7179 116.658 65.9348 118.322 66.09Z" fill="black"/>
<path d="M117.013 68.2099C116.571 68.0908 116.113 68.0399 115.656 68.0591C115.423 68.5441 115.243 69.0526 115.119 69.5761C114.675 71.3503 118.313 74.5439 118.313 74.5439L118.636 74.2955L117.013 68.2099Z" fill="#FFD35A"/>
<path opacity="0.3" d="M117.013 68.2099C116.571 68.0908 116.113 68.0399 115.656 68.0591C115.423 68.5441 115.243 69.0526 115.119 69.5761C114.675 71.3503 118.313 74.5439 118.313 74.5439L118.636 74.2955L117.013 68.2099Z" fill="black"/>
<path d="M103.693 72.943C102.429 76.141 101.098 79.3923 100.038 82.5992C99.967 82.8033 99.9093 82.9984 99.8472 83.198L99.6964 83.6904C99.6552 83.8354 99.6552 83.989 99.6964 84.1339C99.9468 84.6885 100.344 85.164 100.845 85.509C102.171 86.4605 103.616 87.2344 105.143 87.811L104.744 89.4433C102.866 89.1957 101.049 88.6032 99.3859 87.6957C98.3623 87.1489 97.5287 86.3045 96.9952 85.2739C96.6888 84.6152 96.5824 83.8811 96.6891 83.1625C96.6992 83.0746 96.714 82.9872 96.7334 82.9009L96.7778 82.7146L96.8532 82.3775C96.9064 82.1512 96.9597 81.9339 97.0173 81.7121C97.4609 79.9379 98.0286 78.2524 98.6274 76.5802C99.2263 74.9079 99.8517 73.2579 100.557 71.6123L103.693 72.943Z" fill="#E4897B"/>
<path d="M101.001 68.4541C101.001 68.4541 99.5014 69.2126 105.179 88.1392L118.565 86.3916C117.625 80.9713 117.182 77.6136 118.322 66.0899C116.402 65.9524 114.475 65.9524 112.555 66.0899C110.512 66.2088 108.479 66.4756 106.474 66.8883C103.906 67.4605 101.001 68.4541 101.001 68.4541Z" fill="#FFD35A"/>
<path opacity="0.1" d="M101.001 68.4541C101.001 68.4541 99.5014 69.2126 105.179 88.1392L118.565 86.3916C117.625 80.9713 117.182 77.6136 118.322 66.0899C116.402 65.9524 114.475 65.9524 112.555 66.0899C110.512 66.2088 108.479 66.4756 106.474 66.8883C103.906 67.4605 101.001 68.4541 101.001 68.4541Z" fill="black"/>
<path d="M118.663 85.58L119.431 86.6933C119.488 86.782 119.391 86.8885 119.24 86.9107L105.201 88.747C105.081 88.747 104.971 88.7159 104.953 88.6405L104.678 87.4562C104.656 87.3764 104.753 87.2921 104.886 87.2744L118.441 85.5001C118.482 85.4936 118.524 85.4975 118.563 85.5115C118.601 85.5255 118.636 85.549 118.663 85.58Z" fill="#FFD35A"/>
<path opacity="0.2" d="M118.663 85.58L119.431 86.6933C119.488 86.782 119.391 86.8885 119.24 86.9107L105.201 88.747C105.081 88.747 104.971 88.7159 104.953 88.6405L104.678 87.4562C104.656 87.3764 104.753 87.2921 104.886 87.2744L118.441 85.5001C118.482 85.4936 118.524 85.4975 118.563 85.5115C118.601 85.5255 118.636 85.549 118.663 85.58Z" fill="black"/>
<path d="M117.039 87.3323L117.403 87.2835C117.474 87.2835 117.523 87.2303 117.514 87.1859L117.142 85.6512C117.127 85.625 117.105 85.6045 117.077 85.5932C117.05 85.5819 117.019 85.5804 116.991 85.5891L116.627 85.6334C116.552 85.6334 116.503 85.6867 116.516 85.7355L116.889 87.2657C116.898 87.3145 116.969 87.3411 117.039 87.3323Z" fill="#020202"/>
<path d="M108.24 88.4675L108.603 88.4187C108.674 88.4187 108.727 88.3654 108.714 88.3211L108.342 86.7864C108.327 86.7605 108.304 86.74 108.277 86.728C108.25 86.716 108.22 86.7131 108.191 86.7198L107.827 86.7686C107.756 86.7686 107.703 86.8219 107.716 86.8662L108.089 88.4009C108.098 88.4675 108.169 88.4941 108.24 88.4675Z" fill="#020202"/>
<path d="M101.626 74.8771C101.994 76.5892 102.513 78.7582 103.271 81.5039L103.436 74.5444L101.626 74.8771Z" fill="#FFD35A"/>
<path opacity="0.3" d="M101.626 74.8771C101.994 76.5892 102.513 78.7582 103.271 81.5039L103.436 74.5444L101.626 74.8771Z" fill="black"/>
<path d="M101 68.4541C99.3371 69.1239 97.8955 74.8148 97.8955 74.8148L103.617 77.6003C103.617 77.6003 106.381 70.6409 105.143 69.2836C103.906 67.9263 102.917 67.6868 101 68.4541Z" fill="#FFD35A"/>
<path opacity="0.1" d="M101 68.4541C99.3371 69.1239 97.8955 74.8148 97.8955 74.8148L103.617 77.6003C103.617 77.6003 106.381 70.6409 105.143 69.2836C103.906 67.9263 102.917 67.6868 101 68.4541Z" fill="black"/>
<path d="M111.012 157.299H104.984L104.514 155.276L111.225 155.321L111.012 157.299Z" fill="#FFD35A"/>
<path opacity="0.2" d="M111.012 157.299H104.984L104.514 155.276L111.225 155.321L111.012 157.299Z" fill="black"/>
<path d="M105.237 87.261L104.753 87.0614C104.634 87.0131 104.505 86.997 104.378 87.0149C104.251 87.0328 104.131 87.084 104.03 87.1633C103.929 87.2425 103.851 87.3471 103.803 87.4663C103.756 87.5855 103.741 87.7151 103.76 87.8421L104.11 90.153C104.127 90.2687 104.169 90.3791 104.234 90.4765C104.299 90.5738 104.384 90.6555 104.484 90.7158C104.584 90.7761 104.697 90.8133 104.813 90.8249C104.929 90.8365 105.047 90.8222 105.157 90.7829C105.333 90.719 105.497 90.6276 105.645 90.5123C105.805 90.3792 105.932 90.2104 106.015 90.0193C106.098 89.8283 106.136 89.6203 106.124 89.4123L106.075 88.4542C106.067 88.1953 105.983 87.9445 105.834 87.7325C105.685 87.5206 105.477 87.3567 105.237 87.261Z" fill="#E4897B"/>
</svg>
