<svg width="30" height="30" viewBox="0 0 30 30" fill="none" xmlns="http://www.w3.org/2000/svg">
<path d="M27.9501 10.3375L27.5875 6.875C27.0625 3.1 25.3501 1.5625 21.6876 1.5625H18.7376H16.8876H13.0876H11.2376H8.23755C4.56255 1.5625 2.86255 3.1 2.32505 6.9125L1.98755 10.35C1.86255 11.6875 2.22505 12.9875 3.01255 14C3.96255 15.2375 5.42505 15.9375 7.05005 15.9375C8.62505 15.9375 10.1376 15.15 11.0876 13.8875C11.9376 15.15 13.3876 15.9375 15.0001 15.9375C16.6126 15.9375 18.0251 15.1875 18.8876 13.9375C19.85 15.175 21.3375 15.9375 22.8875 15.9375C24.55 15.9375 26.05 15.2 26.9875 13.9C27.7376 12.9 28.0751 11.6375 27.9501 10.3375Z" fill="#389C9A"/>
<path d="M14.1874 20.8248C12.5999 20.9873 11.3999 22.3373 11.3999 23.9373V27.3623C11.3999 27.6998 11.6749 27.9748 12.0124 27.9748H17.9749C18.3124 27.9748 18.5874 27.6998 18.5874 27.3623V24.3748C18.5999 21.7623 17.0624 20.5248 14.1874 20.8248Z" fill="#389C9A"/>
<path d="M26.7126 18.0001V21.7251C26.7126 25.1751 23.9126 27.9751 20.4626 27.9751C20.1251 27.9751 19.8501 27.7001 19.8501 27.3626V24.3751C19.8501 22.7751 19.3626 21.5251 18.4126 20.6751C17.5751 19.9126 16.4376 19.5376 15.0251 19.5376C14.7126 19.5376 14.4001 19.5501 14.0626 19.5876C11.8376 19.8126 10.1501 21.6876 10.1501 23.9376V27.3626C10.1501 27.7001 9.8751 27.9751 9.5376 27.9751C6.0876 27.9751 3.2876 25.1751 3.2876 21.7251V18.0251C3.2876 17.1501 4.1501 16.5626 4.9626 16.8501C5.3001 16.9626 5.6376 17.0501 5.9876 17.1001C6.1376 17.1251 6.3001 17.1501 6.4501 17.1501C6.6501 17.1751 6.8501 17.1876 7.0501 17.1876C8.5001 17.1876 9.9251 16.6501 11.0501 15.7251C12.1251 16.6501 13.5251 17.1876 15.0001 17.1876C16.4876 17.1876 17.8626 16.6751 18.9376 15.7501C20.0626 16.6626 21.4626 17.1876 22.8876 17.1876C23.1126 17.1876 23.3376 17.1751 23.5501 17.1501C23.7001 17.1376 23.8376 17.1251 23.9751 17.1001C24.3626 17.0501 24.7126 16.9376 25.0626 16.8251C25.8751 16.5501 26.7126 17.1501 26.7126 18.0001Z" fill="#389C9A"/>
</svg>
